<?xml version="1.0" encoding="utf-8"?>
<!-- Generator: Adobe Illustrator 15.0.0, SVG Export Plug-In . SVG Version: 6.00 Build 0)  -->
<!DOCTYPE svg PUBLIC "-//W3C//DTD SVG 1.0//EN" "http://www.w3.org/TR/2001/REC-SVG-20010904/DTD/svg10.dtd">
<svg version="1.0" id="Borland_Yes_button" xmlns="http://www.w3.org/2000/svg" xmlns:xlink="http://www.w3.org/1999/xlink" x="0px"
	 y="0px" width="75.32px" height="72.714px" viewBox="0 0 75.32 72.714" enable-background="new 0 0 75.32 72.714"
	 xml:space="preserve">
<g id="_x30_1-07">
	<g>
		<g>
			<g>
				<path fill="#141419" d="M75.32,50.604c0,12.213-9.898,22.11-22.109,22.11H22.108C9.896,72.714,0,62.816,0,50.604V22.112
					C0,9.899,9.896,0,22.108,0h31.103C65.422,0,75.32,9.899,75.32,22.112V50.604z"/>
				<g>
					
						<linearGradient id="SVGID_1_" gradientUnits="userSpaceOnUse" x1="151.0085" y1="-90.7734" x2="151.0085" y2="-128.2393" gradientTransform="matrix(1 0 0 -1 -113.3501 -92.3057)">
						<stop  offset="0" style="stop-color:#46464B"/>
						<stop  offset="0.289" style="stop-color:#35353A"/>
						<stop  offset="0.6984" style="stop-color:#242429"/>
						<stop  offset="1" style="stop-color:#1E1E23"/>
					</linearGradient>
					<path fill="url(#SVGID_1_)" d="M6.498,20.868v-0.021c0-7.655,6.975-13.887,15.543-13.887h31.236
						c8.565,0,15.543,6.232,15.543,13.887v0.021c0,7.655-6.978,8.107-15.543,8.107H22.041C13.472,28.975,6.498,28.523,6.498,20.868z
						"/>
				</g>
				
					<linearGradient id="SVGID_2_" gradientUnits="userSpaceOnUse" x1="123.7166" y1="-101.8765" x2="178.2986" y2="-101.8765" gradientTransform="matrix(1 0 0 -1 -113.3501 -92.3057)">
					<stop  offset="0.125" style="stop-color:#727779"/>
					<stop  offset="0.1685" style="stop-color:#E8E8E9"/>
					<stop  offset="0.212" style="stop-color:#9FA1A5"/>
					<stop  offset="0.3587" style="stop-color:#51515D"/>
				</linearGradient>
				<path fill="url(#SVGID_2_)" d="M21.078,8.484H54.24c4.088,0,7.822,1.417,10.709,3.745c-2.852-3.25-7.02-5.317-11.672-5.317
					H22.041c-4.65,0-8.821,2.067-11.674,5.317C13.254,9.901,16.99,8.484,21.078,8.484z"/>
				
					<linearGradient id="SVGID_3_" gradientUnits="userSpaceOnUse" x1="151.0095" y1="-159.436" x2="151.0095" y2="-151.5298" gradientTransform="matrix(1 0 0 -1 -113.3501 -92.3057)">
					<stop  offset="0.6087" style="stop-color:#25252B"/>
					<stop  offset="1" style="stop-color:#141419"/>
				</linearGradient>
				<path fill="url(#SVGID_3_)" d="M7.092,59.224c2.893,4.73,8.094,7.906,14.031,7.906h33.072c5.938,0,11.139-3.176,14.031-7.906
					H7.092z"/>
			</g>
			<g>
				
					<linearGradient id="SVGID_4_" gradientUnits="userSpaceOnUse" x1="147.2449" y1="-114.979" x2="149.6536" y2="-142.511" gradientTransform="matrix(1 0 0 -1 -113.3501 -92.3057)">
					<stop  offset="0" style="stop-color:#E6EBF2"/>
					<stop  offset="0.0173" style="stop-color:#D6EAC0"/>
					<stop  offset="0.0356" style="stop-color:#C7E994"/>
					<stop  offset="0.0552" style="stop-color:#BAE86C"/>
					<stop  offset="0.0759" style="stop-color:#AFE84A"/>
					<stop  offset="0.0979" style="stop-color:#A6E72F"/>
					<stop  offset="0.1217" style="stop-color:#9FE71A"/>
					<stop  offset="0.1483" style="stop-color:#9AE60B"/>
					<stop  offset="0.1796" style="stop-color:#97E603"/>
					<stop  offset="0.2283" style="stop-color:#96E600"/>
					<stop  offset="1" style="stop-color:#005E00"/>
				</linearGradient>
				<path fill="url(#SVGID_4_)" d="M41.166,39.526c4.653-6.258,9.451-12.649,9.451-12.649c0.219-0.299,0.111-0.754-0.181-0.986
					l-5.1-4.03c-0.144-0.116-0.333-0.168-0.518-0.142c-0.183,0.024-0.354,0.121-0.462,0.271c0,0-12.401,16.739-13.234,17.865
					c-0.95-0.842-6.508-5.733-6.508-5.733c-0.14-0.122-0.324-0.185-0.509-0.167c-0.187,0.013-0.357,0.103-0.476,0.247l-4.551,5.545
					c-0.238,0.293-0.197,0.723,0.092,0.963L30.2,49.946c0.399,0.404,0.995,0.646,1.624,0.642c0.623,0.004,1.219-0.235,1.665-0.683
					c0.023-0.026,1.596-2.047,4.246-5.61l-3.023-5.641l5.989-0.058L41.166,39.526z"/>
				<g>
					<path fill="#FFFFFF" d="M45.44,39.968l-3.012,5.08v3.645h-2.191V45.16l-3.064-5.19h2.496l1.711,3.116l1.646-3.116L45.44,39.968
						L45.44,39.968z"/>
					<path fill="#FFFFFF" d="M49.483,48.869c-1.242,0-2.194-0.297-2.856-0.891s-0.993-1.439-0.993-2.537
						c0-1.074,0.31-1.932,0.927-2.572c0.617-0.64,1.479-0.961,2.59-0.961c1.008,0,1.766,0.271,2.272,0.814
						c0.508,0.543,0.763,1.32,0.763,2.332v0.738H47.69c0.02,0.305,0.084,0.56,0.192,0.765c0.109,0.205,0.255,0.368,0.435,0.489
						c0.176,0.121,0.381,0.207,0.615,0.261c0.233,0.053,0.489,0.079,0.768,0.079c0.238,0,0.473-0.026,0.703-0.079
						c0.229-0.054,0.441-0.122,0.633-0.208c0.168-0.074,0.323-0.154,0.466-0.24c0.144-0.086,0.26-0.162,0.35-0.229h0.217v1.692
						c-0.168,0.066-0.321,0.128-0.46,0.185c-0.139,0.058-0.329,0.115-0.571,0.174c-0.223,0.059-0.452,0.104-0.688,0.138
						C50.113,48.853,49.823,48.869,49.483,48.869z M50.163,44.556c-0.012-0.434-0.112-0.764-0.302-0.99
						c-0.19-0.227-0.479-0.34-0.87-0.34c-0.398,0-0.71,0.119-0.935,0.357c-0.226,0.237-0.35,0.563-0.372,0.973H50.163L50.163,44.556
						z"/>
					<path fill="#FFFFFF" d="M55.243,48.875c-0.484,0-0.942-0.053-1.374-0.158c-0.432-0.104-0.788-0.229-1.069-0.368v-1.734h0.171
						c0.098,0.074,0.209,0.156,0.334,0.246c0.125,0.091,0.299,0.185,0.521,0.281c0.191,0.09,0.407,0.167,0.647,0.231
						c0.239,0.063,0.501,0.097,0.781,0.097c0.289,0,0.544-0.046,0.766-0.136c0.221-0.09,0.331-0.231,0.331-0.428
						c0-0.152-0.052-0.268-0.152-0.346s-0.299-0.152-0.592-0.223c-0.156-0.039-0.354-0.082-0.592-0.127
						c-0.238-0.045-0.449-0.097-0.634-0.154c-0.516-0.16-0.902-0.396-1.163-0.712c-0.26-0.315-0.39-0.729-0.39-1.239
						c0-0.293,0.067-0.568,0.202-0.829c0.135-0.26,0.333-0.491,0.595-0.694c0.263-0.199,0.585-0.356,0.971-0.475
						c0.385-0.118,0.818-0.176,1.304-0.176c0.461,0,0.885,0.046,1.271,0.138c0.387,0.093,0.713,0.202,0.979,0.331v1.664h-0.164
						c-0.07-0.055-0.182-0.128-0.334-0.22c-0.152-0.093-0.301-0.171-0.445-0.237c-0.172-0.078-0.364-0.143-0.577-0.193
						c-0.213-0.05-0.431-0.076-0.652-0.076c-0.297,0-0.548,0.052-0.753,0.152c-0.205,0.102-0.309,0.236-0.309,0.404
						c0,0.148,0.051,0.266,0.152,0.352c0.101,0.086,0.322,0.17,0.662,0.252c0.176,0.043,0.378,0.086,0.605,0.127
						c0.229,0.041,0.448,0.097,0.659,0.166c0.473,0.152,0.831,0.377,1.075,0.672s0.366,0.687,0.366,1.175
						c0,0.309-0.072,0.603-0.218,0.882c-0.145,0.279-0.35,0.516-0.614,0.706c-0.281,0.207-0.612,0.366-0.993,0.479
						S55.774,48.875,55.243,48.875z"/>
				</g>
			</g>
			<g opacity="0.55">
				<path d="M41.165,39.526c4.653-6.258,9.451-12.649,9.451-12.649c0.219-0.299,0.111-0.754-0.181-0.986l-5.1-4.03
					c-0.144-0.116-0.333-0.168-0.518-0.142c-0.184,0.024-0.354,0.121-0.462,0.271c0,0-12.401,16.739-13.234,17.865
					c-0.95-0.842-6.508-5.733-6.508-5.733c-0.14-0.122-0.324-0.185-0.509-0.167c-0.187,0.013-0.357,0.103-0.476,0.247l-4.551,5.545
					c-0.238,0.293-0.197,0.723,0.092,0.963l11.026,9.235c0.399,0.404,0.995,0.646,1.624,0.642c0.623,0.004,1.219-0.235,1.665-0.683
					c0.022-0.026,1.596-2.047,4.246-5.61l-3.023-5.641l5.989-0.058L41.165,39.526z"/>
				<g>
					<path d="M45.439,39.968l-3.012,5.08v3.645h-2.191V45.16l-3.064-5.19h2.496l1.711,3.116l1.646-3.116L45.439,39.968
						L45.439,39.968z"/>
					<path d="M49.482,48.869c-1.242,0-2.194-0.297-2.856-0.891s-0.993-1.439-0.993-2.537c0-1.074,0.31-1.932,0.927-2.572
						c0.616-0.64,1.479-0.961,2.59-0.961c1.008,0,1.766,0.271,2.272,0.814c0.508,0.543,0.763,1.32,0.763,2.332v0.738H47.69
						c0.02,0.305,0.084,0.56,0.192,0.765c0.109,0.205,0.255,0.368,0.435,0.489c0.176,0.121,0.381,0.207,0.615,0.261
						c0.233,0.053,0.489,0.079,0.768,0.079c0.238,0,0.473-0.026,0.703-0.079c0.229-0.054,0.441-0.122,0.633-0.208
						c0.168-0.074,0.323-0.154,0.466-0.24c0.144-0.086,0.26-0.162,0.35-0.229h0.217v1.692c-0.168,0.066-0.321,0.128-0.46,0.185
						c-0.139,0.058-0.329,0.115-0.571,0.174c-0.223,0.059-0.452,0.104-0.688,0.138C50.113,48.853,49.822,48.869,49.482,48.869z
						 M50.162,44.556c-0.012-0.434-0.112-0.764-0.302-0.99c-0.19-0.227-0.479-0.34-0.87-0.34c-0.398,0-0.71,0.119-0.935,0.357
						c-0.226,0.237-0.35,0.563-0.372,0.973H50.162L50.162,44.556z"/>
					<path d="M55.242,48.875c-0.484,0-0.942-0.053-1.374-0.158c-0.432-0.104-0.788-0.229-1.069-0.368v-1.734h0.171
						c0.098,0.074,0.209,0.156,0.334,0.246c0.125,0.091,0.299,0.185,0.521,0.281c0.191,0.09,0.407,0.167,0.647,0.231
						c0.239,0.063,0.501,0.097,0.781,0.097c0.289,0,0.544-0.046,0.766-0.136c0.221-0.09,0.331-0.231,0.331-0.428
						c0-0.152-0.052-0.268-0.152-0.346s-0.299-0.152-0.592-0.223c-0.156-0.039-0.354-0.082-0.592-0.127
						c-0.238-0.045-0.449-0.097-0.634-0.154c-0.516-0.16-0.902-0.396-1.163-0.712c-0.26-0.315-0.39-0.729-0.39-1.239
						c0-0.293,0.067-0.568,0.202-0.829c0.135-0.26,0.333-0.491,0.595-0.694c0.263-0.199,0.585-0.356,0.971-0.475
						c0.385-0.118,0.818-0.176,1.304-0.176c0.461,0,0.885,0.046,1.271,0.138c0.387,0.093,0.713,0.202,0.979,0.331v1.664h-0.164
						c-0.07-0.055-0.182-0.128-0.334-0.22c-0.152-0.093-0.301-0.171-0.445-0.237c-0.172-0.078-0.364-0.143-0.577-0.193
						c-0.213-0.05-0.431-0.076-0.652-0.076c-0.297,0-0.548,0.052-0.753,0.152c-0.205,0.102-0.309,0.236-0.309,0.404
						c0,0.148,0.051,0.266,0.152,0.352c0.101,0.086,0.322,0.17,0.662,0.252c0.176,0.043,0.378,0.086,0.605,0.127
						c0.229,0.041,0.448,0.097,0.659,0.166c0.473,0.152,0.831,0.377,1.075,0.672s0.366,0.687,0.366,1.175
						c0,0.309-0.072,0.603-0.218,0.882c-0.145,0.279-0.35,0.516-0.614,0.706c-0.281,0.207-0.612,0.366-0.993,0.479
						S55.773,48.875,55.242,48.875z"/>
				</g>
			</g>
		</g>
	</g>
</g>
</svg>