<?xml version="1.0" encoding="utf-8"?>
<!-- Generator: Adobe Illustrator 15.0.0, SVG Export Plug-In . SVG Version: 6.00 Build 0)  -->
<!DOCTYPE svg PUBLIC "-//W3C//DTD SVG 1.0//EN" "http://www.w3.org/TR/2001/REC-SVG-20010904/DTD/svg10.dtd">
<svg version="1.0" id="Borland_No_button" xmlns="http://www.w3.org/2000/svg" xmlns:xlink="http://www.w3.org/1999/xlink" x="0px"
	 y="0px" width="75.32px" height="72.714px" viewBox="0 0 75.32 72.714" enable-background="new 0 0 75.32 72.714"
	 xml:space="preserve">
<g id="_x30_1-07">
	<g>
		<g>
			<g>
				<path fill="#141419" d="M75.32,50.604c0,12.213-9.897,22.11-22.109,22.11H22.109C9.896,72.714,0,62.816,0,50.604V22.112
					C0,9.899,9.896,0,22.109,0h31.103C65.423,0,75.32,9.899,75.32,22.112V50.604z"/>
				<g>
					
						<linearGradient id="SVGID_1_" gradientUnits="userSpaceOnUse" x1="151.0095" y1="-90.7734" x2="151.0095" y2="-128.2393" gradientTransform="matrix(1 0 0 -1 -113.3501 -92.3057)">
						<stop  offset="0" style="stop-color:#46464B"/>
						<stop  offset="0.289" style="stop-color:#35353A"/>
						<stop  offset="0.6984" style="stop-color:#242429"/>
						<stop  offset="1" style="stop-color:#1E1E23"/>
					</linearGradient>
					<path fill="url(#SVGID_1_)" d="M6.499,20.868v-0.021c0-7.655,6.974-13.887,15.542-13.887h31.236
						c8.568,0,15.543,6.232,15.543,13.887v0.021c0,7.655-6.975,8.107-15.543,8.107H22.042C13.472,28.975,6.499,28.523,6.499,20.868z
						"/>
				</g>
				
					<linearGradient id="SVGID_2_" gradientUnits="userSpaceOnUse" x1="123.7185" y1="-101.8765" x2="178.3005" y2="-101.8765" gradientTransform="matrix(1 0 0 -1 -113.3501 -92.3057)">
					<stop  offset="0.125" style="stop-color:#727779"/>
					<stop  offset="0.1685" style="stop-color:#E8E8E9"/>
					<stop  offset="0.212" style="stop-color:#9FA1A5"/>
					<stop  offset="0.3587" style="stop-color:#51515D"/>
				</linearGradient>
				<path fill="url(#SVGID_2_)" d="M21.078,8.484h33.163c4.088,0,7.823,1.417,10.71,3.745c-2.852-3.25-7.021-5.317-11.673-5.317
					H22.042c-4.65,0-8.821,2.067-11.673,5.317C13.254,9.901,16.99,8.484,21.078,8.484z"/>
				
					<linearGradient id="SVGID_3_" gradientUnits="userSpaceOnUse" x1="151.0095" y1="-159.436" x2="151.0095" y2="-151.5298" gradientTransform="matrix(1 0 0 -1 -113.3501 -92.3057)">
					<stop  offset="0.6087" style="stop-color:#25252B"/>
					<stop  offset="1" style="stop-color:#141419"/>
				</linearGradient>
				<path fill="url(#SVGID_3_)" d="M7.092,59.224c2.893,4.73,8.094,7.906,14.032,7.906h33.071c5.938,0,11.14-3.176,14.032-7.906
					H7.092z"/>
			</g>
			<g>
				<g>
					<g>
						<polygon fill="#FF0000" points="44.463,30.224 28.292,45.777 24.546,42.066 40.716,26.514 						"/>
						<path fill="#FF0000" d="M49.938,38.306c-1.011,7.829-7.732,13.865-15.841,13.865c-4.399,0-8.383-1.777-11.272-4.651
							c-2.91-2.896-4.711-6.901-4.711-11.33c0-8.827,7.157-15.982,15.983-15.982c4.297,0,8.195,1.696,11.067,4.453
							c2.695,2.589,4.484,6.114,4.847,10.052l-4.953,0.265c0,0-1.295-10.151-11.514-9.879c-10.22,0.273-11.378,11.242-9.812,14.58
							c1.565,3.336,4.361,7.289,10.833,7.425s11.357-6.524,10.472-12.519l4.914-0.336C49.953,34.248,50.186,36.389,49.938,38.306z"
							/>
					</g>
					
						<linearGradient id="SVGID_4_" gradientUnits="userSpaceOnUse" x1="154.2966" y1="-105.4438" x2="157.2022" y2="-138.6542" gradientTransform="matrix(0.9998 0.0207 0.0207 -0.9998 -118.9353 -89.2839)">
						<stop  offset="0" style="stop-color:#D40000"/>
						<stop  offset="0.533" style="stop-color:#FF7B7B"/>
						<stop  offset="0.5656" style="stop-color:#FF5A5A"/>
						<stop  offset="0.6016" style="stop-color:#FF3E3E"/>
						<stop  offset="0.6424" style="stop-color:#FF2727"/>
						<stop  offset="0.6892" style="stop-color:#FF1616"/>
						<stop  offset="0.7456" style="stop-color:#FF0909"/>
						<stop  offset="0.8214" style="stop-color:#FF0202"/>
						<stop  offset="1" style="stop-color:#FF0000"/>
					</linearGradient>
					<path fill="url(#SVGID_4_)" d="M34.601,19.364c-9.156-0.189-16.756,7.105-16.945,16.257
						c-0.19,9.157,7.103,16.757,16.258,16.946c9.152,0.19,16.753-7.103,16.943-16.261C51.046,27.154,43.752,19.553,34.601,19.364z
						 M33.941,51.257c-8.434-0.176-15.149-7.176-14.977-15.61c0.175-8.428,7.176-15.147,15.608-14.974
						c8.428,0.174,15.147,7.177,14.973,15.605C49.372,44.712,42.371,51.432,33.941,51.257z M40.329,26.624
						c-0.023-0.203-0.144-0.384-0.321-0.488c-1.673-0.982-3.579-1.521-5.516-1.561c-6.282-0.129-11.499,4.876-11.63,11.158
						c-0.039,1.938,0.421,3.865,1.333,5.577c0.095,0.181,0.271,0.309,0.475,0.338c0.204,0.033,0.41-0.032,0.558-0.176L40.13,27.173
						C40.279,27.032,40.352,26.83,40.329,26.624z M25.033,39.846c-0.547-1.298-0.887-2.677-0.858-4.086
						c0.115-5.56,4.73-9.989,10.291-9.875c1.408,0.029,2.772,0.427,4.047,1.027L25.033,39.846z M43.916,29.938
						c-0.104-0.168-0.277-0.278-0.472-0.303c-0.197-0.023-0.394,0.04-0.537,0.178L27.748,44.359
						c-0.141,0.135-0.214,0.328-0.198,0.525c0.015,0.199,0.118,0.377,0.283,0.486c1.83,1.256,3.973,1.943,6.189,1.989
						c6.28,0.13,11.494-4.875,11.625-11.157C45.692,33.988,45.094,31.823,43.916,29.938z M34.049,46.048
						c-1.681-0.033-3.272-0.564-4.721-1.387l13.815-13.257c0.763,1.483,1.227,3.097,1.192,4.771
						C44.221,41.734,39.605,46.164,34.049,46.048z"/>
				</g>
				<polygon fill="#141419" points="53.414,42.105 49.092,42.135 49.059,43.733 48.422,42.105 43.107,42.105 43.107,52.803 				"/>
				<g>
					<path fill="#FFFFFF" d="M52.215,52.089h-2.108l-3.363-6.082v6.082h-2.004v-8.725h2.689l2.782,4.998v-4.998h2.004V52.089z"/>
					<path fill="#FFFFFF" d="M61.93,47.731c0,1.41-0.377,2.521-1.132,3.328c-0.754,0.808-1.786,1.213-3.1,1.213
						c-1.316,0-2.35-0.409-3.1-1.228c-0.75-0.819-1.125-1.924-1.125-3.313c0-1.401,0.375-2.511,1.125-3.325s1.782-1.222,3.1-1.222
						c1.313,0,2.346,0.405,3.1,1.216C61.553,45.21,61.93,46.321,61.93,47.731z M59.668,47.725c0-0.521-0.054-0.962-0.161-1.327
						c-0.106-0.365-0.251-0.665-0.431-0.898c-0.188-0.238-0.398-0.41-0.636-0.514s-0.481-0.154-0.735-0.154
						c-0.27,0-0.514,0.047-0.731,0.144c-0.219,0.096-0.431,0.267-0.634,0.513c-0.18,0.227-0.324,0.527-0.437,0.902
						s-0.167,0.822-0.167,1.342c0,0.535,0.053,0.979,0.158,1.333c0.104,0.354,0.25,0.649,0.434,0.888
						c0.188,0.242,0.4,0.416,0.639,0.52c0.239,0.104,0.484,0.154,0.738,0.154c0.258,0,0.508-0.056,0.75-0.166
						c0.242-0.111,0.451-0.284,0.627-0.52c0.188-0.254,0.332-0.55,0.435-0.888C59.618,48.714,59.668,48.272,59.668,47.725z"/>
				</g>
			</g>
			<g opacity="0.55">
				<g>
					<g>
						<polygon points="44.464,30.224 28.292,45.777 24.547,42.066 40.717,26.514 						"/>
						<path d="M49.939,38.306c-1.011,7.829-7.732,13.865-15.841,13.865c-4.399,0-8.383-1.777-11.272-4.651
							c-2.91-2.896-4.711-6.901-4.711-11.33c0-8.827,7.157-15.982,15.983-15.982c4.297,0,8.195,1.696,11.067,4.453
							c2.695,2.589,4.484,6.114,4.847,10.052l-4.953,0.265c0,0-1.295-10.151-11.514-9.879c-10.22,0.273-11.378,11.242-9.812,14.58
							c1.565,3.336,4.361,7.289,10.833,7.425s11.357-6.524,10.472-12.519l4.914-0.336C49.954,34.248,50.187,36.389,49.939,38.306z"
							/>
					</g>
					<path d="M34.602,19.364c-9.156-0.189-16.756,7.105-16.945,16.257c-0.19,9.157,7.103,16.757,16.258,16.946
						c9.152,0.19,16.753-7.103,16.943-16.261C51.047,27.154,43.753,19.553,34.602,19.364z M33.942,51.257
						c-8.434-0.176-15.149-7.176-14.977-15.61c0.175-8.428,7.176-15.147,15.608-14.974c8.428,0.174,15.147,7.177,14.973,15.605
						C49.373,44.712,42.372,51.432,33.942,51.257z M40.33,26.624c-0.023-0.203-0.144-0.384-0.321-0.488
						c-1.673-0.982-3.579-1.521-5.516-1.561c-6.282-0.129-11.499,4.876-11.63,11.158c-0.039,1.938,0.421,3.865,1.333,5.577
						c0.095,0.181,0.271,0.309,0.475,0.338c0.204,0.033,0.41-0.032,0.558-0.176L40.13,27.173
						C40.28,27.032,40.353,26.83,40.33,26.624z M25.034,39.846c-0.547-1.298-0.887-2.677-0.858-4.086
						c0.115-5.56,4.73-9.989,10.291-9.875c1.408,0.029,2.772,0.427,4.047,1.027L25.034,39.846z M43.917,29.938
						c-0.104-0.168-0.277-0.278-0.472-0.303c-0.197-0.023-0.393,0.04-0.537,0.178L27.749,44.359
						c-0.141,0.135-0.214,0.328-0.198,0.525c0.015,0.199,0.118,0.377,0.283,0.486c1.83,1.256,3.973,1.943,6.189,1.989
						c6.28,0.13,11.494-4.875,11.625-11.157C45.693,33.988,45.095,31.823,43.917,29.938z M34.05,46.048
						c-1.681-0.033-3.272-0.564-4.721-1.387l13.815-13.257c0.763,1.483,1.227,3.097,1.192,4.771
						C44.222,41.734,39.606,46.164,34.05,46.048z"/>
				</g>
				<polygon points="53.415,42.105 49.093,42.135 49.06,43.733 48.423,42.105 43.108,42.105 43.108,52.803 				"/>
				<g>
					<path d="M52.216,52.089h-2.108l-3.363-6.082v6.082H44.74v-8.725h2.689l2.782,4.998v-4.998h2.004V52.089z"/>
					<path d="M61.931,47.731c0,1.41-0.377,2.521-1.132,3.328c-0.754,0.808-1.786,1.213-3.1,1.213c-1.316,0-2.35-0.409-3.1-1.228
						c-0.75-0.819-1.125-1.924-1.125-3.313c0-1.401,0.375-2.511,1.125-3.325s1.782-1.222,3.1-1.222c1.313,0,2.346,0.405,3.1,1.216
						C61.554,45.21,61.931,46.321,61.931,47.731z M59.669,47.725c0-0.521-0.054-0.962-0.161-1.327
						c-0.106-0.365-0.251-0.665-0.431-0.898c-0.188-0.238-0.398-0.41-0.636-0.514s-0.481-0.154-0.735-0.154
						c-0.27,0-0.514,0.047-0.731,0.144c-0.219,0.096-0.431,0.267-0.634,0.513c-0.18,0.227-0.324,0.527-0.437,0.902
						s-0.167,0.822-0.167,1.342c0,0.535,0.053,0.979,0.158,1.333c0.104,0.354,0.25,0.649,0.434,0.888
						c0.188,0.242,0.4,0.416,0.639,0.52c0.239,0.104,0.484,0.154,0.738,0.154c0.258,0,0.508-0.056,0.75-0.166
						c0.242-0.111,0.451-0.284,0.627-0.52c0.188-0.254,0.332-0.55,0.435-0.888C59.619,48.714,59.669,48.272,59.669,47.725z"/>
				</g>
			</g>
		</g>
	</g>
</g>
</svg>