<svg xmlns="http://www.w3.org/2000/svg" version="1.1" xmlns:xlink="http://www.w3.org/1999/xlink" fill="none" width="200" height="200" style="overflow: hidden; position: absolute; user-select: none; transform: scale(0.238437);"><defs xmlns="http://www.w3.org/2000/svg">
  <linearGradient id="paint0_linear_1595_99338_c385edc8-cb58-b17c-9ef2-468c456a0d16" x1="58.72" x2="58.3" y1="46.5" y2="153.51" gradientTransform="translate(-1.1e-6)" gradientUnits="userSpaceOnUse">
   <stop stop-color="#020202" stop-opacity=".35" offset="0"></stop>
   <stop stop-color="#020202" stop-opacity=".12" offset=".18316"></stop>
   <stop stop-color="#fff" stop-opacity=".08" offset=".35085"></stop>
   <stop stop-color="#fff" stop-opacity=".25" offset=".49829"></stop>
   <stop stop-color="#fff" stop-opacity=".08" offset=".64825"></stop>
   <stop stop-color="#020202" stop-opacity=".12" offset=".82318"></stop>
   <stop stop-color="#020202" stop-opacity=".35" offset="1"></stop>
  </linearGradient>
  <filter id="filter0_d_1595_99338_c385edc8-cb58-b17c-9ef2-468c456a0d16" x="65" y="65" width="131" height="70" color-interpolation-filters="sRGB" filterUnits="userSpaceOnUse">
   <feFlood flood-opacity="0" result="BackgroundImageFix"></feFlood>
   <feColorMatrix in="SourceAlpha" result="hardAlpha" values="0 0 0 0 0 0 0 0 0 0 0 0 0 0 0 0 0 0 127 0"></feColorMatrix>
   <feOffset></feOffset>
   <feGaussianBlur stdDeviation="4"></feGaussianBlur>
   <feComposite in2="hardAlpha" operator="out"></feComposite>
   <feColorMatrix values="0 0 0 0 0 0 0 0 0 0 0 0 0 0 0 0 0 0 0.25 0"></feColorMatrix>
   <feBlend in2="BackgroundImageFix" result="effect1_dropShadow_1595_99338"></feBlend>
   <feBlend in="SourceGraphic" in2="effect1_dropShadow_1595_99338" result="shape"></feBlend>
  </filter>
  <filter id="filter1_d_1595_99338_c385edc8-cb58-b17c-9ef2-468c456a0d16" x="100" y="76.174" width="100" height="47.652" color-interpolation-filters="sRGB" filterUnits="userSpaceOnUse">
   <feFlood flood-opacity="0" result="BackgroundImageFix"></feFlood>
   <feColorMatrix in="SourceAlpha" result="hardAlpha" values="0 0 0 0 0 0 0 0 0 0 0 0 0 0 0 0 0 0 127 0"></feColorMatrix>
   <feOffset></feOffset>
   <feGaussianBlur stdDeviation="2"></feGaussianBlur>
   <feComposite in2="hardAlpha" operator="out"></feComposite>
   <feColorMatrix values="0 0 0 0 0 0 0 0 0 0 0 0 0 0 0 0 0 0 0.25 0"></feColorMatrix>
   <feBlend in2="BackgroundImageFix" result="effect1_dropShadow_1595_99338"></feBlend>
   <feBlend in="SourceGraphic" in2="effect1_dropShadow_1595_99338" result="shape"></feBlend>
  </filter>
  <radialGradient id="paint1_radial_1595_99338_c385edc8-cb58-b17c-9ef2-468c456a0d16" cx="0" cy="0" r="1" gradientTransform="matrix(0 10.846 -89.342 0 180.83 100.52)" gradientUnits="userSpaceOnUse">
   <stop stop-color="#fff" offset="0"></stop>
   <stop stop-color="#9B9B9B" offset="1"></stop>
  </radialGradient>
  <filter id="filter2_ii_1595_99338_c385edc8-cb58-b17c-9ef2-468c456a0d16" x="69.875" y="69.875" width="60.25" height="60.25" color-interpolation-filters="sRGB" filterUnits="userSpaceOnUse">
   <feFlood flood-opacity="0" result="BackgroundImageFix"></feFlood>
   <feBlend in="SourceGraphic" in2="BackgroundImageFix" result="shape"></feBlend>
   <feColorMatrix in="SourceAlpha" result="hardAlpha" values="0 0 0 0 0 0 0 0 0 0 0 0 0 0 0 0 0 0 127 0"></feColorMatrix>
   <feOffset dx="3.12497" dy="-3.12497"></feOffset>
   <feGaussianBlur stdDeviation="3.12497"></feGaussianBlur>
   <feComposite in2="hardAlpha" k2="-1" k3="1" operator="arithmetic"></feComposite>
   <feColorMatrix values="0 0 0 0 0 0 0 0 0 0 0 0 0 0 0 0 0 0 0.5 0"></feColorMatrix>
   <feBlend in2="shape" result="effect1_innerShadow_1595_99338"></feBlend>
   <feColorMatrix in="SourceAlpha" result="hardAlpha" values="0 0 0 0 0 0 0 0 0 0 0 0 0 0 0 0 0 0 127 0"></feColorMatrix>
   <feOffset dx="-3.12497" dy="3.12497"></feOffset>
   <feGaussianBlur stdDeviation="3.12497"></feGaussianBlur>
   <feComposite in2="hardAlpha" k2="-1" k3="1" operator="arithmetic"></feComposite>
   <feColorMatrix values="0 0 0 0 1 0 0 0 0 1 0 0 0 0 1 0 0 0 0.5 0"></feColorMatrix>
   <feBlend in2="effect1_innerShadow_1595_99338" result="effect2_innerShadow_1595_99338"></feBlend>
  </filter>
  <filter id="filter3_i_1595_99338_c385edc8-cb58-b17c-9ef2-468c456a0d16" x="72" y="77" width="51" height="51" color-interpolation-filters="sRGB" filterUnits="userSpaceOnUse">
   <feFlood flood-opacity="0" result="BackgroundImageFix"></feFlood>
   <feBlend in="SourceGraphic" in2="BackgroundImageFix" result="shape"></feBlend>
   <feColorMatrix in="SourceAlpha" result="hardAlpha" values="0 0 0 0 0 0 0 0 0 0 0 0 0 0 0 0 0 0 127 0"></feColorMatrix>
   <feOffset dx="-5" dy="5"></feOffset>
   <feGaussianBlur stdDeviation="4"></feGaussianBlur>
   <feComposite in2="hardAlpha" k2="-1" k3="1" operator="arithmetic"></feComposite>
   <feColorMatrix values="0 0 0 0 0 0 0 0 0 0 0 0 0 0 0 0 0 0 0.15 0"></feColorMatrix>
   <feBlend in2="shape" result="effect1_innerShadow_1595_99338"></feBlend>
  </filter>
 </defs><rect xmlns="http://www.w3.org/2000/svg" x="1.5" y="51.5" width="11" height="97" rx="5.5" fill="#d9d9d9" stroke="#727171" stroke-width="3"></rect><path xmlns="http://www.w3.org/2000/svg" d="m14 63.075s25.882-5.5691 43-8.8079c16.632-3.1469 26.182-3.767 43-3.767 16.818 0 26.368 0.6201 43 3.767 17.118 3.2388 43 8.8079 43 8.8079v73.833s-25.882 4.816-43 8.055c-16.632 3.147-26.182 4.374-43 4.52-16.807 0.147-26.377-0.639-43-3.767-17.177-3.231-43-8.808-43-8.808z" fill="#1c943e" xmlns:tb="https://thingsboard.io/svg" tb:tag="background" class=""></path><path xmlns="http://www.w3.org/2000/svg" d="m14 63.075s25.882-5.5691 43-8.8079c16.632-3.1469 26.182-3.767 43-3.767 16.818 0 26.368 0.6201 43 3.767 17.118 3.2388 43 8.8079 43 8.8079v73.833s-25.882 4.816-43 8.055c-16.632 3.147-26.182 4.374-43 4.52-16.807 0.147-26.377-0.639-43-3.767-17.177-3.231-43-8.808-43-8.808z" fill="url(#paint0_linear_1595_99338_c385edc8-cb58-b17c-9ef2-468c456a0d16)" style="fill:url(#paint0_linear_1595_99338_c385edc8-cb58-b17c-9ef2-468c456a0d16)"></path><path xmlns="http://www.w3.org/2000/svg" d="m181.38 63.621c1.321 0.281 2.384 0.5079 3.123 0.6661v71.375c-0.738 0.137-1.787 0.333-3.086 0.575-2.694 0.502-6.465 1.205-10.77 2.01-8.611 1.608-19.362 3.622-27.923 5.242-16.568 3.135-26.026 4.349-42.734 4.494-16.714 0.146-26.186-0.632-42.71-3.741-8.5733-1.613-19.311-3.812-27.912-5.61-4.299-0.898-8.0616-1.696-10.749-2.269-1.3186-0.281-2.3784-0.508-3.1159-0.666v-71.41c0.7391-0.1582 1.8016-0.3851 3.1235-0.6661 2.6925-0.5724 6.4608-1.3694 10.764-2.2675 8.6083-1.7967 19.347-3.9963 27.892-5.6129 16.521-3.1259 25.975-3.7409 42.721-3.7409 16.746 0 26.2 0.615 42.721 3.7409 8.545 1.6166 19.283 3.8162 27.892 5.6129 4.303 0.8981 8.071 1.6951 10.764 2.2675z" stroke="#000" stroke-opacity=".12" stroke-width="3"></path><rect xmlns="http://www.w3.org/2000/svg" x="187.5" y="51.5" width="11" height="97" rx="5.5" fill="#d9d9d9" stroke="#727171" stroke-width="3"></rect><g xmlns="http://www.w3.org/2000/svg" xmlns:tb="https://thingsboard.io/svg" tb:tag="wheel" transform="matrix(1,0,0,1,0,0)" class="">
  <path d="m100 80.174s21.238 7.876 45.5 8c14.198 0.0726 28.327-1.0525 38.64-2.1526 8.35-0.8908 15.86 5.581 15.86 13.979 0 8.3981-7.51 14.869-15.86 13.979-10.313-1.1-24.442-2.226-38.64-2.153-24.262 0.124-45.5 8-45.5 8z" fill="url(#paint1_radial_1595_99338_c385edc8-cb58-b17c-9ef2-468c456a0d16)" style="fill:url(#paint1_radial_1595_99338_c385edc8-cb58-b17c-9ef2-468c456a0d16);filter:url(#filter1_d_1595_99338_c385edc8-cb58-b17c-9ef2-468c456a0d16)"></path>
  <path d="m100.5 119.12v-38.234c0.09 0.0315 0.19 0.0659 0.298 0.1029 0.632 0.217 1.561 0.5266 2.75 0.8983 2.38 0.7432 5.804 1.7348 9.988 2.7301 8.365 1.99 19.78 3.9978 31.961 4.06 14.224 0.0727 28.373-1.0542 38.696-2.1554 8.068-0.8607 15.307 5.3942 15.307 13.482 0 8.0871-7.239 14.342-15.307 13.481-10.323-1.101-24.472-2.228-38.696-2.155-12.181 0.062-23.596 2.07-31.961 4.06-4.184 0.995-7.608 1.987-9.988 2.73-1.189 0.372-2.118 0.681-2.75 0.898-0.108 0.037-0.208 0.072-0.298 0.103z" stroke="#000" stroke-opacity=".12" style="filter:url(#filter1_d_1595_99338_c385edc8-cb58-b17c-9ef2-468c456a0d16)"></path>
 </g><g xmlns="http://www.w3.org/2000/svg" filter="url(#filter2_ii_1595_99338_c385edc8-cb58-b17c-9ef2-468c456a0d16)">
  <circle cx="100" cy="100" r="27" fill="#d9d9d9"></circle>
 </g><path xmlns="http://www.w3.org/2000/svg" d="m123 100c0 12.703-10.297 23-23 23-12.702 0-23-10.297-23-23 0-12.702 10.298-23 23-23 12.703 0 23 10.298 23 23z" fill="#000" fill-opacity=".05" style="filter:url(#filter0_d_1595_99338_c385edc8-cb58-b17c-9ef2-468c456a0d16)"></path><g xmlns="http://www.w3.org/2000/svg" filter="url(#filter3_i_1595_99338_c385edc8-cb58-b17c-9ef2-468c456a0d16)">
  <path d="m123 100c0 12.703-10.297 23-23 23-12.702 0-23-10.297-23-23 0-12.702 10.298-23 23-23 12.703 0 23 10.298 23 23z" fill="#1c943e" xmlns:tb="https://thingsboard.io/svg" tb:tag="background" class=""></path>
 </g><path xmlns="http://www.w3.org/2000/svg" d="m122 100c0 12.15-9.85 22-22 22-12.15 0-22-9.85-22-22 0-12.15 9.8497-22 22-22 12.15 0 22 9.8497 22 22z" stroke="#fff" stroke-width="2"></path><path xmlns="http://www.w3.org/2000/svg" d="m97.283 90.614c0-0.647-0.6112-1.1214-1.2155-0.8901-4.133 1.5825-7.0677 5.5867-7.0677 10.276 0 6.0751 4.9249 11 11 11 6.075 0 11-4.925 11-11 0-4.5642-2.78-8.4791-6.739-10.144-0.609-0.2563-1.243 0.2209-1.243 0.882 0 0.4223 0.268 0.7938 0.655 0.9649 3.18 1.4098 5.398 4.5944 5.398 8.2973 0 5.0101-4.061 9.0711-9.071 9.0711-5.01 0-9.0714-4.061-9.0714-9.0711 0-3.8068 2.3447-7.0658 5.6688-8.4117 0.4019-0.1628 0.6858-0.541 0.6858-0.9746z" clip-rule="evenodd" fill="#fff" fill-rule="evenodd"></path><path xmlns="http://www.w3.org/2000/svg" d="m99.514 87.637c0-0.3519 0.2852-0.6372 0.6373-0.6372 0.352 0 0.637 0.2853 0.637 0.6372v10.401c0 0.3519-0.285 0.6372-0.637 0.6372-0.3521 0-0.6373-0.2853-0.6373-0.6372z" fill="#fff"></path><rect xmlns="http://www.w3.org/2000/svg" y="50" width="200" height="100" fill="#000" fill-opacity="0" stroke-width="0" xmlns:tb="https://thingsboard.io/svg" tb:tag="clickArea" cursor="pointer"></rect></svg>