<?xml version="1.0" encoding="utf-8"?>
<!-- Generator: Adobe Illustrator 15.0.0, SVG Export Plug-In . SVG Version: 6.00 Build 0)  -->
<!DOCTYPE svg PUBLIC "-//W3C//DTD SVG 1.1 Tiny//EN" "http://www.w3.org/Graphics/SVG/1.1/DTD/svg11-tiny.dtd">
<svg version="1.1" baseProfile="tiny" id="_x31_3-15"
	 xmlns="http://www.w3.org/2000/svg" xmlns:xlink="http://www.w3.org/1999/xlink" x="0px" y="0px" width="104.254px"
	 height="104.256px" viewBox="0 0 104.254 104.256" xml:space="preserve">
<g>
	<g>
		<linearGradient id="SVGID_1_" gradientUnits="userSpaceOnUse" x1="33.9033" y1="10.3369" x2="78.2366" y2="112.0037">
			<stop  offset="0" style="stop-color:#9CA4B0"/>
			<stop  offset="0.1369" style="stop-color:#89919C"/>
			<stop  offset="0.3195" style="stop-color:#747E87"/>
			<stop  offset="0.4396" style="stop-color:#6D777F"/>
			<stop  offset="0.5736" style="stop-color:#8B939E"/>
			<stop  offset="0.6648" style="stop-color:#9BA2AF"/>
			<stop  offset="0.7175" style="stop-color:#9299A5"/>
			<stop  offset="0.8963" style="stop-color:#778089"/>
			<stop  offset="1" style="stop-color:#6D777F"/>
		</linearGradient>
		<path fill="url(#SVGID_1_)" d="M98.297,0H5.957C2.666,0,0,2.668,0,5.957v92.34c0,3.291,2.666,5.959,5.957,5.959h92.34
			c3.289,0,5.957-2.668,5.957-5.959V5.957C104.254,2.668,101.586,0,98.297,0z M5.922,3.133c1.225,0,2.219,0.992,2.219,2.217
			S7.146,7.568,5.922,7.568S3.705,6.574,3.705,5.35S4.697,3.133,5.922,3.133z M5.922,100.768c-1.225,0-2.217-0.994-2.217-2.219
			s0.992-2.217,2.217-2.217s2.219,0.992,2.219,2.217S7.146,100.768,5.922,100.768z M52.178,99.84
			c-26.621,0-48.201-21.58-48.201-48.203c0-26.617,21.58-48.199,48.201-48.199c26.619,0,48.201,21.582,48.201,48.199
			C100.379,78.26,78.797,99.84,52.178,99.84z M98.934,100.768c-1.225,0-2.217-0.994-2.217-2.219s0.992-2.217,2.217-2.217
			s2.219,0.992,2.219,2.217S100.158,100.768,98.934,100.768z M98.934,7.568c-1.225,0-2.217-0.994-2.217-2.219
			s0.992-2.217,2.217-2.217s2.219,0.992,2.219,2.217S100.158,7.568,98.934,7.568z"/>
		<path fill="#304561" d="M98.934,3.298c1.132,0,2.054,0.921,2.054,2.052c0,1.132-0.922,2.054-2.054,2.054
			c-1.131,0-2.052-0.922-2.052-2.054C96.882,4.219,97.803,3.298,98.934,3.298 M98.934,2.578c-1.531,0-2.771,1.24-2.771,2.771
			s1.24,2.773,2.771,2.773s2.773-1.242,2.773-2.773S100.465,2.578,98.934,2.578L98.934,2.578z"/>
		<path fill="#304561" d="M5.922,3.298c1.132,0,2.054,0.921,2.054,2.052c0,1.132-0.922,2.054-2.054,2.054
			c-1.131,0-2.052-0.922-2.052-2.054C3.87,4.219,4.791,3.298,5.922,3.298 M5.922,2.578c-1.531,0-2.771,1.24-2.771,2.771
			s1.24,2.773,2.771,2.773S8.695,6.881,8.695,5.35S7.453,2.578,5.922,2.578L5.922,2.578z"/>
		<path fill="#304561" d="M98.934,96.497c1.132,0,2.054,0.921,2.054,2.052c0,1.132-0.922,2.054-2.054,2.054
			c-1.131,0-2.052-0.922-2.052-2.054C96.882,97.418,97.803,96.497,98.934,96.497 M98.934,95.777c-1.531,0-2.771,1.24-2.771,2.771
			s1.24,2.773,2.771,2.773s2.773-1.242,2.773-2.773S100.465,95.777,98.934,95.777L98.934,95.777z"/>
		<path fill="#304561" d="M5.922,96.497c1.132,0,2.054,0.921,2.054,2.052c0,1.132-0.922,2.054-2.054,2.054
			c-1.131,0-2.052-0.922-2.052-2.054C3.87,97.418,4.791,96.497,5.922,96.497 M5.922,95.777c-1.531,0-2.771,1.24-2.771,2.771
			s1.24,2.773,2.771,2.773s2.773-1.242,2.773-2.773S7.453,95.777,5.922,95.777L5.922,95.777z"/>
	</g>
	<linearGradient id="SVGID_2_" gradientUnits="userSpaceOnUse" x1="2.5156" y1="51.6387" x2="101.8398" y2="51.6387">
		<stop  offset="0" style="stop-color:#405770"/>
		<stop  offset="0.3901" style="stop-color:#21364F"/>
		<stop  offset="0.7088" style="stop-color:#405973"/>
		<stop  offset="1" style="stop-color:#21304A"/>
	</linearGradient>
	<path fill="url(#SVGID_2_)" d="M52.178,1.977c-27.428,0-49.662,22.236-49.662,49.66c0,27.43,22.234,49.664,49.662,49.664
		c27.426,0,49.662-22.234,49.662-49.664C101.84,24.213,79.604,1.977,52.178,1.977z M52.178,99.84
		c-26.621,0-48.201-21.58-48.201-48.203c0-26.617,21.58-48.199,48.201-48.199c26.619,0,48.201,21.582,48.201,48.199
		C100.379,78.26,78.797,99.84,52.178,99.84z"/>
	<g>
		<linearGradient id="SVGID_3_" gradientUnits="userSpaceOnUse" x1="50.2969" y1="32.2881" x2="54.5488" y2="32.2881">
			<stop  offset="0" style="stop-color:#24384F"/>
			<stop  offset="0.5055" style="stop-color:#96A1A6"/>
			<stop  offset="1" style="stop-color:#24384F"/>
		</linearGradient>
		<path fill="url(#SVGID_3_)" d="M50.297,3.457v57.711h4.252V3.457C54.549,3.457,51.557,3.346,50.297,3.457z"/>
		<linearGradient id="SVGID_4_" gradientUnits="userSpaceOnUse" x1="32.5137" y1="61.0654" x2="33.9934" y2="63.5034">
			<stop  offset="0" style="stop-color:#24384F"/>
			<stop  offset="0.5055" style="stop-color:#96A1A6"/>
			<stop  offset="1" style="stop-color:#24384F"/>
		</linearGradient>
		<path fill="url(#SVGID_4_)" d="M9.492,74.125l45.891-26.553l2.127,3.682L11.619,77.809C11.619,77.809,9.641,74.59,9.492,74.125z"
			/>
		<linearGradient id="SVGID_5_" gradientUnits="userSpaceOnUse" x1="72.2158" y1="60.8838" x2="69.771" y2="65.04">
			<stop  offset="0" style="stop-color:#24384F"/>
			<stop  offset="0.5055" style="stop-color:#96A1A6"/>
			<stop  offset="1" style="stop-color:#24384F"/>
		</linearGradient>
		<path fill="url(#SVGID_5_)" d="M92.889,77.6L47.338,51.256l2.125-3.684l45.551,26.344C95.014,73.916,93.639,76.654,92.889,77.6z"
			/>
	</g>
	<g>
		<radialGradient id="SVGID_6_" cx="52.165" cy="51.6484" r="20.7351" gradientUnits="userSpaceOnUse">
			<stop  offset="0" style="stop-color:#4E5258"/>
			<stop  offset="0.6228" style="stop-color:#4E5258"/>
			<stop  offset="0.7253" style="stop-color:#4E5258"/>
			<stop  offset="0.8462" style="stop-color:#191919"/>
			<stop  offset="0.9221" style="stop-color:#1B1B1B"/>
			<stop  offset="0.9494" style="stop-color:#202122"/>
			<stop  offset="0.9689" style="stop-color:#2A2C2D"/>
			<stop  offset="0.9846" style="stop-color:#383B3E"/>
			<stop  offset="0.9979" style="stop-color:#4B4E54"/>
			<stop  offset="1" style="stop-color:#4E5258"/>
		</radialGradient>
		<path fill="url(#SVGID_6_)" d="M73.068,51.646c0,11.544-9.359,20.905-20.902,20.905S31.262,63.19,31.262,51.646
			c0-11.542,9.361-20.901,20.904-20.901S73.068,40.104,73.068,51.646z"/>
		<radialGradient id="SVGID_7_" cx="52.165" cy="51.6475" r="18.335" gradientUnits="userSpaceOnUse">
			<stop  offset="0" style="stop-color:#D2D2D2"/>
			<stop  offset="0.1613" style="stop-color:#C0C0C0"/>
			<stop  offset="0.4286" style="stop-color:#9B9B9A"/>
			<stop  offset="0.55" style="stop-color:#979796"/>
			<stop  offset="0.6786" style="stop-color:#8B8A89"/>
			<stop  offset="0.8099" style="stop-color:#767674"/>
			<stop  offset="0.8956" style="stop-color:#656462"/>
			<stop  offset="0.9415" style="stop-color:#676664"/>
			<stop  offset="0.958" style="stop-color:#6D6D6B"/>
			<stop  offset="0.9698" style="stop-color:#797876"/>
			<stop  offset="0.9793" style="stop-color:#898987"/>
			<stop  offset="0.9875" style="stop-color:#9F9E9D"/>
			<stop  offset="0.9946" style="stop-color:#B9B8B8"/>
			<stop  offset="1" style="stop-color:#D2D2D2"/>
		</radialGradient>
		<path fill="url(#SVGID_7_)" d="M70.5,51.646c0,10.129-8.209,18.336-18.334,18.336c-10.129,0-18.336-8.207-18.336-18.336
			c0-10.125,8.207-18.335,18.336-18.335C62.291,33.312,70.5,41.521,70.5,51.646z"/>
		<g>
			<radialGradient id="SVGID_8_" cx="52.166" cy="39.2744" r="1.375" gradientUnits="userSpaceOnUse">
				<stop  offset="0" style="stop-color:#6A686D"/>
				<stop  offset="0.2196" style="stop-color:#5E5D62"/>
				<stop  offset="0.6168" style="stop-color:#3E4045"/>
				<stop  offset="0.6593" style="stop-color:#3A3C42"/>
				<stop  offset="0.7989" style="stop-color:#33363C"/>
				<stop  offset="0.9231" style="stop-color:#282C32"/>
				<stop  offset="0.9951" style="stop-color:#666469"/>
				<stop  offset="1" style="stop-color:#6A686D"/>
			</radialGradient>
			<circle fill="url(#SVGID_8_)" cx="52.166" cy="39.274" r="1.375"/>
			<radialGradient id="SVGID_9_" cx="64.4297" cy="51.4805" r="1.375" gradientUnits="userSpaceOnUse">
				<stop  offset="0" style="stop-color:#6A686D"/>
				<stop  offset="0.2196" style="stop-color:#5E5D62"/>
				<stop  offset="0.6168" style="stop-color:#3E4045"/>
				<stop  offset="0.6593" style="stop-color:#3A3C42"/>
				<stop  offset="0.7989" style="stop-color:#33363C"/>
				<stop  offset="0.9231" style="stop-color:#282C32"/>
				<stop  offset="0.9951" style="stop-color:#666469"/>
				<stop  offset="1" style="stop-color:#6A686D"/>
			</radialGradient>
			<circle fill="url(#SVGID_9_)" cx="64.43" cy="51.48" r="1.375"/>
			<radialGradient id="SVGID_10_" cx="62.9375" cy="57.6611" r="1.375" gradientUnits="userSpaceOnUse">
				<stop  offset="0" style="stop-color:#6A686D"/>
				<stop  offset="0.2196" style="stop-color:#5E5D62"/>
				<stop  offset="0.6168" style="stop-color:#3E4045"/>
				<stop  offset="0.6593" style="stop-color:#3A3C42"/>
				<stop  offset="0.7989" style="stop-color:#33363C"/>
				<stop  offset="0.9231" style="stop-color:#282C32"/>
				<stop  offset="0.9951" style="stop-color:#666469"/>
				<stop  offset="1" style="stop-color:#6A686D"/>
			</radialGradient>
			<circle fill="url(#SVGID_10_)" cx="62.938" cy="57.661" r="1.375"/>
			<radialGradient id="SVGID_11_" cx="58.4121" cy="62.4092" r="1.375" gradientUnits="userSpaceOnUse">
				<stop  offset="0" style="stop-color:#6A686D"/>
				<stop  offset="0.2196" style="stop-color:#5E5D62"/>
				<stop  offset="0.6168" style="stop-color:#3E4045"/>
				<stop  offset="0.6593" style="stop-color:#3A3C42"/>
				<stop  offset="0.7989" style="stop-color:#33363C"/>
				<stop  offset="0.9231" style="stop-color:#282C32"/>
				<stop  offset="0.9951" style="stop-color:#666469"/>
				<stop  offset="1" style="stop-color:#6A686D"/>
			</radialGradient>
			<circle fill="url(#SVGID_11_)" cx="58.412" cy="62.409" r="1.375"/>
			<radialGradient id="SVGID_12_" cx="45.9355" cy="62.4092" r="1.375" gradientUnits="userSpaceOnUse">
				<stop  offset="0" style="stop-color:#6A686D"/>
				<stop  offset="0.2196" style="stop-color:#5E5D62"/>
				<stop  offset="0.6168" style="stop-color:#3E4045"/>
				<stop  offset="0.6593" style="stop-color:#3A3C42"/>
				<stop  offset="0.7989" style="stop-color:#33363C"/>
				<stop  offset="0.9231" style="stop-color:#282C32"/>
				<stop  offset="0.9951" style="stop-color:#666469"/>
				<stop  offset="1" style="stop-color:#6A686D"/>
			</radialGradient>
			<circle fill="url(#SVGID_12_)" cx="45.936" cy="62.409" r="1.375"/>
			<radialGradient id="SVGID_13_" cx="41.4131" cy="57.7842" r="1.3745" gradientUnits="userSpaceOnUse">
				<stop  offset="0" style="stop-color:#6A686D"/>
				<stop  offset="0.2196" style="stop-color:#5E5D62"/>
				<stop  offset="0.6168" style="stop-color:#3E4045"/>
				<stop  offset="0.6593" style="stop-color:#3A3C42"/>
				<stop  offset="0.7989" style="stop-color:#33363C"/>
				<stop  offset="0.9231" style="stop-color:#282C32"/>
				<stop  offset="0.9951" style="stop-color:#666469"/>
				<stop  offset="1" style="stop-color:#6A686D"/>
			</radialGradient>
			<circle fill="url(#SVGID_13_)" cx="41.413" cy="57.785" r="1.374"/>
			<radialGradient id="SVGID_14_" cx="39.8574" cy="51.4805" r="1.375" gradientUnits="userSpaceOnUse">
				<stop  offset="0" style="stop-color:#6A686D"/>
				<stop  offset="0.2196" style="stop-color:#5E5D62"/>
				<stop  offset="0.6168" style="stop-color:#3E4045"/>
				<stop  offset="0.6593" style="stop-color:#3A3C42"/>
				<stop  offset="0.7989" style="stop-color:#33363C"/>
				<stop  offset="0.9231" style="stop-color:#282C32"/>
				<stop  offset="0.9951" style="stop-color:#666469"/>
				<stop  offset="1" style="stop-color:#6A686D"/>
			</radialGradient>
			<circle fill="url(#SVGID_14_)" cx="39.857" cy="51.48" r="1.375"/>
			<radialGradient id="SVGID_15_" cx="41.459" cy="45.3525" r="1.3745" gradientUnits="userSpaceOnUse">
				<stop  offset="0" style="stop-color:#6A686D"/>
				<stop  offset="0.2196" style="stop-color:#5E5D62"/>
				<stop  offset="0.6168" style="stop-color:#3E4045"/>
				<stop  offset="0.6593" style="stop-color:#3A3C42"/>
				<stop  offset="0.7989" style="stop-color:#33363C"/>
				<stop  offset="0.9231" style="stop-color:#282C32"/>
				<stop  offset="0.9951" style="stop-color:#666469"/>
				<stop  offset="1" style="stop-color:#6A686D"/>
			</radialGradient>
			<circle fill="url(#SVGID_15_)" cx="41.459" cy="45.353" r="1.375"/>
			<radialGradient id="SVGID_16_" cx="46.0391" cy="40.9365" r="1.321" gradientUnits="userSpaceOnUse">
				<stop  offset="0" style="stop-color:#6A686D"/>
				<stop  offset="0.2196" style="stop-color:#5E5D62"/>
				<stop  offset="0.6168" style="stop-color:#3E4045"/>
				<stop  offset="0.6593" style="stop-color:#3A3C42"/>
				<stop  offset="0.7989" style="stop-color:#33363C"/>
				<stop  offset="0.9231" style="stop-color:#282C32"/>
				<stop  offset="0.9951" style="stop-color:#666469"/>
				<stop  offset="1" style="stop-color:#6A686D"/>
			</radialGradient>
			<circle fill="url(#SVGID_16_)" cx="46.039" cy="40.937" r="1.375"/>
			<radialGradient id="SVGID_17_" cx="58.3496" cy="40.8799" r="1.3755" gradientUnits="userSpaceOnUse">
				<stop  offset="0" style="stop-color:#6A686D"/>
				<stop  offset="0.2196" style="stop-color:#5E5D62"/>
				<stop  offset="0.6168" style="stop-color:#3E4045"/>
				<stop  offset="0.6593" style="stop-color:#3A3C42"/>
				<stop  offset="0.7989" style="stop-color:#33363C"/>
				<stop  offset="0.9231" style="stop-color:#282C32"/>
				<stop  offset="0.9951" style="stop-color:#666469"/>
				<stop  offset="1" style="stop-color:#6A686D"/>
			</radialGradient>
			<circle fill="url(#SVGID_17_)" cx="58.35" cy="40.88" r="1.375"/>
			<radialGradient id="SVGID_18_" cx="62.876" cy="45.5176" r="1.3755" gradientUnits="userSpaceOnUse">
				<stop  offset="0" style="stop-color:#6A686D"/>
				<stop  offset="0.2196" style="stop-color:#5E5D62"/>
				<stop  offset="0.6168" style="stop-color:#3E4045"/>
				<stop  offset="0.6593" style="stop-color:#3A3C42"/>
				<stop  offset="0.7989" style="stop-color:#33363C"/>
				<stop  offset="0.9231" style="stop-color:#282C32"/>
				<stop  offset="0.9951" style="stop-color:#666469"/>
				<stop  offset="1" style="stop-color:#6A686D"/>
			</radialGradient>
			<circle fill="url(#SVGID_18_)" cx="62.876" cy="45.518" r="1.376"/>
			<radialGradient id="SVGID_19_" cx="52.166" cy="64.0049" r="1.375" gradientUnits="userSpaceOnUse">
				<stop  offset="0" style="stop-color:#6A686D"/>
				<stop  offset="0.2196" style="stop-color:#5E5D62"/>
				<stop  offset="0.6168" style="stop-color:#3E4045"/>
				<stop  offset="0.6593" style="stop-color:#3A3C42"/>
				<stop  offset="0.7989" style="stop-color:#33363C"/>
				<stop  offset="0.9231" style="stop-color:#282C32"/>
				<stop  offset="0.9951" style="stop-color:#666469"/>
				<stop  offset="1" style="stop-color:#6A686D"/>
			</radialGradient>
			<circle fill="url(#SVGID_19_)" cx="52.166" cy="64.005" r="1.375"/>
		</g>
		<g>
			<radialGradient id="SVGID_20_" cx="33.5635" cy="39.6016" r="25.7911" gradientUnits="userSpaceOnUse">
				<stop  offset="0.0055" style="stop-color:#A0A0A0"/>
				<stop  offset="0.6429" style="stop-color:#A0A0A0"/>
				<stop  offset="0.8181" style="stop-color:#6D6D6D"/>
				<stop  offset="1" style="stop-color:#3C3C3C"/>
			</radialGradient>
			<path fill="url(#SVGID_20_)" d="M62.482,35.181c0,0-0.258-1.601-0.379-2.204c-1.41-6.942-5.174-13.444-11.141-18.207
				c-3.629-2.896-7.699-4.854-11.924-5.908c-0.154-0.04-0.309-0.083-0.463-0.111c-1.254-0.229-2.791,0.334-2.791,0.334
				c-14.465,4.953-20.41,15.619-19.639,17.091c0.447,0.853,1.482,0.483,1.482,0.483c0.307-0.188,0.988-0.507,1.309-0.665
				c9.43-4.693,20.164-4.096,28.809,2.806c1.066,0.85,2.449,2.368,3.291,3.414C51.037,32.213,57.137,31.623,62.482,35.181z"/>
			<radialGradient id="SVGID_21_" cx="33.5527" cy="32.75" r="41.9058" gradientUnits="userSpaceOnUse">
				<stop  offset="0.0055" style="stop-color:#A0A0A0"/>
				<stop  offset="0.6758" style="stop-color:#A0A0A0"/>
				<stop  offset="0.8349" style="stop-color:#6D6D6D"/>
				<stop  offset="1" style="stop-color:#3C3C3C"/>
			</radialGradient>
			<path fill="url(#SVGID_21_)" d="M66.83,38.936c-0.074-0.075,0.311-0.635,0.344-0.85c0.195-1.297,0.297-2.622,0.297-3.974
				c0-11.062-6.23-19.823-15.781-24.265c-0.326-0.15-0.998-0.484-1.336-0.607c0,0-0.936-0.58-0.547-1.46
				c0.666-1.521,12.713-3.528,25.607,4.684c0,0,1.398,0.852,2.004,1.974c0.074,0.139,0.135,0.287,0.201,0.432
				c1.811,3.959,2.822,8.363,2.822,13.004c0,8.123-3.096,15.522-8.17,21.087c-0.203,0.223-0.568,0.395-0.777,0.613
				C71.494,49.573,71.34,43.493,66.83,38.936z"/>
			<radialGradient id="SVGID_22_" cx="64.4004" cy="29.8994" r="30.226" gradientUnits="userSpaceOnUse">
				<stop  offset="0.0055" style="stop-color:#A0A0A0"/>
				<stop  offset="0.6319" style="stop-color:#A0A0A0"/>
				<stop  offset="0.8125" style="stop-color:#6D6D6D"/>
				<stop  offset="1" style="stop-color:#3C3C3C"/>
			</radialGradient>
			<path fill="url(#SVGID_22_)" d="M65.902,65.367c-0.066,0.063,0.789,0.152,1,0.164c7.422,0.447,15.027-1.733,21.313-6.712
				c3.639-2.886,6.459-6.412,8.439-10.291c0.072-0.143,0.148-0.282,0.213-0.428c0.504-1.169,0.303-2.793,0.303-2.793
				c-1.574-15.209-10.631-23.402-12.238-22.98c-0.932,0.242-0.803,1.335-0.803,1.335c0.111,0.342,0.27,1.079,0.354,1.428
				c2.453,10.241-0.545,20.566-9.213,27.438c-0.953,0.754-1.941,1.433-2.959,2.035c-0.193,0.116-0.637,0.319-0.971,0.422
				C71.34,54.984,70.746,60.73,65.902,65.367z"/>
			<radialGradient id="SVGID_23_" cx="78.209" cy="50.0664" r="30.083" gradientUnits="userSpaceOnUse">
				<stop  offset="0.0055" style="stop-color:#A0A0A0"/>
				<stop  offset="0.6429" style="stop-color:#A0A0A0"/>
				<stop  offset="0.8181" style="stop-color:#6D6D6D"/>
				<stop  offset="1" style="stop-color:#3C3C3C"/>
			</radialGradient>
			<path fill="url(#SVGID_23_)" d="M61.469,68.735c0,0,0.646,0.419,0.846,0.496c1.145,0.438,2.332,0.802,3.561,1.085
				c10.779,2.487,20.717-1.608,27.191-9.915c0.219-0.285,0.697-0.866,0.893-1.166c0,0,0.777-0.783,1.547-0.207
				c1.334,0.994,0.58,13.184-10.324,23.899c0,0-1.143,1.172-2.373,1.508c-0.152,0.041-0.309,0.068-0.465,0.1
				c-4.266,0.875-8.785,0.869-13.309-0.176c-7.787-1.798-14.217-6.357-18.498-12.405c-0.152-0.213-0.594-0.797-0.738-1.015
				C49.799,70.939,55.527,72.103,61.469,68.735z"/>
			<radialGradient id="SVGID_24_" cx="64.4248" cy="70.958" r="24.9396" gradientUnits="userSpaceOnUse">
				<stop  offset="0.0055" style="stop-color:#A0A0A0"/>
				<stop  offset="0.6703" style="stop-color:#A0A0A0"/>
				<stop  offset="0.8321" style="stop-color:#6D6D6D"/>
				<stop  offset="1" style="stop-color:#3C3C3C"/>
			</radialGradient>
			<path fill="url(#SVGID_24_)" d="M44.406,69.466c0,0,0.119,0.546,0.168,0.712c0.393,1.312,0.891,2.61,1.502,3.884
				c4.779,9.974,14.184,15.185,24.713,15.063c0.361-0.006,1.113,0.004,1.471-0.029c0,0,1.096,0.117,1.125,1.078
				c0.055,1.662-9.941,8.678-25.119,6.841c0,0-1.631-0.161-2.658-0.913c-0.127-0.094-0.246-0.198-0.369-0.302
				c-3.346-2.788-6.158-6.321-8.166-10.511c-3.482-7.271-3.908-15.218-1.789-22.386c0.057-0.189,0.197-0.964,0.256-1.151
				C35.539,61.752,38.258,66.894,44.406,69.466z"/>
			<radialGradient id="SVGID_25_" cx="50.9189" cy="82.918" r="36.1559" gradientUnits="userSpaceOnUse">
				<stop  offset="0.0055" style="stop-color:#A0A0A0"/>
				<stop  offset="0.6484" style="stop-color:#A0A0A0"/>
				<stop  offset="0.8209" style="stop-color:#6D6D6D"/>
				<stop  offset="1" style="stop-color:#3C3C3C"/>
			</radialGradient>
			<path fill="url(#SVGID_25_)" d="M33.461,56.92c0,0-0.604,0.516-0.725,0.694c-0.711,1.051-1.354,2.166-1.922,3.343
				C26,70.916,27.793,81.516,34.459,89.67c0.229,0.277,0.689,0.87,0.939,1.129c0,0,0.59,0.929-0.141,1.553
				c-1.266,1.078-12.984-2.357-21.02-15.362c0,0-0.891-1.375-0.945-2.648c-0.006-0.158,0.004-0.317,0.008-0.477
				c0.092-4.354,1.098-8.759,3.119-12.938c3.482-7.203,9.363-12.47,16.221-15.301c0.209-0.086,0.982-0.387,1.195-0.469
				C33.836,45.157,31.533,50.499,33.461,56.92z"/>
			<radialGradient id="SVGID_26_" cx="31.123" cy="58.9512" r="25.712" gradientUnits="userSpaceOnUse">
				<stop  offset="0.0055" style="stop-color:#A0A0A0"/>
				<stop  offset="0.6758" style="stop-color:#A0A0A0"/>
				<stop  offset="0.8349" style="stop-color:#6D6D6D"/>
				<stop  offset="1" style="stop-color:#3C3C3C"/>
			</radialGradient>
			<path fill="url(#SVGID_26_)" d="M36.477,40.116c0,0-0.168,0.014-0.389,0.027c-1.441,0.084-2.898,0.289-4.355,0.619
				c-10.785,2.451-17.949,10.466-20.164,20.763c-0.076,0.351-0.25,1.082-0.297,1.438c0,0-0.357,1.041-1.303,0.857
				c-1.631-0.314-6.256-11.616-1.105-26.009c0,0,0.52-1.554,1.48-2.391c0.119-0.104,0.248-0.196,0.377-0.292
				c3.457-2.646,7.529-4.605,12.057-5.636c8.02-1.821,16.02-0.385,22.615,3.439c0.188,0.105,0.328,0.201,0.512,0.314
				C45.904,33.248,40.639,34.651,36.477,40.116z"/>
		</g>
		<g>
			<circle cx="52.165" cy="51.646" r="3.858"/>
			<radialGradient id="SVGID_27_" cx="52.165" cy="51.6484" r="3.438" gradientUnits="userSpaceOnUse">
				<stop  offset="0" style="stop-color:#6A686D"/>
				<stop  offset="0.2533" style="stop-color:#5B5A5F"/>
				<stop  offset="0.7419" style="stop-color:#32353B"/>
				<stop  offset="0.8571" style="stop-color:#282C32"/>
				<stop  offset="0.9909" style="stop-color:#666469"/>
				<stop  offset="1" style="stop-color:#6A686D"/>
			</radialGradient>
			<circle fill="url(#SVGID_27_)" cx="52.165" cy="51.646" r="3.438"/>
		</g>
	</g>
</g>
</svg>