<?xml version="1.0" encoding="utf-8"?>
<!-- Generator: Adobe Illustrator 15.0.0, SVG Export Plug-In . SVG Version: 6.00 Build 0)  -->
<!DOCTYPE svg PUBLIC "-//W3C//DTD SVG 1.1 Tiny//EN" "http://www.w3.org/Graphics/SVG/1.1/DTD/svg11-tiny.dtd">
<svg version="1.1" baseProfile="tiny" id="_x30_4-06"
	 xmlns="http://www.w3.org/2000/svg" xmlns:xlink="http://www.w3.org/1999/xlink" x="0px" y="0px" width="81.063px"
	 height="81.063px" viewBox="0 0 81.063 81.063" xml:space="preserve">
<g>
	<path fill="#47290F" d="M0,0v81.063h81.063V0H0z M40.532,74.55c-18.787,0-34.017-15.23-34.017-34.018
		c0-18.788,15.23-34.017,34.017-34.017s34.018,15.229,34.018,34.017C74.549,59.319,59.319,74.55,40.532,74.55z"/>
	<linearGradient id="SVGID_1_" gradientUnits="userSpaceOnUse" x1="26.5903" y1="2.7163" x2="53.2573" y2="75.0498">
		<stop  offset="0" style="stop-color:#A28E82"/>
		<stop  offset="0.4286" style="stop-color:#6D5651"/>
		<stop  offset="0.6154" style="stop-color:#A79387"/>
		<stop  offset="1" style="stop-color:#6D5651"/>
	</linearGradient>
	<path fill="url(#SVGID_1_)" d="M1.713,1.713V79.35H79.35V1.713H1.713z M40.532,74.55c-18.787,0-34.017-15.23-34.017-34.018
		c0-18.788,15.23-34.017,34.017-34.017s34.018,15.229,34.018,34.017C74.549,59.319,59.319,74.55,40.532,74.55z"/>
	<path fill="#47290F" d="M40.532,0.313c-22.213,0-40.219,18.005-40.219,40.218c0,22.213,18.006,40.22,40.219,40.22
		c22.211,0,40.218-18.006,40.218-40.22C80.75,18.318,62.744,0.313,40.532,0.313z M40.532,74.55
		c-18.787,0-34.017-15.23-34.017-34.018c0-18.788,15.23-34.017,34.017-34.017s34.018,15.229,34.018,34.017
		C74.549,59.319,59.319,74.55,40.532,74.55z"/>
	<radialGradient id="SVGID_2_" cx="40.5317" cy="40.5327" r="38.4686" gradientUnits="userSpaceOnUse">
		<stop  offset="0.7692" style="stop-color:#B09C85"/>
		<stop  offset="0.7795" style="stop-color:#A8947E"/>
		<stop  offset="0.8734" style="stop-color:#67523D"/>
		<stop  offset="0.9176" style="stop-color:#4D3824"/>
		<stop  offset="0.9497" style="stop-color:#4F3A26"/>
		<stop  offset="0.9681" style="stop-color:#57432E"/>
		<stop  offset="0.983" style="stop-color:#65513C"/>
		<stop  offset="0.996" style="stop-color:#78644F"/>
		<stop  offset="1" style="stop-color:#806C56"/>
	</radialGradient>
	<path fill="url(#SVGID_2_)" d="M40.532,1.887c-21.344,0-38.646,17.302-38.646,38.646s17.302,38.646,38.646,38.646
		c21.343,0,38.646-17.303,38.646-38.646S61.875,1.887,40.532,1.887z M40.532,74.55c-18.787,0-34.017-15.23-34.017-34.018
		c0-18.788,15.23-34.017,34.017-34.017s34.018,15.229,34.018,34.017C74.549,59.319,59.319,74.55,40.532,74.55z"/>
	<g>
		<path fill="#4D3824" d="M40.532,4.915c-19.67,0-35.617,15.946-35.617,35.616s15.946,35.617,35.617,35.617
			c19.67,0,35.617-15.947,35.617-35.617S60.202,4.915,40.532,4.915z M40.532,74.55c-18.787,0-34.017-15.23-34.017-34.018
			c0-18.788,15.23-34.017,34.017-34.017s34.018,15.229,34.018,34.017C74.549,59.319,59.319,74.55,40.532,74.55z"/>
		<g>
			<g>
				<g>
					<g>
						<linearGradient id="SVGID_3_" gradientUnits="userSpaceOnUse" x1="21.3774" y1="20.0371" x2="42.905" y2="20.3114">
							<stop  offset="0" style="stop-color:#E6D6C2"/>
							<stop  offset="0.2245" style="stop-color:#E3D3BE"/>
							<stop  offset="0.4571" style="stop-color:#DCCBB1"/>
							<stop  offset="0.6926" style="stop-color:#D0BD9D"/>
							<stop  offset="0.7637" style="stop-color:#CBB895"/>
							<stop  offset="1" style="stop-color:#BDA982"/>
						</linearGradient>
						<path fill="url(#SVGID_3_)" d="M36.004,30c0,0-5.089-6.112-9.615-9.053c-5.719-3.714-7.27-4.426-0.525-7.833
							c6.745-3.407,14.05-3.402,15.578-0.805s2.404,11.452-0.202,16.574C41.24,28.882,37.464,28.836,36.004,30z"/>
						<path fill="#BDA982" d="M37.057,29.529c-1.219,1.364,4.247-0.595,4.247-0.595c2.606-5.123,1.73-13.978,0.203-16.574
							c-1.225-2.082-6.161-2.498-11.544-0.827c0,0,1.185-0.892,4.459,1.21C38.484,15.351,39.633,26.649,37.057,29.529z"/>
					</g>
					<path fill="#B8A47D" d="M35.314,29.342c0,0-0.755-1.125-1.136-1.436c0,0,2.586-2.287,8.108-1.776c0,0-0.259,1.242-0.571,1.656
						L35.314,29.342z"/>
				</g>
				<g>
					<g>
						<linearGradient id="SVGID_4_" gradientUnits="userSpaceOnUse" x1="43.4414" y1="14.4658" x2="58.5625" y2="29.2219">
							<stop  offset="0" style="stop-color:#E6D6C2"/>
							<stop  offset="0.2245" style="stop-color:#E3D3BE"/>
							<stop  offset="0.4571" style="stop-color:#DCCBB1"/>
							<stop  offset="0.6926" style="stop-color:#D0BD9D"/>
							<stop  offset="0.7637" style="stop-color:#CBB895"/>
							<stop  offset="1" style="stop-color:#BDA982"/>
						</linearGradient>
						<path fill="url(#SVGID_4_)" d="M45.993,30.591c0,0,1.465-7.817,0.847-13.179c-0.783-6.775-1.223-8.424,5.701-5.398
							c6.925,3.025,11.577,8.657,10.55,11.489c-1.027,2.833-7.292,9.151-12.899,10.408C50.192,33.912,47.821,30.974,45.993,30.591z"
							/>
						<path fill="#BDA982" d="M47.027,31.103c-1.828-0.07,3.166,2.892,3.166,2.892c5.608-1.257,11.873-7.575,12.899-10.408
							c0.823-2.27-2.002-6.339-6.722-9.422c0,0,1.443,0.345,1.91,4.208C58.861,23.165,50.888,31.251,47.027,31.103z"/>
					</g>
					<path fill="#B8A47D" d="M46.039,29.699c0,0,0.385-1.3,0.383-1.792c0,0,3.409,0.535,6.537,5.115c0,0-1.122,0.593-1.641,0.616
						L46.039,29.699z"/>
				</g>
				<g>
					<g>
						<linearGradient id="SVGID_5_" gradientUnits="userSpaceOnUse" x1="13.9102" y1="43.1421" x2="25.6672" y2="25.5131">
							<stop  offset="0" style="stop-color:#E6D6C2"/>
							<stop  offset="0.2245" style="stop-color:#E3D3BE"/>
							<stop  offset="0.4571" style="stop-color:#DCCBB1"/>
							<stop  offset="0.6926" style="stop-color:#D0BD9D"/>
							<stop  offset="0.7637" style="stop-color:#CBB895"/>
							<stop  offset="1" style="stop-color:#BDA982"/>
						</linearGradient>
						<path fill="url(#SVGID_5_)" d="M29.463,37.416c0,0-7.951,0.164-13.073,1.866c-6.472,2.151-7.995,2.92-6.45-4.477
							c1.544-7.397,6.107-13.102,9.089-12.676c2.983,0.425,10.449,5.265,12.828,10.498C31.857,32.627,29.464,35.549,29.463,37.416z"
							/>
						<path fill="#BDA982" d="M29.753,36.3c0.304,1.804,2.183-3.691,2.183-3.691c-2.377-5.233-9.844-10.072-12.826-10.499
							c-2.391-0.341-5.796,3.257-7.849,8.506c0,0,0.042-1.482,3.728-2.73C19.561,26.339,29.109,32.489,29.753,36.3z"/>
					</g>
					<path fill="#B8A47D" d="M28.513,37.579c0,0-1.351-0.11-1.832-0.008c0,0-0.173-3.447,3.671-7.444c0,0,0.808,0.977,0.938,1.479
						L28.513,37.579z"/>
				</g>
				<g>
					<g>
						<linearGradient id="SVGID_6_" gradientUnits="userSpaceOnUse" x1="16.6646" y1="63.0537" x2="23.9111" y2="40.7513">
							<stop  offset="0" style="stop-color:#E6D6C2"/>
							<stop  offset="0.2245" style="stop-color:#E3D3BE"/>
							<stop  offset="0.4571" style="stop-color:#DCCBB1"/>
							<stop  offset="0.6926" style="stop-color:#D0BD9D"/>
							<stop  offset="0.7637" style="stop-color:#CBB895"/>
							<stop  offset="1" style="stop-color:#BDA982"/>
						</linearGradient>
						<path fill="url(#SVGID_6_)" d="M31.396,47.31c0,0-4.833,6.317-6.698,11.382c-2.357,6.4-2.706,8.069-7.523,2.248
							c-4.817-5.822-6.43-12.947-4.236-15.013c2.194-2.066,10.635-4.881,16.207-3.475C29.146,42.452,29.938,46.145,31.396,47.31z"/>
						<path fill="#BDA982" d="M30.704,46.387c1.6,0.887-1.521-4.008-1.521-4.008c-5.572-1.407-14.014,1.409-16.208,3.473
							c-1.757,1.657-1.07,6.562,1.752,11.442c0,0-1.132-0.959,0.193-4.617C16.561,48.138,27.324,44.514,30.704,46.387z"/>
					</g>
					<path fill="#B8A47D" d="M30.876,48.159c0,0-0.931,0.987-1.15,1.426c0,0-2.803-2.015-3.529-7.514c0,0,1.269-0.022,1.743,0.19
						L30.876,48.159z"/>
				</g>
				<g>
					<g>
						<linearGradient id="SVGID_7_" gradientUnits="userSpaceOnUse" x1="46.5103" y1="70.7402" x2="29.5497" y2="55.5704">
							<stop  offset="0" style="stop-color:#E6D6C2"/>
							<stop  offset="0.2245" style="stop-color:#E3D3BE"/>
							<stop  offset="0.4571" style="stop-color:#DCCBB1"/>
							<stop  offset="0.6926" style="stop-color:#D0BD9D"/>
							<stop  offset="0.7637" style="stop-color:#CBB895"/>
							<stop  offset="1" style="stop-color:#BDA982"/>
						</linearGradient>
						<path fill="url(#SVGID_7_)" d="M39.593,51.626c0,0,2.056,7.684,4.931,12.25c3.633,5.773,4.742,7.068-2.809,7.333
							c-7.552,0.264-14.181-2.806-14.479-5.804c-0.299-2.999,2.621-11.403,7.136-14.961C34.372,50.444,37.78,52.071,39.593,51.626z"
							/>
						<path fill="#BDA982" d="M38.439,51.612c1.68-0.727-4.104-1.241-4.104-1.241c-4.514,3.557-7.434,11.963-7.136,14.96
							c0.24,2.404,4.545,4.851,10.133,5.593c0,0-1.449,0.313-3.539-2.97C31.197,63.885,34.894,53.147,38.439,51.612z"/>
					</g>
					<path fill="#B8A47D" d="M39.951,52.528c0,0,0.214,1.339,0.427,1.781c0,0-3.307,0.991-8.105-1.788c0,0,0.756-1.019,1.212-1.264
						L39.951,52.528z"/>
				</g>
				<g>
					<g>
						<linearGradient id="SVGID_8_" gradientUnits="userSpaceOnUse" x1="67.8203" y1="53.1709" x2="46.0749" y2="58.4477">
							<stop  offset="0" style="stop-color:#E6D6C2"/>
							<stop  offset="0.2245" style="stop-color:#E3D3BE"/>
							<stop  offset="0.4571" style="stop-color:#DCCBB1"/>
							<stop  offset="0.6926" style="stop-color:#D0BD9D"/>
							<stop  offset="0.7637" style="stop-color:#CBB895"/>
							<stop  offset="1" style="stop-color:#BDA982"/>
						</linearGradient>
						<path fill="url(#SVGID_8_)" d="M48.953,47.745c0,0,7.231,3.314,12.582,4.01c6.764,0.881,8.469,0.852,3.859,6.838
							c-4.61,5.987-11.201,9.139-13.7,7.457c-2.501-1.682-7.117-9.289-6.979-15.035C44.714,51.016,48.139,49.426,48.953,47.745z"/>
						<path fill="#BDA982" d="M48.206,48.625c0.511-1.757-3.571,2.373-3.571,2.373c-0.138,5.745,4.479,13.352,6.978,15.035
							c2.005,1.347,6.635-0.41,10.769-4.244c0,0-0.683,1.316-4.544,0.834C53.047,62.028,47.129,52.336,48.206,48.625z"/>
					</g>
					<path fill="#B8A47D" d="M49.846,48.046c0,0,1.169,0.687,1.646,0.805c0,0-1.344,3.18-6.544,5.105c0,0-0.303-1.232-0.202-1.741
						L49.846,48.046z"/>
				</g>
				<g>
					<g>
						<linearGradient id="SVGID_9_" gradientUnits="userSpaceOnUse" x1="65.2295" y1="25.6543" x2="58.8454" y2="46.5356">
							<stop  offset="0" style="stop-color:#E6D6C2"/>
							<stop  offset="0.2245" style="stop-color:#E3D3BE"/>
							<stop  offset="0.4571" style="stop-color:#DCCBB1"/>
							<stop  offset="0.6926" style="stop-color:#D0BD9D"/>
							<stop  offset="0.7637" style="stop-color:#CBB895"/>
							<stop  offset="1" style="stop-color:#BDA982"/>
						</linearGradient>
						<path fill="url(#SVGID_9_)" d="M51.294,37.807c0,0,7.038-3.708,10.854-7.522c4.825-4.822,5.842-6.191,7.773,1.115
							c1.93,7.305,0.406,14.45-2.451,15.405c-2.857,0.956-11.702-0.03-16.17-3.644C51.299,43.16,52.13,39.477,51.294,37.807z"/>
						<path fill="#BDA982" d="M51.536,38.936c-1.081-1.478-0.299,4.277-0.299,4.277c4.468,3.615,13.312,4.599,16.169,3.645
							c2.29-0.767,3.723-5.507,3.209-11.121c0,0,0.625,1.343-2.113,4.108C65.108,43.278,53.819,42.053,51.536,38.936z"/>
					</g>
					<path fill="#B8A47D" d="M52.082,37.271c0,0,1.258-0.506,1.642-0.813c0,0,1.698,3.005,0.051,8.3c0,0-1.16-0.512-1.501-0.901
						L52.082,37.271z"/>
				</g>
			</g>
			<g>
				<radialGradient id="SVGID_10_" cx="40.6152" cy="40.4448" r="12.672" gradientUnits="userSpaceOnUse">
					<stop  offset="0.6703" style="stop-color:#E6D6C2"/>
					<stop  offset="0.8626" style="stop-color:#BDA982"/>
					<stop  offset="0.8957" style="stop-color:#C0AC86"/>
					<stop  offset="0.9312" style="stop-color:#C8B593"/>
					<stop  offset="0.9677" style="stop-color:#D6C4A9"/>
					<stop  offset="1" style="stop-color:#E6D6C2"/>
				</radialGradient>
				<circle fill="url(#SVGID_10_)" cx="40.514" cy="40.545" r="13.153"/>
				<circle fill="#593D3B" cx="40.514" cy="40.546" r="10.472"/>
				<radialGradient id="SVGID_11_" cx="40.5142" cy="40.5464" r="8.5298" gradientUnits="userSpaceOnUse">
					<stop  offset="0" style="stop-color:#A79387"/>
					<stop  offset="0.3791" style="stop-color:#87726A"/>
					<stop  offset="0.4531" style="stop-color:#826C65"/>
					<stop  offset="0.7192" style="stop-color:#725C56"/>
					<stop  offset="0.9231" style="stop-color:#6D5651"/>
				</radialGradient>
				<circle fill="url(#SVGID_11_)" cx="40.514" cy="40.546" r="8.53"/>
			</g>
		</g>
	</g>
</g>
</svg>