<?xml version="1.0" standalone="no"?>
<!DOCTYPE svg PUBLIC "-//W3C//DTD SVG 1.1//EN" "http://www.w3.org/Graphics/SVG/1.1/DTD/svg11.dtd">
<!--Generator: Xara Xtreme (www.xara.com), SVG filter version: 1.0.0.13-->
<svg stroke-width="0.501" stroke-linejoin="bevel" fill-rule="evenodd" xmlns:xlink="http://www.w3.org/1999/xlink" xmlns="http://www.w3.org/2000/svg" version="1.1" overflow="visible" width="87pt" height="77.25pt" viewBox="0 0 87 77.25">
 <defs>
  <marker id="DefaultArrow2" markerUnits="strokeWidth" viewBox="0 0 1 1" markerWidth="1" markerHeight="1" overflow="visible" orient="auto">
   <!-- REF_ARROW_STRAIGHT (-2) -->
   <g transform="scale(0.0092592592)">
    <!-- 1/108 -->
    <path d="M -9 54 L -9 -54 L 117 0 z"/>
   </g>
  </marker>
  <marker id="DefaultArrow3" markerUnits="strokeWidth" viewBox="0 0 1 1" markerWidth="1" markerHeight="1" overflow="visible" orient="auto">
   <!-- REF_ARROW_ANGLED -->
   <g transform="scale(0.0092592592)">
    <path d="M -27 54 L -9 0 L -27 -54 L 135 0 z"/>
   </g>
  </marker>
  <marker id="DefaultArrow4" markerUnits="strokeWidth" viewBox="0 0 1 1" markerWidth="1" markerHeight="1" overflow="visible" orient="auto">
   <!-- REF_ARROW_ROUNDED -->
   <g transform="scale(0.0092592592)">
    <path d="M -9,0 L -9,-45 C -9,-51.708 2.808,-56.580 9,-54 L 117,-9 C 120.916,-7.369 126.000,-4.242 126,0 C 126,4.242 120.916,7.369 117,9 L 9,54 C 2.808,56.580 -9,51.708 -9,45 z"/>
   </g>
  </marker>
  <marker id="DefaultArrow5" markerUnits="strokeWidth" viewBox="0 0 1 1" markerWidth="1" markerHeight="1" overflow="visible" orient="auto">
   <!-- REF_ARROW_SPOT -->
   <g transform="scale(0.0092592592)">
    <path d="M -54, 0 C -54,29.807 -29.807,54 0,54 C 29.807,54 54,29.807 54,0 C 54,-29.807 29.807,-54 0,-54 C -29.807,-54 -54,-29.807 -54,0 z"/>
   </g>
  </marker>
  <marker id="DefaultArrow6" markerUnits="strokeWidth" viewBox="0 0 1 1" markerWidth="1" markerHeight="1" overflow="visible" orient="auto">
   <!-- REF_ARROW_DIAMOND -->
   <g transform="scale(0.0092592592)">
    <path d="M -63,0 L 0,63 L 63,0 L 0,-63 z"/>
   </g>
  </marker>
  <marker id="DefaultArrow7" markerUnits="strokeWidth" viewBox="0 0 1 1" markerWidth="1" markerHeight="1" overflow="visible" orient="auto">
   <!-- REF_ARROW_FEATHER -->
   <g transform="scale(0.0092592592)">
    <path d="M 18,-54 L 108,-54 L 63,0 L 108,54 L 18, 54 L -36,0 z"/>
   </g>
  </marker>
  <marker id="DefaultArrow8" markerUnits="strokeWidth" viewBox="0 0 1 1" markerWidth="1" markerHeight="1" overflow="visible" orient="auto">
   <!-- REF_ARROW_FEATHER2 -->
   <g transform="scale(0.0092592592)">
    <path d="M -36,0 L 18,-54 L 54,-54 L 18,-18 L 27,-18 L 63,-54 L 99,-54 L 63,-18 L 72,-18 L 108,-54 L 144,-54 L 90,0 L 144,54 L 108,54 L 72,18 L 63,18 L 99,54 L 63,54 L 27,18 L 18,18 L 54,54 L 18,54 z"/>
   </g>
  </marker>
  <marker id="DefaultArrow9" markerUnits="strokeWidth" viewBox="0 0 1 1" markerWidth="1" markerHeight="1" overflow="visible" orient="auto">
   <!-- REF_ARROW_HOLLOWDIAMOND -->
   <g transform="scale(0.0092592592)">
    <path d="M 0,45 L -45,0 L 0, -45 L 45, 0 z M 0, 63 L-63, 0 L 0, -63 L 63, 0 z"/>
   </g>
  </marker>
  <filter id="StainedFilter">
   <feBlend mode="multiply" in2="BackgroundImage" in="SourceGraphic" result="blend"/>
   <feComposite in="blend" in2="SourceAlpha" operator="in" result="comp"/>
  </filter>
  <filter id="BleachFilter">
   <feBlend mode="screen" in2="BackgroundImage" in="SourceGraphic" result="blend"/>
   <feComposite in="blend" in2="SourceAlpha" operator="in" result="comp"/>
  </filter>
  <filter id="InvertTransparencyBitmapFilter">
   <feComponentTransfer>
    <feFuncR type="gamma" amplitude="1.055" exponent=".416666666" offset="-0.055"/>
    <feFuncG type="gamma" amplitude="1.055" exponent=".416666666" offset="-0.055"/>
    <feFuncB type="gamma" amplitude="1.055" exponent=".416666666" offset="-0.055"/>
   </feComponentTransfer>
   <feComponentTransfer>
    <feFuncR type="linear" slope="-1" intercept="1"/>
    <feFuncG type="linear" slope="-1" intercept="1"/>
    <feFuncB type="linear" slope="-1" intercept="1"/>
    <feFuncA type="linear" slope="1" intercept="0"/>
   </feComponentTransfer>
   <feComponentTransfer>
    <feFuncR type="gamma" amplitude="1" exponent="2.4" offset="0"/>
    <feFuncG type="gamma" amplitude="1" exponent="2.4" offset="0"/>
    <feFuncB type="gamma" amplitude="1" exponent="2.4" offset="0"/>
   </feComponentTransfer>
  </filter>
  <linearGradient id="LinearGradient" gradientUnits="userSpaceOnUse" x1="0" y1="0" x2="0" y2="116.259" gradientTransform="translate(45.75 -81.758)">
   <stop offset="0" stop-color="#ffffff"/>
   <stop offset="1" stop-color="#616f61"/>
  </linearGradient>
  <linearGradient id="LinearGradient_1" gradientUnits="userSpaceOnUse" x1="0" y1="0" x2="18.197" y2="0" gradientTransform="translate(62.995 70.602) rotate(-90)">
   <stop offset="0" stop-color="#6f7f6f"/>
   <stop offset="0.230769231915474" stop-color="#c7d4c7"/>
   <stop offset="0.800000011920929" stop-color="#aab7aa"/>
   <stop offset="1" stop-color="#6f7f6f"/>
  </linearGradient>
  <radialGradient id="RadialGradient" gradientUnits="userSpaceOnUse" cx="0" cy="0" r="8.625" gradientTransform="translate(59.625 61.876) rotate(90) scale(1 2.73913)">
   <stop offset="0" stop-color="#ffffff"/>
   <stop offset="1" stop-color="#000000"/>
  </radialGradient>
  <radialGradient id="RadialGradient_1" gradientUnits="userSpaceOnUse" cx="0" cy="0" r="8.625" gradientTransform="translate(59.625 61.876) rotate(90) scale(1 2.73913)">
   <stop offset="0" stop-color="#ffffff"/>
   <stop offset="1" stop-color="#000000"/>
  </radialGradient>
  <linearGradient id="LinearGradient_2" gradientUnits="userSpaceOnUse" x1="0" y1="0" x2="6.572" y2="0" gradientTransform="translate(28.609 44.215)">
   <stop offset="0" stop-color="#b3c1b3"/>
   <stop offset="1" stop-color="#728272"/>
  </linearGradient>
  <linearGradient id="LinearGradient_3" gradientUnits="userSpaceOnUse" x1="0" y1="0" x2="-16.428" y2="31.214" gradientTransform="translate(49.966 12.18)">
   <stop offset="0" stop-color="#ffffff"/>
   <stop offset="1" stop-color="#000000"/>
  </linearGradient>
  <linearGradient id="LinearGradient_4" gradientUnits="userSpaceOnUse" x1="0" y1="0" x2="3.286" y2="5.69" gradientTransform="translate(25.192 33.706)">
   <stop offset="0" stop-color="#b3c1b3"/>
   <stop offset="1" stop-color="#728272"/>
  </linearGradient>
  <linearGradient id="LinearGradient_5" gradientUnits="userSpaceOnUse" x1="0" y1="0" x2="-35.246" y2="1.379" gradientTransform="translate(63.613 36.184)">
   <stop offset="0" stop-color="#ffffff"/>
   <stop offset="1" stop-color="#000000"/>
  </linearGradient>
  <linearGradient id="LinearGradient_6" gradientUnits="userSpaceOnUse" x1="0" y1="0" x2="-3.286" y2="5.691" gradientTransform="translate(32.585 25.491)">
   <stop offset="0" stop-color="#b3c1b3"/>
   <stop offset="1" stop-color="#728272"/>
  </linearGradient>
  <linearGradient id="LinearGradient_7" gradientUnits="userSpaceOnUse" x1="0" y1="0" x2="-18.817" y2="-29.835" gradientTransform="translate(49.65 60.005)">
   <stop offset="0" stop-color="#ffffff"/>
   <stop offset="1" stop-color="#000000"/>
  </linearGradient>
  <linearGradient id="LinearGradient_8" gradientUnits="userSpaceOnUse" x1="0" y1="0" x2="-6.572" y2="0" gradientTransform="translate(43.395 27.787)">
   <stop offset="0" stop-color="#b3c1b3"/>
   <stop offset="1" stop-color="#728272"/>
  </linearGradient>
  <linearGradient id="LinearGradient_9" gradientUnits="userSpaceOnUse" x1="0" y1="0" x2="16.428" y2="-31.214" gradientTransform="translate(22.038 59.822)">
   <stop offset="0" stop-color="#ffffff"/>
   <stop offset="1" stop-color="#000000"/>
  </linearGradient>
  <linearGradient id="LinearGradient_10" gradientUnits="userSpaceOnUse" x1="0" y1="0" x2="-3.286" y2="-5.69" gradientTransform="translate(46.812 38.296)">
   <stop offset="0" stop-color="#b3c1b3"/>
   <stop offset="1" stop-color="#728272"/>
  </linearGradient>
  <linearGradient id="LinearGradient_11" gradientUnits="userSpaceOnUse" x1="0" y1="0" x2="35.246" y2="-1.379" gradientTransform="translate(8.391 35.818)">
   <stop offset="0" stop-color="#ffffff"/>
   <stop offset="1" stop-color="#000000"/>
  </linearGradient>
  <linearGradient id="LinearGradient_12" gradientUnits="userSpaceOnUse" x1="0" y1="0" x2="3.286" y2="-5.691" gradientTransform="translate(39.419 46.511)">
   <stop offset="0" stop-color="#b3c1b3"/>
   <stop offset="1" stop-color="#728272"/>
  </linearGradient>
  <linearGradient id="LinearGradient_13" gradientUnits="userSpaceOnUse" x1="0" y1="0" x2="18.817" y2="29.835" gradientTransform="translate(22.354 11.997)">
   <stop offset="0" stop-color="#ffffff"/>
   <stop offset="1" stop-color="#000000"/>
  </linearGradient>
  <linearGradient id="LinearGradient_14" gradientUnits="userSpaceOnUse" x1="0" y1="0" x2="0" y2="-39" gradientTransform="translate(49.5 78.751)">
   <stop offset="0" stop-color="#ffffff"/>
   <stop offset="1" stop-color="#000000"/>
  </linearGradient>
  <radialGradient id="RadialGradient_2" gradientUnits="userSpaceOnUse" cx="36" cy="36.001" r="42.439">
   <stop offset="0" stop-color="#ffffff"/>
   <stop offset="1" stop-color="#000000"/>
  </radialGradient>
  <linearGradient id="LinearGradient_15" gradientUnits="userSpaceOnUse" x1="0" y1="0" x2="0" y2="9.778" gradientTransform="translate(55.5 65.251)">
   <stop offset="0" stop-color="#ffffff"/>
   <stop offset="1" stop-color="#000000"/>
  </linearGradient>
  <linearGradient id="LinearGradient_16" gradientUnits="userSpaceOnUse" x1="0" y1="0" x2="27.577" y2="-27.577" gradientTransform="translate(15.317 75.775)">
   <stop offset="0" stop-color="#ffffff"/>
   <stop offset="1" stop-color="#000000"/>
  </linearGradient>
  <linearGradient id="LinearGradient_17" gradientUnits="userSpaceOnUse" x1="0" y1="0" x2="38.999" y2="0" gradientTransform="translate(56.685 75.775) rotate(-135)">
   <stop offset="0" stop-color="#ffffff"/>
   <stop offset="1" stop-color="#000000"/>
  </linearGradient>
  <linearGradient id="LinearGradient_18" gradientUnits="userSpaceOnUse" x1="0" y1="0" x2="0" y2="-45.392" gradientTransform="translate(43.827 57.913)">
   <stop offset="0" stop-color="#889588"/>
   <stop offset="0.481481492519379" stop-color="#bbc5bb"/>
   <stop offset="1" stop-color="#8f988f"/>
  </linearGradient>
  <linearGradient id="LinearGradient_19" gradientUnits="userSpaceOnUse" x1="0" y1="0" x2="0" y2="147.007" gradientTransform="translate(39 -123.756)">
   <stop offset="0" stop-color="#ffffff"/>
   <stop offset="1" stop-color="#000000"/>
  </linearGradient>
  <linearGradient id="LinearGradient_20" gradientUnits="userSpaceOnUse" x1="0" y1="0" x2="27.299" y2="0" gradientTransform="translate(82.82 75.157) rotate(-90)">
   <stop offset="0" stop-color="#6f7f6f"/>
   <stop offset="0.230769231915474" stop-color="#c7d4c7"/>
   <stop offset="0.800000011920929" stop-color="#aab7aa"/>
   <stop offset="1" stop-color="#6f7f6f"/>
  </linearGradient>
  <linearGradient id="LinearGradient_21" gradientUnits="userSpaceOnUse" x1="0" y1="0" x2="2.25" y2="0" gradientTransform="translate(75.747 73.186)">
   <stop offset="0" stop-color="#ffffff"/>
   <stop offset="1" stop-color="#000000"/>
  </linearGradient>
  <linearGradient id="LinearGradient_22" gradientUnits="userSpaceOnUse" x1="0" y1="0" x2="2.25" y2="0" gradientTransform="translate(88.503 73.186) rotate(180)">
   <stop offset="0" stop-color="#ffffff"/>
   <stop offset="1" stop-color="#000000"/>
  </linearGradient>
  <linearGradient id="LinearGradient_23" gradientUnits="userSpaceOnUse" x1="0" y1="0" x2="8.129" y2="0" gradientTransform="translate(86.25 68.107) rotate(90)">
   <stop offset="0" stop-color="#ffffff"/>
   <stop offset="1" stop-color="#000000"/>
  </linearGradient>
  <linearGradient id="LinearGradient_24" gradientUnits="userSpaceOnUse" x1="0" y1="0" x2="23.372" y2="0" gradientTransform="translate(86.25 70.139) rotate(-90)">
   <stop offset="0" stop-color="#ffffff"/>
   <stop offset="1" stop-color="#000000"/>
  </linearGradient>
  <linearGradient id="LinearGradient_25" gradientUnits="userSpaceOnUse" x1="0" y1="0" x2="0" y2="-60.754" gradientTransform="translate(39 118.505)">
   <stop offset="0" stop-color="#ffffff"/>
   <stop offset="1" stop-color="#000000"/>
  </linearGradient>
  <linearGradient id="LinearGradient_26" gradientUnits="userSpaceOnUse" x1="0" y1="0" x2="0" y2="-3" gradientTransform="translate(38.25 37.501)">
   <stop offset="0" stop-color="#a8b5a8"/>
   <stop offset="1" stop-color="#6f7f6f"/>
  </linearGradient>
  <linearGradient id="LinearGradient_27" gradientUnits="userSpaceOnUse" x1="0" y1="0" x2="0" y2="-20.348" gradientTransform="translate(53.219 46.957)">
   <stop offset="0" stop-color="#ffffff"/>
   <stop offset="1" stop-color="#000000"/>
  </linearGradient>
  <linearGradient id="LinearGradient_28" gradientUnits="userSpaceOnUse" x1="0" y1="0" x2="8.903" y2="0" gradientTransform="translate(43.535 31.206) rotate(90)">
   <stop offset="0" stop-color="#ffffff"/>
   <stop offset="1" stop-color="#000000"/>
  </linearGradient>
  <linearGradient id="LinearGradient_29" gradientUnits="userSpaceOnUse" x1="0" y1="0" x2="0" y2="-18.227" gradientTransform="translate(51.425 45.815)">
   <stop offset="0" stop-color="#ffffff"/>
   <stop offset="1" stop-color="#000000"/>
  </linearGradient>
  <linearGradient id="LinearGradient_30" gradientUnits="userSpaceOnUse" x1="0" y1="0" x2="11.445" y2="0" gradientTransform="translate(45.685 29.837) rotate(90)">
   <stop offset="0" stop-color="#ffffff"/>
   <stop offset="1" stop-color="#000000"/>
  </linearGradient>
 </defs>
 <g id="Document" fill="none" stroke="black" font-family="Times New Roman" font-size="16" transform="scale(1 -1)">
  <g id="Spread" transform="translate(0 -77.25)">
   <g id="Layer 1">
    <path d="M 36.001,53.251 C 45.524,53.251 53.253,45.523 53.253,36 C 53.253,26.477 45.524,18.749 36.001,18.749 C 26.478,18.749 18.749,26.477 18.749,36 C 18.749,45.523 26.478,53.251 36.001,53.251 Z" stroke-linejoin="miter" stroke="none" marker-start="none" marker-end="none" fill="url(#LinearGradient)"/>
    <path d="M 36,72 L 36,51.001 L 83.251,51.001 L 83.251,72 L 36,72 Z" stroke-linejoin="miter" stroke="none" marker-start="none" marker-end="none" fill="url(#LinearGradient_1)"/>
    <mask id="TranspMask_1">
     <rect x="-10%" y="-10%" width="120%" height="120%" fill="url(#RadialGradient_1)" stroke="none"/>
    </mask>
    <g id="Group" stroke-linejoin="miter" stroke="none" fill="#ffffff" mask="url(#TranspMask_1)">
     <mask id="TranspMask">
      <rect x="-10%" y="-10%" width="120%" height="120%" fill="url(#RadialGradient)" stroke="none"/>
     </mask>
     <path d="M 36,61.876 C 36,66.637 46.584,70.501 59.625,70.501 C 72.666,70.501 83.25,66.637 83.25,61.876 C 83.25,57.115 72.666,53.251 59.625,53.251 C 46.584,53.251 36,57.115 36,61.876 Z" marker-start="none" marker-end="none" mask="url(#TranspMask)"/>
    </g>
    <g id="Group_1" stroke-linejoin="miter" stroke="none">
     <g id="Group_2">
      <path d="M 35.181,37.644 L 35.181,52.43 C 35.181,52.938 34.778,53.251 34.359,53.251 C 32.683,53.251 28.609,47.125 28.609,43.394 C 28.609,40.945 31.847,38.847 34.359,36.822 L 35.181,37.644 Z" marker-start="none" marker-end="none" fill="url(#LinearGradient_2)"/>
      <mask id="TranspMask_2">
       <rect x="-10%" y="-10%" width="120%" height="120%" fill="url(#LinearGradient_3)" stroke="none"/>
      </mask>
      <path d="M 35.181,37.644 L 35.181,52.43 C 35.181,52.938 34.778,53.251 34.359,53.251 C 32.683,53.251 28.609,47.125 28.609,43.394 C 28.609,40.945 31.847,38.847 34.359,36.822 L 35.181,37.644 Z" fill="#000000" marker-start="none" marker-end="none" mask="url(#TranspMask_2)"/>
     </g>
     <g id="Group_3">
      <path d="M 34.169,36.11 L 21.364,43.504 C 20.924,43.758 20.452,43.567 20.241,43.203 C 19.404,41.752 22.672,35.161 25.903,33.295 C 28.024,32.07 31.459,33.826 34.469,34.989 L 34.169,36.11 Z" marker-start="none" marker-end="none" fill="url(#LinearGradient_4)"/>
      <mask id="TranspMask_3">
       <rect x="-10%" y="-10%" width="120%" height="120%" fill="url(#LinearGradient_5)" stroke="none"/>
      </mask>
      <path d="M 34.169,36.11 L 21.364,43.504 C 20.924,43.758 20.452,43.567 20.241,43.203 C 19.404,41.752 22.672,35.161 25.903,33.295 C 28.024,32.07 31.459,33.826 34.469,34.989 L 34.169,36.11 Z" fill="#000000" marker-start="none" marker-end="none" mask="url(#TranspMask_3)"/>
     </g>
     <g id="Group_4">
      <path d="M 34.99,34.468 L 22.186,27.076 C 21.745,26.821 21.674,26.317 21.885,25.953 C 22.722,24.502 30.065,24.036 33.296,25.902 C 35.417,27.126 35.614,30.979 36.111,34.168 L 34.99,34.468 Z" marker-start="none" marker-end="none" fill="url(#LinearGradient_6)"/>
      <mask id="TranspMask_4">
       <rect x="-10%" y="-10%" width="120%" height="120%" fill="url(#LinearGradient_7)" stroke="none"/>
      </mask>
      <path d="M 34.99,34.468 L 22.186,27.076 C 21.745,26.821 21.674,26.317 21.885,25.953 C 22.722,24.502 30.065,24.036 33.296,25.902 C 35.417,27.126 35.614,30.979 36.111,34.168 L 34.99,34.468 Z" fill="#000000" marker-start="none" marker-end="none" mask="url(#TranspMask_4)"/>
     </g>
     <g id="Group_5">
      <path d="M 36.823,34.358 L 36.823,19.572 C 36.823,19.064 37.226,18.751 37.645,18.751 C 39.321,18.751 43.395,24.877 43.395,28.608 C 43.395,31.057 40.157,33.155 37.645,35.18 L 36.823,34.358 Z" marker-start="none" marker-end="none" fill="url(#LinearGradient_8)"/>
      <mask id="TranspMask_5">
       <rect x="-10%" y="-10%" width="120%" height="120%" fill="url(#LinearGradient_9)" stroke="none"/>
      </mask>
      <path d="M 36.823,34.358 L 36.823,19.572 C 36.823,19.064 37.226,18.751 37.645,18.751 C 39.321,18.751 43.395,24.877 43.395,28.608 C 43.395,31.057 40.157,33.155 37.645,35.18 L 36.823,34.358 Z" fill="#000000" marker-start="none" marker-end="none" mask="url(#TranspMask_5)"/>
     </g>
     <g id="Group_6">
      <path d="M 37.835,35.892 L 50.64,28.498 C 51.08,28.244 51.552,28.435 51.763,28.799 C 52.6,30.25 49.332,36.841 46.101,38.707 C 43.98,39.932 40.545,38.176 37.535,37.013 L 37.835,35.892 Z" marker-start="none" marker-end="none" fill="url(#LinearGradient_10)"/>
      <mask id="TranspMask_6">
       <rect x="-10%" y="-10%" width="120%" height="120%" fill="url(#LinearGradient_11)" stroke="none"/>
      </mask>
      <path d="M 37.835,35.892 L 50.64,28.498 C 51.08,28.244 51.552,28.435 51.763,28.799 C 52.6,30.25 49.332,36.841 46.101,38.707 C 43.98,39.932 40.545,38.176 37.535,37.013 L 37.835,35.892 Z" fill="#000000" marker-start="none" marker-end="none" mask="url(#TranspMask_6)"/>
     </g>
     <g id="Group_7">
      <path d="M 37.014,37.534 L 49.818,44.926 C 50.259,45.181 50.33,45.685 50.119,46.049 C 49.282,47.5 41.939,47.966 38.708,46.1 C 36.587,44.876 36.39,41.023 35.893,37.834 L 37.014,37.534 Z" marker-start="none" marker-end="none" fill="url(#LinearGradient_12)"/>
      <mask id="TranspMask_7">
       <rect x="-10%" y="-10%" width="120%" height="120%" fill="url(#LinearGradient_13)" stroke="none"/>
      </mask>
      <path d="M 37.014,37.534 L 49.818,44.926 C 50.259,45.181 50.33,45.685 50.119,46.049 C 49.282,47.5 41.939,47.966 38.708,46.1 C 36.587,44.876 36.39,41.023 35.893,37.834 L 37.014,37.534 Z" fill="#000000" marker-start="none" marker-end="none" mask="url(#TranspMask_7)"/>
     </g>
    </g>
    <mask id="TranspMask_8">
     <rect x="-10%" y="-10%" width="120%" height="120%" fill="url(#LinearGradient_14)" stroke="none"/>
    </mask>
    <path d="M 36.001,53.251 C 45.524,53.251 53.253,45.523 53.253,36 C 53.253,26.477 45.524,18.749 36.001,18.749 C 26.478,18.749 18.749,26.477 18.749,36 C 18.749,45.523 26.478,53.251 36.001,53.251 Z" stroke-linejoin="miter" stroke="none" fill="#000000" marker-start="none" marker-end="none" mask="url(#TranspMask_8)"/>
    <mask id="TranspMask_10">
     <rect x="-10%" y="-10%" width="120%" height="120%" fill="url(#LinearGradient_15)" stroke="none"/>
    </mask>
    <g id="Group_8" stroke-linejoin="miter" stroke="none" fill="#000000" mask="url(#TranspMask_10)">
     <mask id="TranspMask_9">
      <rect x="-10%" y="-10%" width="120%" height="120%" fill="url(#RadialGradient_2)" stroke="none"/>
     </mask>
     <path d="M 36,72 L 36,51.001 L 83.251,51.001 L 83.251,72 L 36,72 Z" marker-start="none" marker-end="none" mask="url(#TranspMask_9)"/>
    </g>
    <mask id="TranspMask_11">
     <rect x="-10%" y="-10%" width="120%" height="120%" fill="url(#LinearGradient_16)" stroke="none"/>
    </mask>
    <path d="M 23.803,48.198 C 30.536,54.932 41.466,54.933 48.2,48.199 C 54.934,41.465 54.933,30.535 48.199,23.802 C 41.466,17.068 30.536,17.067 23.802,23.801 C 17.068,30.535 17.069,41.465 23.803,48.198 Z" stroke-linejoin="miter" stroke="none" fill="#000000" marker-start="none" marker-end="none" mask="url(#TranspMask_11)"/>
    <mask id="TranspMask_12">
     <rect x="-10%" y="-10%" width="120%" height="120%" fill="url(#LinearGradient_17)" stroke="none"/>
    </mask>
    <path d="M 48.199,48.198 C 41.466,54.932 30.536,54.933 23.802,48.199 C 17.068,41.465 17.069,30.535 23.803,23.802 C 30.536,17.068 41.466,17.067 48.2,23.801 C 54.934,30.535 54.933,41.465 48.199,48.198 Z" stroke-linejoin="miter" stroke="none" fill="#000000" marker-start="none" marker-end="none" mask="url(#TranspMask_12)"/>
    <path d="M 0,36.001 C 0,55.873 16.129,72 36.001,72 C 55.873,72 72.002,55.873 72.002,36.001 C 72.002,16.129 55.873,0.001 36.001,0.001 C 16.129,0.001 0,16.129 0,36.001 Z M 51.002,36 C 51.002,44.28 44.281,51 36.001,51 C 27.721,51 21,44.28 21,36 C 21,27.72 27.721,21 36.001,21 C 44.281,21 51.002,27.72 51.002,36 Z" stroke-linejoin="miter" stroke="none" marker-start="none" marker-end="none" fill="url(#LinearGradient_18)"/>
    <mask id="TranspMask_13">
     <rect x="-10%" y="-10%" width="120%" height="120%" fill="url(#LinearGradient_19)" stroke="none"/>
    </mask>
    <path d="M 36.001,72 C 55.873,72 72.002,55.873 72.002,36.001 C 72.002,16.129 55.873,0.001 36.001,0.001 C 16.129,0.001 0,16.129 0,36.001 C 0,55.873 16.129,72 36.001,72 Z" stroke-linejoin="miter" stroke="none" fill="#000000" marker-start="none" marker-end="none" mask="url(#TranspMask_13)"/>
    <path d="M 36.001,36.749 C 36.414,36.749 36.75,36.413 36.75,36 C 36.75,35.587 36.414,35.251 36.001,35.251 C 35.588,35.251 35.252,35.587 35.252,36 C 35.252,36.413 35.588,36.749 36.001,36.749 Z" stroke-linejoin="miter" stroke="none" fill="#000000" marker-start="none" marker-end="none" fill-opacity="0.490196"/>
    <path d="M 77.249,77.253 L 77.249,45.752 L 87,45.752 L 87,77.253 L 77.249,77.253 Z" stroke-linejoin="miter" stroke="none" marker-start="none" marker-end="none" fill="url(#LinearGradient_20)"/>
    <mask id="TranspMask_14">
     <rect x="-10%" y="-10%" width="120%" height="120%" fill="url(#LinearGradient_21)" stroke="none"/>
    </mask>
    <path d="M 77.999,77.251 L 77.25,77.251 L 77.25,45.75 L 77.999,45.75 L 77.999,77.251 Z" stroke-linejoin="miter" stroke="none" fill="#000000" marker-start="none" marker-end="none" mask="url(#TranspMask_14)"/>
    <mask id="TranspMask_15">
     <rect x="-10%" y="-10%" width="120%" height="120%" fill="url(#LinearGradient_22)" stroke="none"/>
    </mask>
    <path d="M 87,77.251 L 86.251,77.251 L 86.251,45.75 L 87,45.75 L 87,77.251 Z" stroke-linejoin="miter" stroke="none" fill="#000000" marker-start="none" marker-end="none" mask="url(#TranspMask_15)"/>
    <mask id="TranspMask_17">
     <rect x="-10%" y="-10%" width="120%" height="120%" fill="url(#LinearGradient_24)" stroke="none"/>
    </mask>
    <g id="Group_9" stroke-linejoin="miter" stroke="none" fill="#d7e0d7" mask="url(#TranspMask_17)">
     <mask id="TranspMask_16">
      <rect x="-10%" y="-10%" width="120%" height="120%" fill="url(#LinearGradient_23)" stroke="none"/>
     </mask>
     <path d="M 86.25,77.251 L 85.501,77.251 L 85.501,45.75 L 86.25,45.75 L 86.25,77.251 Z" marker-start="none" marker-end="none" mask="url(#TranspMask_16)"/>
    </g>
    <mask id="TranspMask_18">
     <rect x="-10%" y="-10%" width="120%" height="120%" fill="url(#LinearGradient_25)" stroke="none"/>
    </mask>
    <path d="M 36.001,0 C 55.873,0 72.002,16.127 72.002,35.999 C 72.002,55.871 55.873,71.999 36.001,71.999 C 16.129,71.999 0,55.871 0,35.999 C 0,16.127 16.129,0 36.001,0 Z" stroke-linejoin="miter" stroke="none" fill="#ffffff" marker-start="none" marker-end="none" mask="url(#TranspMask_18)"/>
    <path d="M 36.001,38.251 C 34.758,38.251 33.751,37.244 33.751,36.001 C 33.751,34.758 34.758,33.751 36.001,33.751 C 37.244,33.751 38.251,34.758 38.251,36.001 C 38.251,37.244 37.244,38.251 36.001,38.251 Z" stroke-linejoin="miter" stroke="none" marker-start="none" marker-end="none" fill="url(#LinearGradient_26)"/>
    <path d="M 36.001,37.501 C 35.172,37.501 34.501,36.83 34.501,36.001 C 34.501,35.172 35.172,34.501 36.001,34.501 C 36.83,34.501 37.501,35.172 37.501,36.001 C 37.501,36.83 36.83,37.501 36.001,37.501 Z" stroke-linejoin="miter" stroke="none" fill="#7f8e7f" marker-start="none" marker-end="none"/>
    <path d="M 0,36.001 C 0,55.873 16.129,72 36.001,72 C 55.873,72 72.002,55.873 72.002,36.001 C 72.002,16.129 55.873,0.001 36.001,0.001 C 16.129,0.001 0,16.129 0,36.001 Z M 71.253,36.001 C 71.253,55.459 55.459,71.251 36.001,71.251 C 16.543,71.251 0.749,55.459 0.749,36.001 C 0.749,16.543 16.543,0.75 36.001,0.75 C 55.459,0.75 71.253,16.543 71.253,36.001 Z" stroke-linejoin="miter" stroke="none" marker-start="none" marker-end="none" fill-opacity="0.137255" fill="url(#LinearGradient_27)"/>
    <path d="M 20.249,36 C 20.249,27.305 27.306,20.249 36.001,20.249 C 44.696,20.249 51.753,27.305 51.753,36 C 51.753,44.695 44.696,51.751 36.001,51.751 C 27.306,51.751 20.249,44.695 20.249,36 Z M 51.002,36 C 51.002,27.72 44.281,21 36.001,21 C 27.721,21 21,27.72 21,36 C 21,44.28 27.721,51 36.001,51 C 44.281,51 51.002,44.28 51.002,36 Z" stroke-linejoin="miter" stroke="none" marker-start="none" marker-end="none" fill-opacity="0.400000" fill="url(#LinearGradient_28)"/>
    <path d="M 3.752,36.001 C 3.752,53.802 18.2,68.248 36.001,68.248 C 53.802,68.248 68.25,53.802 68.25,36.001 C 68.25,18.2 53.802,3.753 36.001,3.753 C 18.2,3.753 3.752,18.2 3.752,36.001 Z M 67.503,36.002 C 67.503,53.39 53.389,67.502 36.001,67.502 C 18.613,67.502 4.499,53.39 4.499,36.002 C 4.499,18.612 18.613,4.5 36.001,4.5 C 53.389,4.5 67.503,18.612 67.503,36.002 Z" stroke-linejoin="miter" stroke="none" marker-start="none" marker-end="none" fill-opacity="0.137255" fill="url(#LinearGradient_29)"/>
    <path d="M 15.752,35.999 C 15.752,24.822 24.824,15.752 36.001,15.752 C 47.178,15.752 56.25,24.822 56.25,35.999 C 56.25,47.177 47.178,56.248 36.001,56.248 C 24.824,56.248 15.752,47.177 15.752,35.999 Z M 55.5,35.999 C 55.5,25.236 46.764,16.502 36.001,16.502 C 25.238,16.502 16.502,25.236 16.502,35.999 C 16.502,46.763 25.238,55.498 36.001,55.498 C 46.764,55.498 55.5,46.763 55.5,35.999 Z" stroke-linejoin="miter" stroke="none" marker-start="none" marker-end="none" fill-opacity="0.137255" fill="url(#LinearGradient_30)"/>
   </g>
  </g>
 </g>
</svg>
