<svg xmlns="http://www.w3.org/2000/svg" preserveAspectRatio="none">
	<defs>
		<linearGradient id="linear-gradient" x1="30%" y1="-10%" x2="100%" y2="0%">
			<stop offset="0%" stop-color="#F7ABAE" />
			<stop offset="30%" stop-color="red" />
			<stop offset="100%" stop-color="#F7ABAE" />
		</linearGradient>
	</defs>
<g>
<g>
    <rect x="0" y="-150" height="15" width="152" fill="url(#linear-gradient)" />
</g>
<g transform="translate(-150, 0)">
    <rect x="0" y="0" height="15" width="152" fill="url(#linear-gradient)" />
</g>
<g transform="translate(0 0)">
    <rect x="0" y="0" height="15" width="152" fill="url(#linear-gradient)" />
</g>
<g transform="translate(150 0)">
    <rect x="0" y="0" height="15" width="152" fill="url(#linear-gradient)" />
</g>
<g transform="translate(300 0)">
    <rect x="0" y="0" height="15" width="152" fill="url(#linear-gradient)" />
</g>
<g transform="translate(450 0)">
    <rect x="0" y="0" height="15" width="152" fill="url(#linear-gradient)" />
</g>
<g transform="translate(600 0)">
    <rect x="0" y="0" height="15" width="152" fill="url(#linear-gradient)" />
</g>
<g transform="translate(750 0)">
    <rect x="0" y="0" height="15" width="152" fill="url(#linear-gradient)" />
</g>
<g transform="translate(900 0)">
    <rect x="0" y="0" height="15" width="152" fill="url(#linear-gradient)" />
</g>
<g transform="translate(1050 0)">
    <rect x="0" y="0" height="15" width="152" fill="url(#linear-gradient)" />
</g>
<g transform="translate(1200 0)">
    <rect x="0" y="0" height="15" width="152" fill="url(#linear-gradient)" />
</g>
<g transform="translate(1350 0)">
    <rect x="0" y="0" height="15" width="152" fill="url(#linear-gradient)" />
</g>
<g transform="translate(1500 0)">
    <rect x="0" y="0" height="15" width="152" fill="url(#linear-gradient)" />
</g>
<g transform="translate(1650 0)">
    <rect x="0" y="0" height="15" width="152" fill="url(#linear-gradient)" />
</g>
<g transform="translate(1800 0)">
    <rect x="0" y="0" height="15" width="152" fill="url(#linear-gradient)" />
</g>
<g transform="translate(1950 0)">
    <rect x="0" y="0" height="15" width="152" fill="url(#linear-gradient)" />
</g>

    	<animateTransform
        attributeName="transform"
        from="-150"
        to="0"
        dur="1s"
        repeatCount="indefinite"/>

</g>
</svg>