<?xml version="1.0" encoding="utf-8"?>
<!-- Generator: Adobe Illustrator 15.1.0, SVG Export Plug-In . SVG Version: 6.00 Build 0)  -->
<!DOCTYPE svg PUBLIC "-//W3C//DTD SVG 1.1//EN" "http://www.w3.org/Graphics/SVG/1.1/DTD/svg11.dtd">
<svg version="1.1" id="Layer_01" xmlns:agg="http://www.example.com"
	 xmlns="http://www.w3.org/2000/svg"  x="0px" y="0px" width="49.063px"
	 height="58.906px" viewBox="1.39 0 49.063 58.906" xml:space="preserve">
	 
<agg:params>
	<agg:param name="color" description="Color" type="C" cssAttributes="fill" classes="color"/>
	<agg:param type="F" name="saturation" description="Saturation" min="0" max="1" cssAttributes="opacity" classes="color"/>
</agg:params>

<style type="text/css" >
   <![CDATA[

	.stroke{
		stroke-width:0.3;
		stroke-linecap:round;
		stroke-linejoin:round;
		stroke: black;
		fill:none;
		opacity:0.5;
	}
	
	.color {
		fill:#3664BF;
		opacity:0.2;
	}

      ]]>
</style>
	 
<linearGradient id="segment" gradientUnits="userSpaceOnUse" x1="25.2197" y1="57.5332" x2="25.2197" y2="1.4238">
	<stop  offset="0" style="stop-color:#4D5C75"/>
	<stop  offset="0.0313" style="stop-color:#616F85"/>
	<stop  offset="0.1108" style="stop-color:#8E99A9"/>
	<stop  offset="0.1908" style="stop-color:#B4BCC7"/>
	<stop  offset="0.27" style="stop-color:#D1D7DE"/>
	<stop  offset="0.3485" style="stop-color:#E5EAEF"/>
	<stop  offset="0.4256" style="stop-color:#F2F6F9"/>
	<stop  offset="0.5" style="stop-color:#F6FAFC"/>
	<stop  offset="0.5744" style="stop-color:#F2F6F9"/>
	<stop  offset="0.6515" style="stop-color:#E5EAEF"/>
	<stop  offset="0.73" style="stop-color:#D1D7DE"/>
	<stop  offset="0.8092" style="stop-color:#B4BCC7"/>
	<stop  offset="0.8892" style="stop-color:#8E99A9"/>
	<stop  offset="0.9687" style="stop-color:#616F85"/>
	<stop  offset="1" style="stop-color:#4D5C75"/>
</linearGradient>

<path fill="url(#segment)" d="M37.891,26.063c2.51-2.33,4.949-4.71,7.139-7.37c-1.719-2.49-3.459-4.96-5.039-7.54
	c0.1-0.35,0.18-0.69,0.24-1.05c0.06-0.35,0.1-0.71,0.109-1.07c0.03-0.65-0.029-1.3-0.189-1.92c-0.16-0.62-0.41-1.21-0.75-1.75
	s-0.76-1.03-1.23-1.45c-0.609-0.4-1.22-0.79-1.859-1.14c-0.48-0.27-0.98-0.52-1.5-0.73c-0.431-0.18-0.881-0.33-1.34-0.44
	c-0.391-0.09-0.791-0.15-1.191-0.17c-0.159-0.01-0.329-0.01-0.489,0v-0.01c-10.134,0-20.268,0-30.402,0v56.11
	c9.184,0,18.368,0,27.552,0v-0.01c0.03,0.01,0.05,0.01,0.08,0.01c0.13,0,0.25-0.01,0.37-0.029c0.14-0.021,0.27-0.061,0.4-0.101
	c0.3-0.1,0.58-0.25,0.86-0.41c0.22-0.14,0.439-0.279,0.66-0.43c0.129-0.08,0.26-0.17,0.379-0.26c0.61-0.42,1.221-0.84,1.84-1.261
	c0.49-0.329,0.99-0.659,1.5-0.989c1.15-0.74,2.311-1.44,3.49-2.13l5.951-12.74c1.59-1.58,3.109-3.21,4.579-4.9
	C45.081,31.403,42.01,28.713,37.891,26.063z"/>

<path opacity="0.5" fill="#FFFFFF" d="M33.92,7.253c0.641,0.19,1.24,0.51,1.77,0.92c0.49,0.39,0.91,0.87,1.24,1.41
	c0.33,0.56,0.561,1.18,0.68,1.82c1.24,2.45,2.65,4.8,4.041,7.16c-1.45,2.56-3.26,4.79-5.19,6.97c-0.271,0.31-0.55,0.62-0.83,0.93
	c0.55,0.37,1.091,0.75,1.64,1.13c0.541,0.38,1.08,0.75,1.621,1.13c0.5,0.36,1,0.72,1.5,1.08c0.5,0.36,1,0.72,1.489,1.08
	c1.71,1.27,2.399,2.56,4.05,3.91c-1.59,1.62-2.24,3.17-3.959,4.67c-1.511,2.199-3.08,4.369-4.691,6.51
	c-0.189,0.43-0.409,0.85-0.659,1.25c-0.25,0.41-0.54,0.79-0.86,1.149c-0.619,0.71-1.359,1.32-2.16,1.83
	c-0.879,0.551-1.85,0.98-2.85,1.271c-0.5,0.149-1.01,0.26-1.53,0.34c-0.48,0.07-0.96,0.11-1.44,0.11c-0.39,0-0.79-0.03-1.18-0.091
	c-0.34-0.06-0.67-0.14-0.99-0.26c-0.28-0.1-0.54-0.24-0.78-0.41c-0.2-0.159-0.38-0.34-0.51-0.55c-0.13-0.21-0.21-0.439-0.25-0.68
	c-0.04-0.26-0.02-0.53,0.04-0.79c0.06-0.3,0.17-0.601,0.31-0.88c0.16-0.32,0.35-0.63,0.55-0.92c-1.76-1.99-3.44-4.051-5.07-6.15
	c0.64-0.42,1.28-0.84,1.92-1.24c0.82-0.52,1.64-1.02,2.47-1.51c-0.29-0.32-0.58-0.64-0.86-0.97c-0.28-0.32-0.56-0.65-0.84-0.99
	c-0.57-0.69-1.13-1.39-1.67-2.11c-1.16-1.55-2.25-3.16-3.28-4.8c0.07-0.57,0.14-1.14,0.23-1.71c0.09-0.57,0.18-1.14,0.29-1.7
	c0.19-1.02,0.42-2.04,0.69-3.04c0.49-1.83,1.13-3.62,1.97-5.32c2.27-1.38,4.54-2.78,6.73-4.3c0.58-0.39,1.15-0.8,1.71-1.21
	c-0.09-0.36-0.16-0.72-0.2-1.09c-0.03-0.3-0.05-0.61-0.03-0.91c0.01-0.3,0.05-0.61,0.13-0.9c0.07-0.25,0.16-0.48,0.27-0.71
	c0.12-0.22,0.26-0.42,0.43-0.61c0.169-0.18,0.371-0.35,0.58-0.49c0.221-0.14,0.471-0.26,0.721-0.34c0.27-0.1,0.55-0.16,0.84-0.19
	C32.641,6.994,33.3,7.063,33.92,7.253z"/>
<path opacity="0.3" d="M44.471,39.184c1.59-1.58,3.109-3.21,4.579-4.9c-3.97-2.88-7.04-5.57-11.159-8.22
	c2.51-2.33,4.949-4.71,7.139-7.37c-1.719-2.49-3.459-4.96-5.039-7.54c0.1-0.35,0.18-0.69,0.24-1.05c0.06-0.35,0.1-0.71,0.109-1.07
	c0.03-0.65-0.029-1.3-0.189-1.92c-0.16-0.62-0.41-1.21-0.75-1.75s-0.76-1.03-1.23-1.45c-0.609-0.4-1.22-0.79-1.859-1.14
	c-0.48-0.27-0.98-0.52-1.5-0.73c-0.431-0.18-0.881-0.33-1.34-0.44c-0.391-0.09-0.791-0.15-1.191-0.17
	c-0.159-0.01-0.329-0.01-0.489,0c-0.28,0-0.55,0.02-0.819,0.05c-0.461,0.07-0.921,0.17-1.371,0.3c-0.55,0.16-1.1,0.36-1.63,0.58
	c-0.66,0.27-1.31,0.57-1.96,0.89c-0.21,0.23-0.39,0.48-0.55,0.75c-0.17,0.3-0.31,0.62-0.41,0.95c-0.09,0.32-0.15,0.64-0.18,0.97
	c-0.03,0.39-0.03,0.78,0.01,1.16c0.04,0.42,0.11,0.83,0.21,1.24c0.11,0.44,0.24,0.87,0.4,1.29c0.37,1.02,0.85,1.99,1.38,2.94
	c-3.08,1.82-6.24,3.49-9.43,5.12c-1.35,4.04-1.86,8.08-2.06,12.29c1.72,3.14,3.6,6.14,5.8,8.99c-1.61,0.811-3.2,1.65-4.78,2.511
	c1.74,2.1,3.51,4.17,5.27,6.25c-0.29,0.22-0.59,0.46-0.87,0.699c-0.26,0.21-0.51,0.431-0.76,0.65c-0.44,0.41-0.88,0.83-1.28,1.28
	c-0.34,0.37-0.65,0.77-0.93,1.18c-0.23,0.34-0.43,0.7-0.58,1.08c0.73,0.3,1.45,0.61,2.17,0.93c0.63,0.271,1.25,0.55,1.88,0.83
	c0.62,0.271,1.23,0.55,1.85,0.84c0.8,0.37,1.59,0.74,2.39,1.12c0.18,0.08,0.37,0.17,0.55,0.25c0.33,0.15,0.66,0.3,0.99,0.44
	c0.21,0.09,0.42,0.17,0.63,0.24c0.16,0.06,0.32,0.109,0.49,0.159c0.24,0.061,0.49,0.11,0.74,0.11c0.03,0.01,0.05,0.01,0.08,0.01
	c0.13,0,0.25-0.01,0.37-0.029c0.14-0.021,0.27-0.061,0.4-0.101c0.3-0.1,0.58-0.25,0.86-0.41c0.22-0.14,0.439-0.279,0.66-0.43
	c0.129-0.08,0.26-0.17,0.379-0.26c0.61-0.42,1.221-0.84,1.84-1.261c0.49-0.329,0.99-0.659,1.5-0.989c1.15-0.74,2.311-1.44,3.49-2.13
	 M41.971,39.464c-1.511,2.199-3.08,4.369-4.691,6.51c-0.189,0.43-0.409,0.85-0.659,1.25c-0.25,0.41-0.54,0.79-0.86,1.149
	c-0.619,0.71-1.359,1.32-2.16,1.83c-0.879,0.551-1.85,0.98-2.85,1.271c-0.5,0.149-1.01,0.26-1.53,0.34
	c-0.48,0.07-0.96,0.11-1.44,0.11c-0.39,0-0.79-0.03-1.18-0.091c-0.34-0.06-0.67-0.14-0.99-0.26c-0.28-0.1-0.54-0.24-0.78-0.41
	c-0.2-0.159-0.38-0.34-0.51-0.55c-0.13-0.21-0.21-0.439-0.25-0.68c-0.04-0.26-0.02-0.53,0.04-0.79c0.06-0.3,0.17-0.601,0.31-0.88
	c0.16-0.32,0.35-0.63,0.55-0.92c-1.76-1.99-3.44-4.051-5.07-6.15c0.64-0.42,1.28-0.84,1.92-1.24c0.82-0.52,1.64-1.02,2.47-1.51
	c-0.29-0.32-0.58-0.64-0.86-0.97c-0.28-0.32-0.56-0.65-0.84-0.99c-0.57-0.69-1.13-1.39-1.67-2.11c-1.16-1.55-2.25-3.16-3.28-4.8
	c0.07-0.57,0.14-1.14,0.23-1.71c0.09-0.57,0.18-1.14,0.29-1.7c0.19-1.02,0.42-2.04,0.69-3.04c0.49-1.83,1.13-3.62,1.97-5.32
	c2.27-1.38,4.54-2.78,6.73-4.3c0.58-0.39,1.15-0.8,1.71-1.21c-0.09-0.36-0.16-0.72-0.2-1.09c-0.03-0.3-0.05-0.61-0.03-0.91
	c0.01-0.3,0.05-0.61,0.13-0.9c0.07-0.25,0.16-0.48,0.27-0.71c0.12-0.22,0.26-0.42,0.43-0.61c0.169-0.18,0.371-0.35,0.58-0.49
	c0.221-0.14,0.471-0.26,0.721-0.34c0.27-0.1,0.55-0.16,0.84-0.19c0.641-0.06,1.3,0.01,1.92,0.2c0.641,0.19,1.24,0.51,1.77,0.92
	c0.49,0.39,0.91,0.87,1.24,1.41c0.33,0.56,0.561,1.18,0.68,1.82c1.24,2.45,2.65,4.8,4.041,7.16c-1.45,2.56-3.26,4.79-5.19,6.97
	c-0.271,0.31-0.55,0.62-0.83,0.93c0.55,0.37,1.091,0.75,1.64,1.13c0.541,0.38,1.08,0.75,1.621,1.13c0.5,0.36,1,0.72,1.5,1.08
	c0.5,0.36,1,0.72,1.489,1.08c1.71,1.27,2.399,2.56,4.05,3.91C44.34,36.413,43.69,37.964,41.971,39.464z"/>
	
<path class="color" d="M37.891,26.063c2.51-2.33,4.949-4.71,7.139-7.37c-1.719-2.49-3.459-4.96-5.039-7.54
	c0.1-0.35,0.18-0.69,0.24-1.05c0.06-0.35,0.1-0.71,0.109-1.07c0.03-0.65-0.029-1.3-0.189-1.92c-0.16-0.62-0.41-1.21-0.75-1.75
	s-0.76-1.03-1.23-1.45c-0.609-0.4-1.22-0.79-1.859-1.14c-0.48-0.27-0.98-0.52-1.5-0.73c-0.431-0.18-0.881-0.33-1.34-0.44
	c-0.391-0.09-0.791-0.15-1.191-0.17c-0.159-0.01-0.329-0.01-0.489,0v-0.01c-10.134,0-20.268,0-30.402,0v56.11
	c9.184,0,18.368,0,27.552,0v-0.01c0.03,0.01,0.05,0.01,0.08,0.01c0.13,0,0.25-0.01,0.37-0.029c0.14-0.021,0.27-0.061,0.4-0.101
	c0.3-0.1,0.58-0.25,0.86-0.41c0.22-0.14,0.439-0.279,0.66-0.43c0.129-0.08,0.26-0.17,0.379-0.26c0.61-0.42,1.221-0.84,1.84-1.261
	c0.49-0.329,0.99-0.659,1.5-0.989c1.15-0.74,2.311-1.44,3.49-2.13l5.951-12.74c1.59-1.58,3.109-3.21,4.579-4.9
	C45.081,31.403,42.01,28.713,37.891,26.063z"/>
	
<g class="stroke">
<path d="M1.388,57.533c9.184,0,18.368,0,27.552,0v-0.01
	c0.03,0.01,0.05,0.01,0.08,0.01c0.13,0,0.25-0.01,0.37-0.029c0.14-0.021,0.27-0.061,0.4-0.101c0.3-0.1,0.58-0.25,0.86-0.41
	c0.22-0.14,0.439-0.279,0.66-0.43c0.129-0.08,0.26-0.17,0.379-0.26c0.61-0.42,1.221-0.84,1.84-1.261
	c0.49-0.329,0.99-0.659,1.5-0.989c1.15-0.74,2.311-1.44,3.49-2.13l5.951-12.74c1.59-1.58,3.109-3.21,4.579-4.9
	c-3.97-2.88-7.04-5.57-11.159-8.22c2.51-2.33,4.949-4.71,7.139-7.37c-1.719-2.49-3.459-4.96-5.039-7.54
	c0.1-0.35,0.18-0.69,0.24-1.05c0.06-0.35,0.1-0.71,0.109-1.07c0.03-0.65-0.029-1.3-0.189-1.92c-0.16-0.62-0.41-1.21-0.75-1.75
	s-0.76-1.03-1.23-1.45c-0.609-0.4-1.22-0.79-1.859-1.14c-0.48-0.27-0.98-0.52-1.5-0.73c-0.431-0.18-0.881-0.33-1.34-0.44
	c-0.391-0.09-0.791-0.15-1.191-0.17c-0.159-0.01-0.329-0.01-0.489,0v-0.01c-10.134,0-20.268,0-30.402,0"/>
<path d="M33.92,7.253c0.641,0.19,1.24,0.51,1.77,0.92
	c0.49,0.39,0.91,0.87,1.24,1.41c0.33,0.56,0.561,1.18,0.68,1.82c1.24,2.45,2.65,4.8,4.041,7.16c-1.45,2.56-3.26,4.79-5.19,6.97
	c-0.271,0.31-0.55,0.62-0.83,0.93c0.55,0.37,1.091,0.75,1.64,1.13c0.541,0.38,1.08,0.75,1.621,1.13c0.5,0.36,1,0.72,1.5,1.08
	c0.5,0.36,1,0.72,1.489,1.08c1.71,1.27,2.399,2.56,4.05,3.91c-1.59,1.62-2.24,3.17-3.959,4.67c-1.511,2.199-3.08,4.369-4.691,6.51
	c-0.189,0.43-0.409,0.85-0.659,1.25c-0.25,0.41-0.54,0.79-0.86,1.149c-0.619,0.71-1.359,1.32-2.16,1.83
	c-0.879,0.551-1.85,0.98-2.85,1.271c-0.5,0.149-1.01,0.26-1.53,0.34c-0.48,0.07-0.96,0.11-1.44,0.11c-0.39,0-0.79-0.03-1.18-0.091
	c-0.34-0.06-0.67-0.14-0.99-0.26c-0.28-0.1-0.54-0.24-0.78-0.41c-0.2-0.159-0.38-0.34-0.51-0.55c-0.13-0.21-0.21-0.439-0.25-0.68
	c-0.04-0.26-0.02-0.53,0.04-0.79c0.06-0.3,0.17-0.601,0.31-0.88c0.16-0.32,0.35-0.63,0.55-0.92c-1.76-1.99-3.44-4.051-5.07-6.15
	c0.64-0.42,1.28-0.84,1.92-1.24c0.82-0.52,1.64-1.02,2.47-1.51c-0.29-0.32-0.58-0.64-0.86-0.97c-0.28-0.32-0.56-0.65-0.84-0.99
	c-0.57-0.69-1.13-1.39-1.67-2.11c-1.16-1.55-2.25-3.16-3.28-4.8c0.07-0.57,0.14-1.14,0.23-1.71c0.09-0.57,0.18-1.14,0.29-1.7
	c0.19-1.02,0.42-2.04,0.69-3.04c0.49-1.83,1.13-3.62,1.97-5.32c2.27-1.38,4.54-2.78,6.73-4.3c0.58-0.39,1.15-0.8,1.71-1.21
	c-0.09-0.36-0.16-0.72-0.2-1.09c-0.03-0.3-0.05-0.61-0.03-0.91c0.01-0.3,0.05-0.61,0.13-0.9c0.07-0.25,0.16-0.48,0.27-0.71
	c0.12-0.22,0.26-0.42,0.43-0.61c0.169-0.18,0.371-0.35,0.58-0.49c0.221-0.14,0.471-0.26,0.721-0.34c0.27-0.1,0.55-0.16,0.84-0.19
	C32.641,6.994,33.3,7.063,33.92,7.253z"/>
<path d="M44.471,39.184c1.59-1.58,3.109-3.21,4.579-4.9
	c-3.97-2.88-7.04-5.57-11.159-8.22c2.51-2.33,4.949-4.71,7.139-7.37c-1.719-2.49-3.459-4.96-5.039-7.54
	c0.1-0.35,0.18-0.69,0.24-1.05c0.06-0.35,0.1-0.71,0.109-1.07c0.03-0.65-0.029-1.3-0.189-1.92c-0.16-0.62-0.41-1.21-0.75-1.75
	s-0.76-1.03-1.23-1.45c-0.609-0.4-1.22-0.79-1.859-1.14c-0.48-0.27-0.98-0.52-1.5-0.73c-0.431-0.18-0.881-0.33-1.34-0.44
	c-0.391-0.09-0.791-0.15-1.191-0.17c-0.159-0.01-0.329-0.01-0.489,0c-0.28,0-0.55,0.02-0.819,0.05c-0.461,0.07-0.921,0.17-1.371,0.3
	c-0.55,0.16-1.1,0.36-1.63,0.58c-0.66,0.27-1.31,0.57-1.96,0.89c-0.21,0.23-0.39,0.48-0.55,0.75c-0.17,0.3-0.31,0.62-0.41,0.95
	c-0.09,0.32-0.15,0.64-0.18,0.97c-0.03,0.39-0.03,0.78,0.01,1.16c0.04,0.42,0.11,0.83,0.21,1.24c0.11,0.44,0.24,0.87,0.4,1.29
	c0.37,1.02,0.85,1.99,1.38,2.94c-3.08,1.82-6.24,3.49-9.43,5.12c-1.35,4.04-1.86,8.08-2.06,12.29c1.72,3.14,3.6,6.14,5.8,8.99
	c-1.61,0.811-3.2,1.65-4.78,2.511c1.74,2.1,3.51,4.17,5.27,6.25c-0.29,0.22-0.59,0.46-0.87,0.699c-0.26,0.21-0.51,0.431-0.76,0.65
	c-0.44,0.41-0.88,0.83-1.28,1.28c-0.34,0.37-0.65,0.77-0.93,1.18c-0.23,0.34-0.43,0.7-0.58,1.08c0.73,0.3,1.45,0.61,2.17,0.93
	c0.63,0.271,1.25,0.55,1.88,0.83c0.62,0.271,1.23,0.55,1.85,0.84c0.8,0.37,1.59,0.74,2.39,1.12c0.18,0.08,0.37,0.17,0.55,0.25
	c0.33,0.15,0.66,0.3,0.99,0.44c0.21,0.09,0.42,0.17,0.63,0.24c0.16,0.06,0.32,0.109,0.49,0.159c0.24,0.061,0.49,0.11,0.74,0.11
	c0.03,0.01,0.05,0.01,0.08,0.01c0.13,0,0.25-0.01,0.37-0.029c0.14-0.021,0.27-0.061,0.4-0.101c0.3-0.1,0.58-0.25,0.86-0.41
	c0.22-0.14,0.439-0.279,0.66-0.43c0.129-0.08,0.26-0.17,0.379-0.26c0.61-0.42,1.221-0.84,1.84-1.261
	c0.49-0.329,0.99-0.659,1.5-0.989c1.15-0.74,2.311-1.44,3.49-2.13 M41.971,39.464c-1.511,2.199-3.08,4.369-4.691,6.51
	c-0.189,0.43-0.409,0.85-0.659,1.25c-0.25,0.41-0.54,0.79-0.86,1.149c-0.619,0.71-1.359,1.32-2.16,1.83
	c-0.879,0.551-1.85,0.98-2.85,1.271c-0.5,0.149-1.01,0.26-1.53,0.34c-0.48,0.07-0.96,0.11-1.44,0.11c-0.39,0-0.79-0.03-1.18-0.091
	c-0.34-0.06-0.67-0.14-0.99-0.26c-0.28-0.1-0.54-0.24-0.78-0.41c-0.2-0.159-0.38-0.34-0.51-0.55c-0.13-0.21-0.21-0.439-0.25-0.68
	c-0.04-0.26-0.02-0.53,0.04-0.79c0.06-0.3,0.17-0.601,0.31-0.88c0.16-0.32,0.35-0.63,0.55-0.92c-1.76-1.99-3.44-4.051-5.07-6.15
	c0.64-0.42,1.28-0.84,1.92-1.24c0.82-0.52,1.64-1.02,2.47-1.51c-0.29-0.32-0.58-0.64-0.86-0.97c-0.28-0.32-0.56-0.65-0.84-0.99
	c-0.57-0.69-1.13-1.39-1.67-2.11c-1.16-1.55-2.25-3.16-3.28-4.8c0.07-0.57,0.14-1.14,0.23-1.71c0.09-0.57,0.18-1.14,0.29-1.7
	c0.19-1.02,0.42-2.04,0.69-3.04c0.49-1.83,1.13-3.62,1.97-5.32c2.27-1.38,4.54-2.78,6.73-4.3c0.58-0.39,1.15-0.8,1.71-1.21
	c-0.09-0.36-0.16-0.72-0.2-1.09c-0.03-0.3-0.05-0.61-0.03-0.91c0.01-0.3,0.05-0.61,0.13-0.9c0.07-0.25,0.16-0.48,0.27-0.71
	c0.12-0.22,0.26-0.42,0.43-0.61c0.169-0.18,0.371-0.35,0.58-0.49c0.221-0.14,0.471-0.26,0.721-0.34c0.27-0.1,0.55-0.16,0.84-0.19
	c0.641-0.06,1.3,0.01,1.92,0.2c0.641,0.19,1.24,0.51,1.77,0.92c0.49,0.39,0.91,0.87,1.24,1.41c0.33,0.56,0.561,1.18,0.68,1.82
	c1.24,2.45,2.65,4.8,4.041,7.16c-1.45,2.56-3.26,4.79-5.19,6.97c-0.271,0.31-0.55,0.62-0.83,0.93c0.55,0.37,1.091,0.75,1.64,1.13
	c0.541,0.38,1.08,0.75,1.621,1.13c0.5,0.36,1,0.72,1.5,1.08c0.5,0.36,1,0.72,1.489,1.08c1.71,1.27,2.399,2.56,4.05,3.91
	C44.34,36.413,43.69,37.964,41.971,39.464z"/>
</g>
	
</svg>
