<?xml version="1.0" encoding="utf-8"?>
<!-- Generator: Adobe Illustrator 15.0.0, SVG Export Plug-In . SVG Version: 6.00 Build 0)  -->
<!DOCTYPE svg PUBLIC "-//W3C//DTD SVG 1.1 Tiny//EN" "http://www.w3.org/Graphics/SVG/1.1/DTD/svg11-tiny.dtd">
<svg version="1.1" baseProfile="tiny" id="_x34_3-49"
	 xmlns="http://www.w3.org/2000/svg" xmlns:xlink="http://www.w3.org/1999/xlink" x="0px" y="0px" width="52.355px"
	 height="55.142px" viewBox="0 0 52.355 55.142" xml:space="preserve">
<g>
	<g>
		<path fill-rule="evenodd" fill="#596B82" d="M18.982,2.664c2.493,2.428,3.385,5.982,2.49,8.969l0.772,0.754l0.002,0.084l0,0
			l18.23,17.766c3.05-0.975,6.538-0.254,9.118,2.26c2.493,2.434,3.301,5.902,2.407,8.969l-5.335-5.193
			c-0.516-0.504-1.188-0.494-1.696-0.064l-3.687,3.787c-0.419,0.516-0.408,1.189,0.106,1.693l5.332,5.195
			c-3.047,0.977-6.535,0.256-9.031-2.174c-2.577-2.514-3.387-5.986-2.493-9.051l-18.23-17.771l0,0l-0.774-0.752
			c-3.043,0.973-6.624,0.168-9.115-2.26c-2.493-2.43-3.389-5.986-2.493-9.057l5.417,5.283c0.429,0.418,1.195,0.492,1.612-0.021
			l3.687-3.783c0.504-0.434,0.411-1.195-0.019-1.617L9.948,0.402C12.91-0.57,16.485,0.232,18.982,2.664z"/>
		<path fill-rule="evenodd" fill="#C4D4E5" stroke="#475E75" stroke-width="0.78" d="M17.441,3.748
			c2.577,2.43,3.387,5.984,2.493,8.969l0.774,0.754l0,0l0.086,0.084L38.939,31.32c3.044-0.973,6.619-0.254,9.115,2.176
			c2.493,2.516,3.387,5.986,2.493,9.055l-5.418-5.279c-0.43-0.418-1.193-0.408-1.612,0.02l-3.688,3.785
			c-0.505,0.43-0.408,1.195,0.021,1.695l5.335,5.199c-2.963,0.971-6.536,0.254-9.031-2.264c-2.494-2.428-3.388-5.898-2.494-8.967
			L15.512,18.973l0,0l-0.858-0.84c-3.047,1.059-6.538,0.258-9.112-2.174c-2.497-2.514-3.308-5.986-2.412-9.053l5.332,5.277
			c0.514,0.422,1.197,0.414,1.699-0.02l3.69-3.785c0.417-0.428,0.405-1.193-0.108-1.609L8.408,1.486
			C11.452,0.514,14.943,1.23,17.441,3.748z"/>
	</g>
	<g>
		<linearGradient id="SVGID_1_" gradientUnits="userSpaceOnUse" x1="26.811" y1="17.7891" x2="28.2704" y2="18.8387">
			<stop  offset="0" style="stop-color:#A3A3AC"/>
			<stop  offset="0.533" style="stop-color:#E6EBF2"/>
			<stop  offset="0.7826" style="stop-color:#ACAFB6"/>
			<stop  offset="1" style="stop-color:#77777F"/>
		</linearGradient>
		<path fill-rule="evenodd" fill="url(#SVGID_1_)" stroke="#475E75" stroke-width="0.52" d="M33.114,7.771
			c-0.165,0.172-0.159,0.512,0.013,0.848c-0.083,0.086-0.073,0.342-0.154,0.512L17.574,30.313c-0.247,0.346-0.41,0.688-0.326,0.771
			l1.553,1.158c0.085,0.082,0.419-0.178,0.666-0.521l15.397-21.182c0.081-0.17,0.335-0.26,0.327-0.43l0.854-0.189l1.866-4.363
			L36.625,4.73L33.114,7.771z"/>
		<linearGradient id="SVGID_2_" gradientUnits="userSpaceOnUse" x1="8.1997" y1="40.333" x2="12.8539" y2="43.507">
			<stop  offset="0.0056" style="stop-color:#231E2C"/>
			<stop  offset="0.0981" style="stop-color:#332F36"/>
			<stop  offset="0.2135" style="stop-color:#423F40"/>
			<stop  offset="0.5056" style="stop-color:#888D8D"/>
			<stop  offset="0.5934" style="stop-color:#767A7A"/>
			<stop  offset="0.7709" style="stop-color:#46494A"/>
			<stop  offset="0.8034" style="stop-color:#3D3F40"/>
			<stop  offset="0.9041" style="stop-color:#2B2D34"/>
			<stop  offset="1" style="stop-color:#1E212C"/>
		</linearGradient>
		<path fill-rule="evenodd" fill="url(#SVGID_2_)" stroke="#282828" stroke-width="0.78" d="M0.529,49.742L14.59,29.775
			c0.251-0.26,0.673-0.354,1.017-0.105l5.424,3.805c0.343,0.248,0.437,0.672,0.19,1.016L7.156,54.455
			c-0.243,0.35-0.669,0.357-1.014,0.191l-5.423-3.891C0.376,50.596,0.282,50.088,0.529,49.742z"/>
	</g>
</g>
</svg>