<?xml version="1.0" encoding="utf-8"?>
<!-- Generator: Adobe Illustrator 15.0.0, SVG Export Plug-In . SVG Version: 6.00 Build 0)  -->
<!DOCTYPE svg PUBLIC "-//W3C//DTD SVG 1.0//EN" "http://www.w3.org/TR/2001/REC-SVG-20010904/DTD/svg10.dtd">
<svg version="1.0" id="Borland_OK_button-2" xmlns="http://www.w3.org/2000/svg" xmlns:xlink="http://www.w3.org/1999/xlink"
	 x="0px" y="0px" width="75.32px" height="72.714px" viewBox="0 0 75.32 72.714" enable-background="new 0 0 75.32 72.714"
	 xml:space="preserve">
<g id="_x30_1-07">
	<g>
		<g>
			<g>
				<path fill="#141419" d="M75.32,50.604c0,12.213-9.898,22.11-22.109,22.11H22.109C9.896,72.714,0,62.816,0,50.604V22.112
					C0,9.899,9.896,0,22.109,0h31.102C65.422,0,75.32,9.899,75.32,22.112V50.604z"/>
				<path fill="#14141A" d="M70.69,48.087c0,10.748-8.71,19.457-19.456,19.457h-27.37c-10.748,0-19.456-8.709-19.456-19.457V25.979
					c0-10.748,8.708-19.458,19.456-19.458h27.37c10.746,0,19.456,8.711,19.456,19.458V48.087z"/>
				<g>
					
						<linearGradient id="SVGID_1_" gradientUnits="userSpaceOnUse" x1="151.0095" y1="-90.7734" x2="151.0095" y2="-128.2393" gradientTransform="matrix(1 0 0 -1 -113.3501 -92.3057)">
						<stop  offset="0" style="stop-color:#46464B"/>
						<stop  offset="0.289" style="stop-color:#35353A"/>
						<stop  offset="0.6984" style="stop-color:#242429"/>
						<stop  offset="1" style="stop-color:#1E1E23"/>
					</linearGradient>
					<path fill="url(#SVGID_1_)" d="M6.499,20.868v-0.021c0-7.655,6.974-13.887,15.542-13.887h31.236
						c8.565,0,15.543,6.232,15.543,13.887v0.021c0,7.655-6.978,8.107-15.543,8.107H22.042C13.472,28.975,6.499,28.523,6.499,20.868z
						"/>
				</g>
				
					<linearGradient id="SVGID_2_" gradientUnits="userSpaceOnUse" x1="123.7185" y1="-101.8765" x2="178.2986" y2="-101.8765" gradientTransform="matrix(1 0 0 -1 -113.3501 -92.3057)">
					<stop  offset="0.125" style="stop-color:#727779"/>
					<stop  offset="0.1685" style="stop-color:#E8E8E9"/>
					<stop  offset="0.212" style="stop-color:#9FA1A5"/>
					<stop  offset="0.3587" style="stop-color:#51515D"/>
				</linearGradient>
				<path fill="url(#SVGID_2_)" d="M21.078,8.484H54.24c4.088,0,7.822,1.417,10.709,3.745c-2.852-3.25-7.02-5.317-11.672-5.317
					H22.042c-4.65,0-8.821,2.067-11.673,5.317C13.254,9.901,16.99,8.484,21.078,8.484z"/>
				
					<linearGradient id="SVGID_3_" gradientUnits="userSpaceOnUse" x1="151.0095" y1="-159.436" x2="151.0095" y2="-151.5298" gradientTransform="matrix(1 0 0 -1 -113.3501 -92.3057)">
					<stop  offset="0.6087" style="stop-color:#25252B"/>
					<stop  offset="1" style="stop-color:#141419"/>
				</linearGradient>
				<path fill="url(#SVGID_3_)" d="M7.092,59.224c2.893,4.73,8.094,7.906,14.032,7.906h33.071c5.938,0,11.139-3.176,14.031-7.906
					H7.092z"/>
			</g>
			<g>
				<path fill="#FFFFFF" d="M48.281,44.314c0,1.41-0.377,2.52-1.131,3.328s-1.787,1.213-3.101,1.213c-1.315,0-2.35-0.409-3.1-1.229
					c-0.75-0.818-1.125-1.922-1.125-3.313c0-1.402,0.375-2.511,1.125-3.325c0.75-0.813,1.783-1.222,3.1-1.222
					c1.313,0,2.347,0.404,3.101,1.216S48.281,42.904,48.281,44.314z M46.02,44.309c0-0.521-0.054-0.962-0.16-1.327
					c-0.107-0.365-0.252-0.665-0.432-0.898c-0.188-0.238-0.398-0.41-0.636-0.514c-0.236-0.104-0.481-0.154-0.735-0.154
					c-0.271,0-0.515,0.047-0.732,0.144c-0.218,0.096-0.43,0.267-0.633,0.513c-0.18,0.227-0.324,0.527-0.437,0.902
					c-0.111,0.375-0.168,0.822-0.168,1.342c0,0.535,0.054,0.979,0.158,1.333c0.105,0.354,0.25,0.649,0.435,0.888
					c0.188,0.242,0.399,0.416,0.639,0.52s0.484,0.154,0.738,0.154c0.258,0,0.508-0.056,0.75-0.166
					c0.241-0.111,0.45-0.284,0.627-0.52c0.188-0.254,0.332-0.55,0.434-0.888C45.97,45.298,46.02,44.855,46.02,44.309z"/>
				<path fill="#FFFFFF" d="M57.223,48.673h-2.648l-2.379-3.545l-0.428,0.599v2.946h-2.191v-8.725h2.191v3.873l2.789-3.873h2.537
					l-3.111,4.049L57.223,48.673z"/>
			</g>
			
				<linearGradient id="SVGID_4_" gradientUnits="userSpaceOnUse" x1="149.2468" y1="-114.98" x2="151.6557" y2="-142.514" gradientTransform="matrix(1 0 0 -1 -113.3501 -92.3057)">
				<stop  offset="0" style="stop-color:#E6EBF2"/>
				<stop  offset="0.0295" style="stop-color:#D6EAC0"/>
				<stop  offset="0.0608" style="stop-color:#C7E994"/>
				<stop  offset="0.0944" style="stop-color:#BAE86C"/>
				<stop  offset="0.1297" style="stop-color:#AFE84A"/>
				<stop  offset="0.1673" style="stop-color:#A6E72F"/>
				<stop  offset="0.208" style="stop-color:#9FE71A"/>
				<stop  offset="0.2534" style="stop-color:#9AE60B"/>
				<stop  offset="0.307" style="stop-color:#97E603"/>
				<stop  offset="0.3901" style="stop-color:#96E600"/>
				<stop  offset="1" style="stop-color:#005E00"/>
			</linearGradient>
			<path fill="url(#SVGID_4_)" d="M38.241,46.323c-2.271,3.052-2.729,3.56-2.751,3.583c-0.447,0.447-1.043,0.688-1.666,0.684
				c-0.629,0.002-1.225-0.238-1.623-0.643L21.175,40.71c-0.29-0.241-0.33-0.67-0.092-0.963l4.55-5.545
				c0.118-0.144,0.29-0.234,0.476-0.247c0.185-0.017,0.369,0.045,0.509,0.167c0,0,5.558,4.891,6.508,5.733
				c0.833-1.126,13.234-17.865,13.234-17.865c0.108-0.15,0.279-0.247,0.461-0.271c0.186-0.026,0.375,0.026,0.518,0.142l5.101,4.03
				c0.291,0.232,0.397,0.688,0.18,0.986c0,0-3.58,4.955-8.1,11.035c0,0-3.181-0.189-5.335,2.196
				C37.425,42.054,37.676,45.193,38.241,46.323z"/>
		</g>
	</g>
</g>
</svg>