<?xml version="1.0" encoding="utf-8"?>
<!-- Generator: Adobe Illustrator 15.0.0, SVG Export Plug-In . SVG Version: 6.00 Build 0)  -->
<!DOCTYPE svg PUBLIC "-//W3C//DTD SVG 1.0//EN" "http://www.w3.org/TR/2001/REC-SVG-20010904/DTD/svg10.dtd">
<svg version="1.0" id="HistData_Icon-2" xmlns="http://www.w3.org/2000/svg" xmlns:xlink="http://www.w3.org/1999/xlink" x="0px"
	 y="0px" width="75.318px" height="72.714px" viewBox="0 0 75.318 72.714" enable-background="new 0 0 75.318 72.714"
	 xml:space="preserve">
<g>
	<g>
		<g>
			<path fill="#141419" d="M75.319,50.604c0,12.213-9.896,22.11-22.106,22.11H22.108C9.896,72.714,0,62.816,0,50.604V22.112
				C0,9.899,9.896,0,22.108,0h31.104c12.211,0,22.106,9.899,22.106,22.112V50.604z"/>
			<path fill="#15151A" d="M70.61,47.979c0,11.146-8.711,20.181-19.457,20.181H23.784c-10.748,0-19.457-9.035-19.457-20.181V25.047
				c0-11.147,8.709-20.182,19.457-20.182h27.368c10.746,0,19.457,9.035,19.457,20.182V47.979z"/>
			<g>
				
					<linearGradient id="SVGID_1_" gradientUnits="userSpaceOnUse" x1="151.009" y1="-90.7734" x2="151.009" y2="-128.2393" gradientTransform="matrix(1 0 0 -1 -113.3501 -92.3057)">
					<stop  offset="0" style="stop-color:#46464B"/>
					<stop  offset="0.289" style="stop-color:#35353A"/>
					<stop  offset="0.6984" style="stop-color:#242429"/>
					<stop  offset="1" style="stop-color:#1E1E23"/>
				</linearGradient>
				<path fill="url(#SVGID_1_)" d="M6.499,20.868v-0.021c0-7.655,6.973-13.887,15.543-13.887h31.233
					c8.568,0,15.543,6.232,15.543,13.887v0.021c0,7.655-6.975,8.107-15.543,8.107H22.042C13.472,28.975,6.499,28.523,6.499,20.868z"
					/>
			</g>
			
				<linearGradient id="SVGID_2_" gradientUnits="userSpaceOnUse" x1="123.718" y1="-101.8765" x2="178.3" y2="-101.8765" gradientTransform="matrix(1 0 0 -1 -113.3501 -92.3057)">
				<stop  offset="0.125" style="stop-color:#727779"/>
				<stop  offset="0.1685" style="stop-color:#E8E8E9"/>
				<stop  offset="0.212" style="stop-color:#9FA1A5"/>
				<stop  offset="0.3587" style="stop-color:#51515D"/>
			</linearGradient>
			<path fill="url(#SVGID_2_)" d="M21.078,8.484h33.163c4.088,0,7.821,1.417,10.709,3.745c-2.853-3.25-7.021-5.317-11.675-5.317
				H22.042c-4.652,0-8.822,2.067-11.674,5.317C13.254,9.901,16.99,8.484,21.078,8.484z"/>
			
				<linearGradient id="SVGID_3_" gradientUnits="userSpaceOnUse" x1="151.01" y1="-159.436" x2="151.01" y2="-151.5298" gradientTransform="matrix(1 0 0 -1 -113.3501 -92.3057)">
				<stop  offset="0.6087" style="stop-color:#25252B"/>
				<stop  offset="1" style="stop-color:#141419"/>
			</linearGradient>
			<path fill="url(#SVGID_3_)" d="M7.092,59.224c2.892,4.73,8.093,7.906,14.032,7.906h33.069c5.939,0,11.142-3.176,14.033-7.906
				H7.092z"/>
		</g>
		<g>
			<path fill="#B4B4B4" d="M21.673,39.535h5.158l0.703-0.679h-5.86c-0.188,0-0.338,0.151-0.338,0.34
				C21.335,39.384,21.486,39.535,21.673,39.535z"/>
			<path fill="#B4B4B4" d="M48.481,32.749h-9.665c0.171,0.198,0.37,0.43,0.586,0.678h8.76
				C48.268,33.201,48.374,32.976,48.481,32.749z"/>
			<path fill="#B4B4B4" d="M21.673,33.426h11.479l0.702-0.678H21.673c-0.188,0-0.338,0.152-0.338,0.339
				C21.335,33.275,21.486,33.426,21.673,33.426z"/>
			<path fill="#B4B4B4" d="M33.795,38.856c-0.228,0.22-0.46,0.445-0.702,0.679h5.834c-0.198-0.229-0.395-0.455-0.586-0.679H33.795z"
				/>
			<path fill="#B4B4B4" d="M52.974,33.426h6.707c0.188,0,0.339-0.151,0.339-0.339c0-0.187-0.15-0.339-0.339-0.339h-6.384
				L52.974,33.426z"/>
			<path fill="#B4B4B4" d="M26.771,45.644h17.501c-0.11-0.087-0.221-0.176-0.314-0.285c0,0-0.13-0.15-0.34-0.395H27.473
				C27.232,45.199,26.998,45.423,26.771,45.644z"/>
			<path fill="#FFFFFF" d="M17.46,21.267c-0.609,0-1.104,0.608-1.104,1.358v25.451c0,0.75,0.494,1.356,1.104,1.356
				c0.608,0,1.103-0.606,1.103-1.356V22.625C18.563,21.875,18.069,21.267,17.46,21.267z"/>
			<path fill="#B4B4B4" d="M59.681,38.856H50.41l-0.321,0.679h9.592c0.188,0,0.339-0.15,0.339-0.339
				C60.02,39.009,59.868,38.856,59.681,38.856z"/>
			<path fill="#B4B4B4" d="M59.681,44.964H47.509c-0.144,0.266-0.336,0.498-0.567,0.679h12.739c0.188,0,0.339-0.151,0.339-0.339
				S59.868,44.964,59.681,44.964z"/>
			<path fill="#B4B4B4" d="M45.276,39.535c0.102-0.212,0.207-0.438,0.32-0.679H44.09c0.203,0.235,0.396,0.46,0.586,0.679H45.276z"/>
			<path fill="#B4B4B4" d="M20.995,27.319h30.051c0.111-0.235,0.216-0.458,0.321-0.679H20.995c-0.188,0-0.34,0.152-0.34,0.339
				C20.655,27.167,20.807,27.319,20.995,27.319z"/>
			<path fill="#FFFFFF" d="M58.381,49.626H20.712c-0.75,0-1.358,0.433-1.358,0.967c0,0.531,0.608,0.965,1.358,0.965H58.38
				c0.748,0,1.355-0.434,1.355-0.965C59.737,50.059,59.129,49.626,58.381,49.626z"/>
			<path fill="#FF0000" d="M50.005,25.254l1.469-0.558c0,0,2.36-0.897,2.362-0.898l-1.08,2.285l-4.068,8.614l-2.703,5.723
				l-0.668,1.414l-1.021-1.184l-7.002-8.106c-0.207-0.241-0.506-0.386-0.822-0.399c-0.317-0.015-0.629,0.103-0.855,0.323
				c0,0-14.266,13.781-14.267,13.781c-0.224,0.213-0.349,0.5-0.354,0.811c-0.005,0.309,0.109,0.602,0.325,0.825
				c0.216,0.222,0.504,0.347,0.812,0.353c0.309,0.006,0.603-0.109,0.825-0.324L35.564,35.73l0.774-0.748l0.703,0.815
				c0,0,7.687,8.896,7.688,8.897c0.256,0.297,0.643,0.442,1.029,0.39c0.391-0.053,0.725-0.297,0.892-0.653l8.15-17.25
				c0,0,1.063-2.254,1.063-2.255l0.817,2.356c0,0,0.522,1.503,0.521,1.501c0.102,0.293,0.31,0.528,0.588,0.663
				c0.278,0.136,0.594,0.154,0.886,0.052c0.293-0.102,0.526-0.311,0.662-0.589c0.135-0.278,0.152-0.592,0.052-0.884l-2.312-6.66
				c-0.104-0.294-0.322-0.538-0.604-0.668c-0.281-0.132-0.611-0.145-0.902-0.034L49.18,23.09c-0.597,0.227-0.896,0.897-0.671,1.493
				C48.736,25.18,49.407,25.482,50.005,25.254z"/>
		</g>
	</g>
</g>
</svg>