<?xml version="1.0" encoding="utf-8"?>
<!-- Generator: Adobe Illustrator 15.0.0, SVG Export Plug-In . SVG Version: 6.00 Build 0)  -->
<!DOCTYPE svg PUBLIC "-//W3C//DTD SVG 1.0//EN" "http://www.w3.org/TR/2001/REC-SVG-20010904/DTD/svg10.dtd">
<svg version="1.0" id="Help_icon__x28_yellow_x29_-2"
	 xmlns="http://www.w3.org/2000/svg" xmlns:xlink="http://www.w3.org/1999/xlink" x="0px" y="0px" width="75.318px"
	 height="72.714px" viewBox="0 0 75.318 72.714" enable-background="new 0 0 75.318 72.714" xml:space="preserve">
<g>
	<g>
		<g>
			<path fill="#141419" d="M75.319,50.604c0,12.213-9.896,22.11-22.106,22.11H22.108C9.896,72.714,0,62.816,0,50.604V22.112
				C0,9.899,9.896,0,22.108,0h31.104c12.211,0,22.106,9.899,22.106,22.112V50.604z"/>
			<path fill="#15151A" d="M70.707,47.979c0,11.146-8.711,20.181-19.457,20.181H23.88c-10.748,0-19.457-9.035-19.457-20.181V25.047
				c0-11.147,8.709-20.182,19.457-20.182h27.37c10.746,0,19.457,9.035,19.457,20.182V47.979z"/>
			<g>
				
					<linearGradient id="SVGID_1_" gradientUnits="userSpaceOnUse" x1="151.009" y1="-90.7734" x2="151.009" y2="-128.2393" gradientTransform="matrix(1 0 0 -1 -113.3501 -92.3057)">
					<stop  offset="0" style="stop-color:#46464B"/>
					<stop  offset="0.289" style="stop-color:#35353A"/>
					<stop  offset="0.6984" style="stop-color:#242429"/>
					<stop  offset="1" style="stop-color:#1E1E23"/>
				</linearGradient>
				<path fill="url(#SVGID_1_)" d="M6.499,20.868v-0.021c0-7.655,6.973-13.887,15.543-13.887h31.233
					c8.568,0,15.543,6.232,15.543,13.887v0.021c0,7.655-6.975,8.107-15.543,8.107H22.042C13.472,28.975,6.499,28.523,6.499,20.868z"
					/>
			</g>
			
				<linearGradient id="SVGID_2_" gradientUnits="userSpaceOnUse" x1="123.718" y1="-101.8765" x2="178.3" y2="-101.8765" gradientTransform="matrix(1 0 0 -1 -113.3501 -92.3057)">
				<stop  offset="0.125" style="stop-color:#727779"/>
				<stop  offset="0.1685" style="stop-color:#E8E8E9"/>
				<stop  offset="0.212" style="stop-color:#9FA1A5"/>
				<stop  offset="0.3587" style="stop-color:#51515D"/>
			</linearGradient>
			<path fill="url(#SVGID_2_)" d="M21.078,8.484h33.163c4.088,0,7.821,1.417,10.709,3.745c-2.853-3.25-7.021-5.317-11.675-5.317
				H22.042c-4.652,0-8.822,2.067-11.674,5.317C13.254,9.901,16.99,8.484,21.078,8.484z"/>
			
				<linearGradient id="SVGID_3_" gradientUnits="userSpaceOnUse" x1="151.01" y1="-159.436" x2="151.01" y2="-151.5298" gradientTransform="matrix(1 0 0 -1 -113.3501 -92.3057)">
				<stop  offset="0.6087" style="stop-color:#25252B"/>
				<stop  offset="1" style="stop-color:#141419"/>
			</linearGradient>
			<path fill="url(#SVGID_3_)" d="M7.092,59.224c2.892,4.73,8.093,7.906,14.032,7.906h33.069c5.939,0,11.142-3.176,14.033-7.906
				H7.092z"/>
		</g>
		<path fill="#FFF200" stroke="#FFFFFF" d="M33.411,45.019c0-1.563,0.312-2.967,0.858-4.294c0.624-1.406,1.563-2.812,2.891-4.373
			c0.312-0.234,0.858-0.859,1.794-1.64c0.938-0.781,1.641-1.483,2.108-2.031c0.313-0.467,0.548-0.859,0.702-1.327
			c0.158-0.469,0.236-1.015,0.236-1.719c0-1.563-0.469-2.813-1.407-3.748c-0.935-0.86-2.185-1.329-3.825-1.329
			c-1.482,0-2.657,0.469-3.592,1.407c-0.86,1.015-1.329,2.265-1.329,3.904H24.43c0-3.437,1.171-6.246,3.594-8.434
			c2.421-2.187,5.467-3.279,9.138-3.279c3.75,0,6.794,1.093,9.215,3.123c2.421,2.108,3.671,4.765,3.671,7.965
			c0,2.812-1.486,5.39-4.452,7.81c-0.391,0.313-0.702,0.546-0.859,0.703c-1.562,1.25-2.578,2.422-3.201,3.515
			c-0.624,1.092-0.938,2.342-1.015,3.748L33.411,45.019L33.411,45.019z M33.411,54.859v-6.794h7.108v6.794H33.411z"/>
	</g>
</g>
</svg>