<?xml version="1.0" encoding="utf-8"?>
<!-- Generator: Adobe Illustrator 15.0.0, SVG Export Plug-In . SVG Version: 6.00 Build 0)  -->
<!DOCTYPE svg PUBLIC "-//W3C//DTD SVG 1.1 Tiny//EN" "http://www.w3.org/Graphics/SVG/1.1/DTD/svg11-tiny.dtd">
<svg version="1.1" baseProfile="tiny" id="_x30_1-07"
	 xmlns="http://www.w3.org/2000/svg" xmlns:xlink="http://www.w3.org/1999/xlink" x="0px" y="0px" width="13.289px"
	 height="52.087px" viewBox="0 0 13.289 52.087" xml:space="preserve">
<g>
	<path fill="#FFFF00" stroke="#FFDC00" stroke-width="1.56" d="M6.651,40.313c3.212,0,5.837,2.467,5.837,5.498
		c0,3.027-2.625,5.497-5.837,5.497c-3.214,0-5.836-2.469-5.836-5.497C0.815,42.779,3.438,40.313,6.651,40.313L6.651,40.313z"/>
	<path fill="#FFFF00" stroke="#FFDC00" stroke-width="1.56" d="M2.921,0.78h7.45c1.177,0,2.139,0.964,2.139,2.139l-1.154,28.04
		c0,1.176-0.961,2.141-2.139,2.141H4.279c-1.177,0-2.141-0.961-2.141-2.141L0.78,2.919C0.78,1.744,1.744,0.78,2.921,0.78L2.921,0.78
		z"/>
</g>
</svg>