<?xml version="1.0" encoding="utf-8"?>
<!-- Generator: Adobe Illustrator 15.0.0, SVG Export Plug-In . SVG Version: 6.00 Build 0)  -->
<!DOCTYPE svg PUBLIC "-//W3C//DTD SVG 1.1 Tiny//EN" "http://www.w3.org/Graphics/SVG/1.1/DTD/svg11-tiny.dtd">
<svg version="1.1" baseProfile="tiny" id="_x32_2-28"
	 xmlns="http://www.w3.org/2000/svg" xmlns:xlink="http://www.w3.org/1999/xlink" x="0px" y="0px" width="130.786px"
	 height="90.606px" viewBox="0 0 130.786 90.606" xml:space="preserve">
<g>
	<linearGradient id="SVGID_1_" gradientUnits="userSpaceOnUse" x1="95.4121" y1="32.4619" x2="104.4121" y2="51.9619">
		<stop  offset="0" style="stop-color:#DCDCD2"/>
		<stop  offset="0.4945" style="stop-color:#BEBEAF"/>
		<stop  offset="1" style="stop-color:#A0A08C"/>
	</linearGradient>
	<path fill="url(#SVGID_1_)" d="M114.504,60.221H94.137V40.771h9.557c0,0,1.592-3.09,6.032-3.138l9.846,16.651
		C119.571,54.285,118.317,58.868,114.504,60.221z"/>
	<rect x="108.846" y="37.652" fill="#A0A08C" width="10.212" height="17.281"/>
	<rect x="95.71" y="75.89" width="4.177" height="4.455"/>
	<rect x="107.963" y="77.122" width="4.217" height="3.223"/>
	<linearGradient id="SVGID_2_" gradientUnits="userSpaceOnUse" x1="113.2739" y1="76.1279" x2="113.2739" y2="81.2306">
		<stop  offset="0" style="stop-color:#3C3C3C"/>
		<stop  offset="0.5" style="stop-color:#8C8C8C"/>
		<stop  offset="1" style="stop-color:#3C3C3C"/>
	</linearGradient>
	<polygon fill="url(#SVGID_2_)" points="116.675,80.743 114.174,80.743 114.162,82.903 110.55,82.853 110.549,80.743 
		109.873,80.743 109.873,76.725 110.549,76.725 110.55,75.174 114.097,75.174 114.094,76.725 116.675,76.725 	"/>
	<rect x="114.647" y="76.725" width="0.755" height="4.019"/>
	<linearGradient id="SVGID_3_" gradientUnits="userSpaceOnUse" x1="97.1069" y1="17.3086" x2="106.1065" y2="32.6414">
		<stop  offset="0" style="stop-color:#DCDCD2"/>
		<stop  offset="0.4945" style="stop-color:#BEBEAF"/>
		<stop  offset="1" style="stop-color:#A0A08C"/>
	</linearGradient>
	<rect x="95.29" y="15.072" fill="url(#SVGID_3_)" width="12.257" height="19.164"/>
	<rect x="85.521" y="15.072" fill="#969682" width="12.257" height="19.164"/>
	<rect x="85.521" y="40.782" fill="#8C8C78" width="12.257" height="19.374"/>
	<linearGradient id="SVGID_4_" gradientUnits="userSpaceOnUse" x1="95.4072" y1="4.0811" x2="103.158" y2="20.5826">
		<stop  offset="0" style="stop-color:#96A096"/>
		<stop  offset="0.39" style="stop-color:#727F72"/>
		<stop  offset="0.7788" style="stop-color:#556455"/>
		<stop  offset="1" style="stop-color:#4A5A4A"/>
	</linearGradient>
	<rect x="94.379" y="5.217" fill="url(#SVGID_4_)" width="6.875" height="7.986"/>
	<rect x="90.862" y="5.217" fill="#4A5A4A" width="6.875" height="7.986"/>
	<g>
		<rect x="46.044" fill="#001F00" width="6.875" height="2.851"/>
		<rect x="84.441" fill="#001F00" width="6.875" height="2.851"/>
	</g>
	<linearGradient id="SVGID_5_" gradientUnits="userSpaceOnUse" x1="105.1274" y1="73.9795" x2="107.3452" y2="73.9795">
		<stop  offset="0" style="stop-color:#4A5A4A"/>
		<stop  offset="0.4835" style="stop-color:#96A096"/>
		<stop  offset="0.6849" style="stop-color:#727F72"/>
		<stop  offset="0.8858" style="stop-color:#556455"/>
		<stop  offset="1" style="stop-color:#4A5A4A"/>
	</linearGradient>
	<path fill="url(#SVGID_5_)" d="M107.685,74.958c0,0.998-0.766,1.807-1.711,1.807l0,0c-0.944,0-1.71-0.809-1.71-1.807v-1.956
		c0-0.998,0.766-1.807,1.71-1.807l0,0c0.945,0,1.711,0.809,1.711,1.807V74.958z"/>
	<linearGradient id="SVGID_6_" gradientUnits="userSpaceOnUse" x1="108.2158" y1="59.3301" x2="109.1178" y2="60.2011">
		<stop  offset="0.0056" style="stop-color:#231E2C"/>
		<stop  offset="0.0839" style="stop-color:#2B2734"/>
		<stop  offset="0.2115" style="stop-color:#413F49"/>
		<stop  offset="0.3715" style="stop-color:#65676B"/>
		<stop  offset="0.5056" style="stop-color:#888D8D"/>
		<stop  offset="0.6309" style="stop-color:#656A6D"/>
		<stop  offset="0.7923" style="stop-color:#3F424A"/>
		<stop  offset="0.9211" style="stop-color:#272A34"/>
		<stop  offset="1" style="stop-color:#1E212C"/>
	</linearGradient>
	<polygon fill="url(#SVGID_6_)" points="104.127,65.817 101.859,65.817 113.346,53.849 115.614,53.849 	"/>
	<linearGradient id="SVGID_7_" gradientUnits="userSpaceOnUse" x1="103.9653" y1="77.1719" x2="103.9653" y2="81.0569">
		<stop  offset="0" style="stop-color:#3C3C3C"/>
		<stop  offset="0.5" style="stop-color:#8C8C8C"/>
		<stop  offset="1" style="stop-color:#3C3C3C"/>
	</linearGradient>
	<polygon fill="url(#SVGID_7_)" points="109.197,82.812 99.569,82.812 99.569,81.141 98.734,81.102 98.734,75.134 109.197,75.134 	
		"/>
	<rect x="103.389" y="76.089" width="1.432" height="6.684"/>
	<linearGradient id="SVGID_8_" gradientUnits="userSpaceOnUse" x1="99.9297" y1="63.0195" x2="99.9253" y2="73.7656">
		<stop  offset="0" style="stop-color:#646464"/>
		<stop  offset="0.5" style="stop-color:#AAAAAA"/>
		<stop  offset="1" style="stop-color:#646464"/>
	</linearGradient>
	<polygon fill="url(#SVGID_8_)" points="105.021,65.905 106.056,65.944 106.056,72.667 105.021,72.708 105.021,76.804 
		93.799,76.804 93.799,61.613 105.021,61.613 	"/>
	<g>
		<rect x="98.059" y="63.12" fill="#FFFFFF" width="6.007" height="3.979"/>
		<rect x="98.059" y="62.364" fill="#87454A" width="6.007" height="1.313"/>
	</g>
	<linearGradient id="SVGID_9_" gradientUnits="userSpaceOnUse" x1="35.2671" y1="12.6465" x2="50.6001" y2="46.6465">
		<stop  offset="0" style="stop-color:#DCDCD2"/>
		<stop  offset="0.4945" style="stop-color:#BEBEAF"/>
		<stop  offset="1" style="stop-color:#A0A08C"/>
	</linearGradient>
	<polygon fill="url(#SVGID_9_)" points="96.985,65.124 95.817,65.164 95.817,73.573 96.985,73.573 96.985,88.159 2.559,88.159 
		2.559,1.46 96.985,1.46 	"/>
	<rect x="2.347" y="85.021" fill="#002900" width="124.75" height="4.411"/>
	<g>
		<rect y="88.374" fill="#758582" width="130.786" height="2.232"/>
		<rect y="84.015" fill="#758582" width="130.786" height="2.232"/>
	</g>
	<linearGradient id="SVGID_10_" gradientUnits="userSpaceOnUse" x1="110.2686" y1="31.8301" x2="116.0188" y2="49.5809">
		<stop  offset="0" style="stop-color:#E6E6F0"/>
		<stop  offset="0.5055" style="stop-color:#D6D6CC"/>
		<stop  offset="1" style="stop-color:#C8C8AA"/>
	</linearGradient>
	<polygon fill="url(#SVGID_10_)" points="120.392,54.381 109.533,54.381 109.533,35.316 116,35.316 120.392,38.262 	"/>
	<g>
		<rect x="112.959" y="42.701" fill="#4A5A4A" width="2.606" height="0.82"/>
		<rect x="113.78" y="41.832" fill="#4A5A4A" width="1.014" height="1.063"/>
	</g>
	<g>
		<rect x="6.975" y="77.517" fill="#464646" width="2.5" height="2.499"/>
		<rect x="6.975" y="41.85" fill="#464646" width="2.5" height="2.499"/>
		<rect x="6.975" y="4.184" fill="#464646" width="2.5" height="2.498"/>
	</g>
	<g>
		<rect x="89.642" y="77.517" fill="#464646" width="2.5" height="2.499"/>
		<rect x="89.642" y="41.85" fill="#464646" width="2.5" height="2.499"/>
		<rect x="89.642" y="4.184" fill="#464646" width="2.5" height="2.498"/>
	</g>
</g>
</svg>