<?xml version="1.0"?>
<svg width="63" height="140" xmlns="http://www.w3.org/2000/svg" xmlns:svg="http://www.w3.org/2000/svg">
 <!-- Created with SVG-edit - https://github.com/SVG-Edit/svgedit-->
 <g class="layer">
  <title>Layer 1</title>
  <path d="m101.31,157.58l0,-66.11c0,-8.55 -6.95,-15.47 -15.49,-15.47c-8.56,0 -15.48,6.92 -15.48,15.47l0,65.59c-9.73,5.33 -16.34,15.67 -16.34,27.55c0,17.34 14.06,31.39 31.39,31.39c17.34,0 31.39,-14.05 31.39,-31.39c0,-11.52 -6.22,-21.57 -15.47,-27.02l0,-0.01zm-15.92,53.26c-14.46,0 -26.23,-11.77 -26.23,-26.25c0,-9.58 5.23,-18.39 13.65,-23.01l2.68,-1.46l0,-68.66c0,-5.69 4.64,-10.31 10.33,-10.31c5.69,0 10.31,4.62 10.31,10.31l0,69.05l2.53,1.5c8.11,4.79 12.97,13.22 12.97,22.58c-0.01,14.47 -11.78,26.25 -26.25,26.25l0.01,0zm10.67,-44.38l-5.08,-2.99l0,-45.1l-10.32,0l0,44.8l-5.37,2.93c-6.77,3.72 -10.98,10.79 -10.98,18.48c0,11.62 9.46,21.08 21.07,21.08c11.62,0 21.07,-9.46 21.07,-21.08c0.01,-7.4 -3.98,-14.35 -10.41,-18.13l0.02,0.01z" fill="#FF0000" id="svg_217" stroke="#000000" stroke-width="0" transform="matrix(1 0 0 1 -54 -76)"/>
 </g>
</svg>