<?xml version="1.0"?>
<svg width="99" height="85" xmlns="http://www.w3.org/2000/svg" xmlns:svg="http://www.w3.org/2000/svg">
 <!-- Created with SVG-edit - https://github.com/SVG-Edit/svgedit-->
 <g class="layer" display="inline">
  <title>Layer 1</title>
  <style type="text/css">
   <![CDATA[

	.flameColor,.inlineColor,.boundaryColor{
		stroke-linecap:butt;
		stroke-linejoin:round;
		stroke: black;
		fill:none;
		stroke-width:1px;
	}

	.caseColor {
		fill:#4C5B75;
	}
	
	.flameColor {
		stroke:#CE0000;
	}
	
	.inlineColor {
		stroke:white;
		opacity:0.75;
	}
	
	.boundaryColor {
		stroke:black;
		stroke-width:1.5px;
		opacity:0.75;
	}
	
	.coldColor {
		stop-color:#29B1FF;
		fill:#29B1FF;
	}

	.hotColor {
		stop-color:#FF0000;
	}
	
	.smokeColor {
		fill:#7D7D7D
	}

      ]]>
  </style>
  <defs transform="translate(-78.24 -18.92) translate(-149.71 -81.11) translate(793.24 -77.32)">
   <path d="m222.15,193.43c8.86,0 16.03,7.19 16.03,16.05l0,28.86c-4.27,0 -8.54,0 -12.82,0l0,-32.07l-146.74,0l-12.81,51.32l-28.58,0l-29.82,-19.9l0,-40.52l50.39,-151.27l122.69,0l0,-32.07c4.27,0 8.54,0 12.81,0l0,32.07l32.06,0l0,-44.9c6.41,0 12.83,0 19.23,0l0,147.53c0,10.63 -8.61,19.25 -19.23,19.25l-32.06,0l0,25.65l28.85,0z" id="svg_28"/>
   <path d="m238.18,209.48l0,28.86c-4.27,0 -8.54,0 -12.82,0l0,-32.07l-131.41,0l0,-12.84l12.82,0l0,-128.28l-12.82,0l0,-19.25l86.54,0l0,-32.07c4.27,0 8.54,0 12.82,0l0,32.07l0,19.24l-16.03,0l0,128.29l16.03,0l28.84,0c8.86,0 16.03,7.19 16.03,16.05zm-67.3,-16.05l0,-128.28l-6.42,0l0,128.28l6.42,0zm-12.83,0l0,-128.28l-6.41,0l0,128.28l6.41,0zm-12.82,0l0,-128.28l-6.41,0l0,128.28l6.41,0zm-12.82,0l0,-128.28l-6.41,0l0,128.28l6.41,0zm-12.82,0l0,-128.28l-6.41,0l0,128.28l6.41,0z" id="svg_26"/>
   <linearGradient id="svg_3" x1="0" x2="1" y1="0" y2="0">
    <stop id="jq_stop_346" offset="0" stop-color="#333333"/>
    <stop id="jq_stop_1757" offset="1" stop-color="#ffff00"/>
   </linearGradient>
   <linearGradient id="svg_1" x1="0" x2="1" y1="0" y2="0">
    <stop id="jq_stop_3339" offset="0" stop-color="#005fbf"/>
    <stop id="jq_stop_9029" offset="1" stop-color="#00ffff" stop-opacity="1"/>
   </linearGradient>
  </defs>
  <rect fill="#000000" fill-opacity="0" height="52.24" id="svg_4" stroke="url(#svg_3)" stroke-width="0" transform="matrix(1 0 0 1 23.1343 -64.9254)" width="14.18" x="32.47" y="64.93"/>
  <path d="m-325.68,182.72l-12.31,4.38l0,-8.75l12.31,4.38l0,-0.01zm-8.94,-21.57l-5.61,11.8l-6.19,-6.19l11.8,-5.61zm-21.56,-8.93l4.38,12.31l-8.75,0l4.38,-12.31l-0.01,0zm-21.57,8.93l11.8,5.61l-6.19,6.19l-5.61,-11.8zm-8.93,21.57l12.31,-4.38l0,8.75l-12.31,-4.38l0,0.01zm8.93,21.56l5.61,-11.8l6.19,6.19l-11.8,5.61zm21.57,8.94l-4.38,-12.31l8.75,0l-4.38,12.31l0.01,0zm21.56,-8.94l-11.8,-5.61l6.19,-6.19l5.61,11.8zm-36.81,-21.56l0,0c0,-8.42 6.83,-15.25 15.25,-15.25c8.42,0 15.25,6.83 15.25,15.25c0,8.42 -6.83,15.25 -15.25,15.25c-8.42,0 -15.25,-6.83 -15.25,-15.25z" fill="#ffff00" id="svg_7" stroke="#000000" stroke-width="0" transform="matrix(1 0 0 1 389 -145)"/>
  <path d="m45,0.03c-9.5,0 -17.65,5.43 -21.64,13.27c-1.59,-0.98 -3.35,-1.58 -5.23,-1.58c-5.67,0 -10.39,5.03 -11.85,11.87c-2.49,-1.09 -5.39,-1.74 -8.48,-1.74c-9.28,0 -16.8,5.6 -16.8,12.5c0,6.23 6.17,11.35 14.19,12.3c-0.36,0.67 -0.64,1.34 -0.64,2.04c0,6.61 16.42,12 36.65,12c20.23,0 36.65,-5.39 36.65,-12c0,-0.44 -0.25,-0.84 -0.4,-1.27c0.89,0.24 1.76,0.5 2.73,0.5c5.41,0 9.81,-4.06 9.81,-9.05c0,-4.99 -4.4,-9.05 -9.81,-9.05c-0.66,0 -1.23,0.25 -1.85,0.37c0.55,-2 0.91,-4.03 0.91,-6.2c0,-13.22 -10.85,-23.97 -24.25,-23.97l0.01,0.01z" fill="url(#svg_1)" id="svg_12" stroke="#000000" stroke-width="0" transform="matrix(1 0 0 1 19 24)"/>
 </g>
</svg>