<?xml version="1.0" encoding="utf-8"?>
<!-- Generator: Adobe Illustrator 15.0.0, SVG Export Plug-In . SVG Version: 6.00 Build 0)  -->
<!DOCTYPE svg PUBLIC "-//W3C//DTD SVG 1.1 Tiny//EN" "http://www.w3.org/Graphics/SVG/1.1/DTD/svg11-tiny.dtd">
<svg version="1.1" baseProfile="tiny" id="_x30_1_x7E_07"
	 xmlns="http://www.w3.org/2000/svg" xmlns:xlink="http://www.w3.org/1999/xlink" x="0px" y="0px" width="66.628px"
	 height="104.883px" viewBox="0 0 66.628 104.883" xml:space="preserve">
<g>
	<linearGradient id="SVGID_1_" gradientUnits="userSpaceOnUse" x1="33.3169" y1="13.7207" x2="33.3169" y2="0">
		<stop  offset="0" style="stop-color:#FFE09A"/>
		<stop  offset="1" style="stop-color:#E8C383"/>
	</linearGradient>
	<path fill="url(#SVGID_1_)" d="M66.628,11.7l-0.653,1.62L0.38,13.721L0.006,11.7c-0.028-1.018,1.136-2.14,1.136-2.14
		C7.375,4.26,21.022,0,33.124,0C45.43,0,58.407,3.974,65.345,9.478C65.345,9.478,66.492,10.338,66.628,11.7z"/>
	<linearGradient id="SVGID_2_" gradientUnits="userSpaceOnUse" x1="0.0063" y1="58.2915" x2="66.6284" y2="58.2915">
		<stop  offset="0.05" style="stop-color:#DEAB6E"/>
		<stop  offset="0.322" style="stop-color:#F4CF8B"/>
		<stop  offset="0.5" style="stop-color:#FFE19A"/>
		<stop  offset="0.678" style="stop-color:#F4CF8B"/>
		<stop  offset="0.95" style="stop-color:#DEAB6F"/>
	</linearGradient>
	<path fill="url(#SVGID_2_)" d="M66.628,104.22V11.7c0,0-30.227,1.266-66.622,0v92.52C0.006,104.22,33.223,105.712,66.628,104.22z"
		/>
	<linearGradient id="SVGID_3_" gradientUnits="userSpaceOnUse" x1="0" y1="11.9756" x2="66.6221" y2="11.9756">
		<stop  offset="0" style="stop-color:#D6A56C"/>
		<stop  offset="0.1056" style="stop-color:#E5BB7D"/>
		<stop  offset="0.2397" style="stop-color:#F3CF8D"/>
		<stop  offset="0.3721" style="stop-color:#FCDC97"/>
		<stop  offset="0.5" style="stop-color:#FFE09A"/>
		<stop  offset="0.6279" style="stop-color:#FCDC97"/>
		<stop  offset="0.7603" style="stop-color:#F3CF8D"/>
		<stop  offset="0.8944" style="stop-color:#E5BB7D"/>
		<stop  offset="1" style="stop-color:#D6A56C"/>
	</linearGradient>
	<path fill="url(#SVGID_3_)" d="M66.612,11.373l0.01,0.888c0,0-8.073,1.352-31.653,1.388c-10.385,0.119-25.686,0-34.969-1.388
		l0.01-0.887l0.177-0.482c0,0,31.201-1.232,66.288-0.235L66.612,11.373z"/>
</g>
</svg>