<?xml version="1.0" encoding="utf-8"?>
<!-- Generator: Adobe Illustrator 15.0.0, SVG Export Plug-In . SVG Version: 6.00 Build 0)  -->
<!DOCTYPE svg PUBLIC "-//W3C//DTD SVG 1.1 Tiny//EN" "http://www.w3.org/Graphics/SVG/1.1/DTD/svg11-tiny.dtd">
<svg version="1.1" baseProfile="tiny" id="_x30_1_x7E_07"
	 xmlns="http://www.w3.org/2000/svg" xmlns:xlink="http://www.w3.org/1999/xlink" x="0px" y="0px" width="61.608px"
	 height="104.521px" viewBox="0 0 61.608 104.521" xml:space="preserve">
<g>
	<linearGradient id="SVGID_1_" gradientUnits="userSpaceOnUse" x1="30.7886" y1="14.8076" x2="30.9473" y2="-5.8155">
		<stop  offset="0" style="stop-color:#A8BAB0"/>
		<stop  offset="0.1955" style="stop-color:#A1B3A8"/>
		<stop  offset="0.4938" style="stop-color:#8CA093"/>
		<stop  offset="0.8557" style="stop-color:#6B8171"/>
		<stop  offset="1" style="stop-color:#5C7361"/>
	</linearGradient>
	<path fill="url(#SVGID_1_)" d="M55.844,15.729c4.739-0.662,5.878-4.753,5.755-4.853C53.187,4.074,42.478,0,30.815,0
		S8.442,4.075,0.029,10.878l4.76,5.076C4.789,15.954,42.822,17.548,55.844,15.729z"/>
	<linearGradient id="SVGID_2_" gradientUnits="userSpaceOnUse" x1="30.8037" y1="103.8496" x2="30.8037" y2="92.8496">
		<stop  offset="0" style="stop-color:#A8BAB0"/>
		<stop  offset="1" style="stop-color:#5C7361"/>
	</linearGradient>
	<path fill="url(#SVGID_2_)" d="M5.755,88.792C1.016,89.454,0,93.645,0,93.645c8.412,6.803,19.122,10.877,30.783,10.877
		c11.663,0,22.373-4.075,30.786-10.878c0.537-0.434-4.76-5.076-4.76-5.076S18.776,86.974,5.755,88.792z"/>
	<linearGradient id="SVGID_3_" gradientUnits="userSpaceOnUse" x1="2.0737" y1="54.0908" x2="60.0742" y2="54.0908">
		<stop  offset="0.05" style="stop-color:#66806B"/>
		<stop  offset="0.1166" style="stop-color:#728B78"/>
		<stop  offset="0.3835" style="stop-color:#A0B4A8"/>
		<stop  offset="0.5165" style="stop-color:#B2C4BA"/>
		<stop  offset="0.6414" style="stop-color:#A0B4A8"/>
		<stop  offset="0.8922" style="stop-color:#728A78"/>
		<stop  offset="0.95" style="stop-color:#66806C"/>
	</linearGradient>
	<path fill="url(#SVGID_3_)" d="M61.608,93.619V10.868c0,0-34.285,5.564-61.588,0v82.751C0.021,93.619,28.073,101.933,61.608,93.619
		z"/>
	<linearGradient id="SVGID_4_" gradientUnits="userSpaceOnUse" x1="0.0107" y1="95.7827" x2="61.6074" y2="95.7827">
		<stop  offset="0" style="stop-color:#5C7361"/>
		<stop  offset="0.0357" style="stop-color:#627867"/>
		<stop  offset="0.3456" style="stop-color:#8FA397"/>
		<stop  offset="0.5" style="stop-color:#A1B3A9"/>
		<stop  offset="0.6544" style="stop-color:#8FA397"/>
		<stop  offset="0.9643" style="stop-color:#627867"/>
		<stop  offset="1" style="stop-color:#5C7361"/>
	</linearGradient>
	<path fill="url(#SVGID_4_)" d="M61.607,93.611c0,0-9.44,4.913-31.238,4.949c-9.601,0.119-22.081-1.998-30.349-4.949l-0.01-0.439
		c0,0,31.863,7.645,61.578-0.172L61.607,93.611z"/>
	<linearGradient id="SVGID_5_" gradientUnits="userSpaceOnUse" x1="0.0205" y1="12.5435" x2="61.6074" y2="12.5435">
		<stop  offset="0" style="stop-color:#66806C"/>
		<stop  offset="0.0248" style="stop-color:#6D8673"/>
		<stop  offset="0.146" style="stop-color:#899F90"/>
		<stop  offset="0.2666" style="stop-color:#9DB1A4"/>
		<stop  offset="0.3854" style="stop-color:#A9BBB1"/>
		<stop  offset="0.5" style="stop-color:#ADBFB5"/>
		<stop  offset="0.6146" style="stop-color:#A9BBB1"/>
		<stop  offset="0.7334" style="stop-color:#9DB1A4"/>
		<stop  offset="0.854" style="stop-color:#899F90"/>
		<stop  offset="0.9752" style="stop-color:#6D8673"/>
		<stop  offset="1" style="stop-color:#66806C"/>
	</linearGradient>
	<path fill="url(#SVGID_5_)" d="M61.607,10.887c0,0-9.204,3.882-31.001,3.918c-9.602,0.119-22.986-1.876-30.586-3.918l0.568-0.439
		c0,0,28.141,3.185,60.234-0.172L61.607,10.887z"/>
</g>
</svg>