<?xml version="1.0" encoding="utf-8"?>
<!-- Generator: Adobe Illustrator 15.0.0, SVG Export Plug-In . SVG Version: 6.00 Build 0)  -->
<!DOCTYPE svg PUBLIC "-//W3C//DTD SVG 1.1 Tiny//EN" "http://www.w3.org/Graphics/SVG/1.1/DTD/svg11-tiny.dtd">
<svg version="1.1" baseProfile="tiny" id="_x30_1_x7E_07"
	 xmlns="http://www.w3.org/2000/svg" xmlns:xlink="http://www.w3.org/1999/xlink" x="0px" y="0px" width="53.671px"
	 height="103.575px" viewBox="0 0 53.671 103.575" xml:space="preserve">
<g>
	<linearGradient id="SVGID_1_" gradientUnits="userSpaceOnUse" x1="26.9243" y1="16.9854" x2="26.5856" y2="-1.9756">
		<stop  offset="0" style="stop-color:#C8AAAA"/>
		<stop  offset="0.2424" style="stop-color:#C5A7A7"/>
		<stop  offset="0.4343" style="stop-color:#BB9D9D"/>
		<stop  offset="0.6088" style="stop-color:#AA8C8C"/>
		<stop  offset="0.773" style="stop-color:#937575"/>
		<stop  offset="0.9286" style="stop-color:#755757"/>
		<stop  offset="1" style="stop-color:#644646"/>
	</linearGradient>
	<path fill="url(#SVGID_1_)" d="M0.001,11.68c-0.046-1.308,1.474-2.534,1.474-2.534C8.331,3.436,17.147,0,26.767,0
		c9.622,0,18.44,3.437,25.297,9.149c0,0,1.578,1.185,1.598,2.708s0,0,0,0l-5.438,2.729L2.934,14.595L0.001,11.68z"/>
	<linearGradient id="SVGID_2_" gradientUnits="userSpaceOnUse" x1="26.5928" y1="108.5205" x2="26.875" y2="88.7966">
		<stop  offset="0" style="stop-color:#C8AAAA"/>
		<stop  offset="0.2424" style="stop-color:#C5A7A7"/>
		<stop  offset="0.4343" style="stop-color:#BB9D9D"/>
		<stop  offset="0.6088" style="stop-color:#AA8C8C"/>
		<stop  offset="0.773" style="stop-color:#937575"/>
		<stop  offset="0.9286" style="stop-color:#755757"/>
		<stop  offset="1" style="stop-color:#644646"/>
	</linearGradient>
	<path fill="url(#SVGID_2_)" d="M53.67,91.895c0.046,1.308-1.474,2.534-1.474,2.534c-6.855,5.711-15.672,9.146-25.292,9.146
		c-9.622,0-18.44-3.437-25.297-9.149c0,0-1.578-1.185-1.598-2.708s0,0,0,0l5.438-2.729l45.289-0.008L53.67,91.895z"/>
	<linearGradient id="SVGID_3_" gradientUnits="userSpaceOnUse" x1="0.0264" y1="52.2046" x2="53.6411" y2="52.2046">
		<stop  offset="0.05" style="stop-color:#805959"/>
		<stop  offset="0.1438" style="stop-color:#926D6D"/>
		<stop  offset="0.3888" style="stop-color:#BC9D9D"/>
		<stop  offset="0.511" style="stop-color:#CDAFAF"/>
		<stop  offset="0.6273" style="stop-color:#BC9D9D"/>
		<stop  offset="0.8607" style="stop-color:#926D6D"/>
		<stop  offset="0.95" style="stop-color:#805959"/>
	</linearGradient>
	<path fill="url(#SVGID_3_)" d="M53.641,91.867v-80.46l-0.774-0.369c0,0-22.715,4.98-52.151-0.099l-0.689,0.468v80.46
		C0.026,91.867,26.161,95.473,53.641,91.867z"/>
	<linearGradient id="SVGID_4_" gradientUnits="userSpaceOnUse" x1="0.0264" y1="12.5059" x2="53.6411" y2="12.5059">
		<stop  offset="0" style="stop-color:#735050"/>
		<stop  offset="0.0859" style="stop-color:#8E6D6D"/>
		<stop  offset="0.1929" style="stop-color:#AA8A8A"/>
		<stop  offset="0.2995" style="stop-color:#BD9E9E"/>
		<stop  offset="0.4043" style="stop-color:#C9ABAB"/>
		<stop  offset="0.5055" style="stop-color:#CDAFAF"/>
		<stop  offset="0.6045" style="stop-color:#C9ABAB"/>
		<stop  offset="0.707" style="stop-color:#BD9E9E"/>
		<stop  offset="0.8113" style="stop-color:#AA8A8A"/>
		<stop  offset="0.9159" style="stop-color:#8E6D6D"/>
		<stop  offset="1" style="stop-color:#735050"/>
	</linearGradient>
	<path fill="url(#SVGID_4_)" d="M0.262,10.671l-0.219,0.58l-0.017,0.486c27.595,5.858,53.615,0,53.615,0v-0.376l-0.316-0.69
		C53.325,10.671,25.46,13.502,0.262,10.671z"/>
	<linearGradient id="SVGID_5_" gradientUnits="userSpaceOnUse" x1="0.043" y1="93.0586" x2="53.6685" y2="93.0586">
		<stop  offset="0" style="stop-color:#6E4C4C"/>
		<stop  offset="0.1056" style="stop-color:#816161"/>
		<stop  offset="0.3688" style="stop-color:#AE9191"/>
		<stop  offset="0.5" style="stop-color:#BFA3A3"/>
		<stop  offset="0.6312" style="stop-color:#AE9191"/>
		<stop  offset="0.8944" style="stop-color:#816161"/>
		<stop  offset="1" style="stop-color:#6E4C4C"/>
	</linearGradient>
	<path fill="url(#SVGID_5_)" d="M0.043,91.176l0,0.671l0.054,0.49C25.622,98.261,53.59,92.36,53.59,92.36l0.051-0.403l0.027-0.815
		C53.668,91.142,25.241,94.007,0.043,91.176z"/>
</g>
</svg>