<?xml version="1.0" encoding="utf-8"?>
<!-- Generator: Adobe Illustrator 15.0.0, SVG Export Plug-In . SVG Version: 6.00 Build 0)  -->
<!DOCTYPE svg PUBLIC "-//W3C//DTD SVG 1.1 Tiny//EN" "http://www.w3.org/Graphics/SVG/1.1/DTD/svg11-tiny.dtd">
<svg version="1.1" baseProfile="tiny" id="_x30_1_x7E_07"
	 xmlns="http://www.w3.org/2000/svg" xmlns:xlink="http://www.w3.org/1999/xlink" x="0px" y="0px" width="50.34px"
	 height="49.593px" viewBox="0 0 50.34 49.593" xml:space="preserve">
<g>
	<linearGradient id="SVGID_1_" gradientUnits="userSpaceOnUse" x1="1.3662" y1="7.332" x2="44.6187" y2="39.0659">
		<stop  offset="0" style="stop-color:#505050"/>
		<stop  offset="0.2637" style="stop-color:#646464"/>
		<stop  offset="0.4227" style="stop-color:#7B7B7B"/>
		<stop  offset="0.6433" style="stop-color:#959595"/>
		<stop  offset="0.8425" style="stop-color:#A5A5A5"/>
		<stop  offset="1" style="stop-color:#AAAAAA"/>
	</linearGradient>
	<path fill="url(#SVGID_1_)" d="M50.34,39.671c0,5.479-4.443,9.921-9.922,9.921H9.922C4.441,49.593,0,45.151,0,39.671V9.921
		C0,4.442,4.441,0,9.922,0h30.496c5.479,0,9.922,4.442,9.922,9.921V39.671z"/>
	<linearGradient id="SVGID_2_" gradientUnits="userSpaceOnUse" x1="17.7256" y1="16.3101" x2="39.5114" y2="41.1456">
		<stop  offset="0" style="stop-color:#A0A0A0"/>
		<stop  offset="0.1786" style="stop-color:#9C9C9C"/>
		<stop  offset="0.3711" style="stop-color:#8F8F8F"/>
		<stop  offset="0.5696" style="stop-color:#797979"/>
		<stop  offset="0.5714" style="stop-color:#797979"/>
		<stop  offset="0.8901" style="stop-color:#696969"/>
	</linearGradient>
	<path fill="url(#SVGID_2_)" d="M48.842,38.787c0,5.153-4.178,9.331-9.332,9.331H10.828c-5.152,0-9.33-4.178-9.33-9.331v-27.98
		c0-5.153,4.178-9.331,9.33-9.331H39.51c5.154,0,9.332,4.178,9.332,9.331V38.787z"/>
	<linearGradient id="SVGID_3_" gradientUnits="userSpaceOnUse" x1="5.2617" y1="24.7959" x2="45.0762" y2="24.7959">
		<stop  offset="0" style="stop-color:#2D2D2D"/>
		<stop  offset="0.5275" style="stop-color:#414141"/>
		<stop  offset="0.785" style="stop-color:#383838"/>
		<stop  offset="1" style="stop-color:#2D2D2D"/>
	</linearGradient>
	<circle fill="url(#SVGID_3_)" cx="25.169" cy="24.796" r="19.907"/>
	<radialGradient id="SVGID_4_" cx="25.1689" cy="24.7959" r="24.8196" gradientUnits="userSpaceOnUse">
		<stop  offset="0" style="stop-color:#9B9B9B"/>
		<stop  offset="0.2587" style="stop-color:#929292"/>
		<stop  offset="0.6713" style="stop-color:#7B7B7B"/>
		<stop  offset="1" style="stop-color:#646464"/>
	</radialGradient>
	<circle fill="url(#SVGID_4_)" cx="25.169" cy="24.796" r="19.327"/>
	<linearGradient id="SVGID_5_" gradientUnits="userSpaceOnUse" x1="6.8027" y1="24.7964" x2="43.5352" y2="24.7964">
		<stop  offset="0" style="stop-color:#2D2D2D"/>
		<stop  offset="0.5275" style="stop-color:#414141"/>
		<stop  offset="0.785" style="stop-color:#383838"/>
		<stop  offset="1" style="stop-color:#2D2D2D"/>
	</linearGradient>
	<polygon fill="url(#SVGID_5_)" points="43.535,16.944 43.535,32.318 32.031,43.675 18.307,43.675 6.803,32.318 6.803,17.017 
		18.307,5.917 32.031,5.917 	"/>
	<radialGradient id="SVGID_6_" cx="25.1689" cy="24.7964" r="18.0815" gradientUnits="userSpaceOnUse">
		<stop  offset="0" style="stop-color:#646464"/>
		<stop  offset="0.1034" style="stop-color:#6D6D6D"/>
		<stop  offset="0.2698" style="stop-color:#848484"/>
		<stop  offset="0.4231" style="stop-color:#A0A0A0"/>
		<stop  offset="0.7022" style="stop-color:#818181"/>
		<stop  offset="1" style="stop-color:#646464"/>
	</radialGradient>
	<polygon fill="url(#SVGID_6_)" points="43,17.172 43,32.098 31.832,43.125 18.508,43.125 7.338,32.098 7.338,17.244 18.508,6.467 
		31.832,6.467 	"/>
	<linearGradient id="SVGID_7_" gradientUnits="userSpaceOnUse" x1="12.8008" y1="24.7959" x2="37.5391" y2="24.7959">
		<stop  offset="0" style="stop-color:#2D2D2D"/>
		<stop  offset="0.5275" style="stop-color:#414141"/>
		<stop  offset="0.785" style="stop-color:#383838"/>
		<stop  offset="1" style="stop-color:#2D2D2D"/>
	</linearGradient>
	<circle fill="url(#SVGID_7_)" cx="25.17" cy="24.796" r="12.369"/>
	<radialGradient id="SVGID_8_" cx="25.1689" cy="24.7959" r="11.8779" gradientUnits="userSpaceOnUse">
		<stop  offset="0" style="stop-color:#9B9B9B"/>
		<stop  offset="0.0064" style="stop-color:#9A9A9A"/>
		<stop  offset="0.5733" style="stop-color:#6C6C6C"/>
		<stop  offset="0.8571" style="stop-color:#5A5A5A"/>
	</radialGradient>
	<circle fill="url(#SVGID_8_)" cx="25.169" cy="24.796" r="11.878"/>
	<path fill="#464646" d="M29.992,24.744c0-2.589-2.068-4.687-4.617-4.687s-4.617,2.098-4.617,4.687l9.217,0.066"/>
	<linearGradient id="SVGID_9_" gradientUnits="userSpaceOnUse" x1="20.0938" y1="25.7983" x2="30.6641" y2="25.7983">
		<stop  offset="0" style="stop-color:#414141"/>
		<stop  offset="0.3736" style="stop-color:#C8C8C8"/>
		<stop  offset="0.6758" style="stop-color:#C0C0C0"/>
		<stop  offset="1" style="stop-color:#323232"/>
	</linearGradient>
	<path fill="url(#SVGID_9_)" d="M20.094,31.004h10.57l-0.615-5.958c0-0.08-0.002-0.158-0.006-0.236
		c-0.123-2.45-2.158-4.217-4.65-4.217c-2.48,0-4.508,1.751-4.648,4.183c-0.004,0.089-0.008,0.18-0.008,0.271L20.094,31.004z"/>
	<g>
		<radialGradient id="SVGID_10_" cx="23.0967" cy="32.478" r="11.2889" gradientUnits="userSpaceOnUse">
			<stop  offset="0" style="stop-color:#EBEBEB"/>
			<stop  offset="0.0094" style="stop-color:#E6EAE6"/>
			<stop  offset="0.0201" style="stop-color:#D9E7D9"/>
			<stop  offset="0.0314" style="stop-color:#C2E1C2"/>
			<stop  offset="0.0431" style="stop-color:#A2DAA2"/>
			<stop  offset="0.0551" style="stop-color:#79D079"/>
			<stop  offset="0.0675" style="stop-color:#47C547"/>
			<stop  offset="0.0798" style="stop-color:#0EB70E"/>
			<stop  offset="0.0824" style="stop-color:#00B400"/>
			<stop  offset="0.2191" style="stop-color:#00A500"/>
			<stop  offset="0.4801" style="stop-color:#007F00"/>
			<stop  offset="0.8359" style="stop-color:#004200"/>
			<stop  offset="0.8681" style="stop-color:#003C00"/>
			<stop  offset="1" style="stop-color:#002800"/>
		</radialGradient>
		<circle fill="url(#SVGID_10_)" cx="25.395" cy="35.951" r="10.127"/>
		<path fill="#002300" d="M15.682,38.831c-0.055-0.123,0.08,0.258,0.123,0.386c1.363,4,5.158,6.873,9.617,6.861
			c5.594-0.016,10.115-4.562,10.1-10.156c-0.008-2.417-0.861-4.635-2.279-6.373c-0.086-0.103-0.172-0.205-0.26-0.305
			c0,0,1.563,2.102,1.289,5.87c-0.258,3.55-2.361,7.256-6.516,8.511C22.752,45.139,17.676,43.2,15.682,38.831z"/>
	</g>
</g>
</svg>