<?xml version="1.0" encoding="utf-8"?>
<!-- Generator: Adobe Illustrator 15.0.0, SVG Export Plug-In . SVG Version: 6.00 Build 0)  -->
<!DOCTYPE svg PUBLIC "-//W3C//DTD SVG 1.1 Tiny//EN" "http://www.w3.org/Graphics/SVG/1.1/DTD/svg11-tiny.dtd">
<svg version="1.1" baseProfile="tiny" id="_x30_1_x7E_07"
	 xmlns="http://www.w3.org/2000/svg" xmlns:xlink="http://www.w3.org/1999/xlink" x="0px" y="0px" width="75.188px"
	 height="75.186px" viewBox="0 0 75.188 75.186" xml:space="preserve">
<g>
	<radialGradient id="SVGID_1_" cx="37.5938" cy="37.5928" r="37.5933" gradientUnits="userSpaceOnUse">
		<stop  offset="0.795" style="stop-color:#5F5F5F"/>
		<stop  offset="0.8217" style="stop-color:#8E8E8E"/>
		<stop  offset="0.8498" style="stop-color:#B8B8B8"/>
		<stop  offset="0.8753" style="stop-color:#D7D7D7"/>
		<stop  offset="0.8969" style="stop-color:#E9E9E9"/>
		<stop  offset="0.9121" style="stop-color:#F0F0F0"/>
		<stop  offset="1" style="stop-color:#969696"/>
	</radialGradient>
	<circle fill="url(#SVGID_1_)" cx="37.594" cy="37.594" r="37.594"/>
	<radialGradient id="SVGID_2_" cx="36.1992" cy="37.1436" r="41.2577" gradientUnits="userSpaceOnUse">
		<stop  offset="0" style="stop-color:#3C3C3C"/>
		<stop  offset="0.3124" style="stop-color:#383838"/>
		<stop  offset="0.6359" style="stop-color:#2B2B2B"/>
		<stop  offset="0.9636" style="stop-color:#171717"/>
		<stop  offset="1" style="stop-color:#141414"/>
	</radialGradient>
	<circle fill="url(#SVGID_2_)" cx="37.594" cy="37.594" r="28.195"/>
	<radialGradient id="SVGID_3_" cx="37.5938" cy="37.5928" r="26.0449" gradientUnits="userSpaceOnUse">
		<stop  offset="0" style="stop-color:#C8C8C8"/>
		<stop  offset="0.3474" style="stop-color:#C6C6C6"/>
		<stop  offset="0.5347" style="stop-color:#BEBEBE"/>
		<stop  offset="0.6833" style="stop-color:#B0B0B0"/>
		<stop  offset="0.7308" style="stop-color:#AAAAAA"/>
		<stop  offset="0.7524" style="stop-color:#B1B1B1"/>
		<stop  offset="0.8186" style="stop-color:#C2C2C2"/>
		<stop  offset="0.8681" style="stop-color:#C8C8C8"/>
		<stop  offset="1" style="stop-color:#969696"/>
	</radialGradient>
	<circle fill="url(#SVGID_3_)" cx="37.594" cy="37.594" r="26.045"/>
	<g>
		<g>
			<linearGradient id="SVGID_4_" gradientUnits="userSpaceOnUse" x1="33.3564" y1="33.3096" x2="41.8107" y2="41.7638">
				<stop  offset="0" style="stop-color:#000096"/>
				<stop  offset="0.131" style="stop-color:#000098"/>
				<stop  offset="0.194" style="stop-color:#0000A0"/>
				<stop  offset="0.2425" style="stop-color:#0000AD"/>
				<stop  offset="0.2836" style="stop-color:#0000BF"/>
				<stop  offset="0.32" style="stop-color:#0000D7"/>
				<stop  offset="0.3525" style="stop-color:#0000F4"/>
				<stop  offset="0.3626" style="stop-color:#0000FF"/>
				<stop  offset="0.6813" style="stop-color:#0000FF"/>
				<stop  offset="0.6904" style="stop-color:#0000F2"/>
				<stop  offset="0.7196" style="stop-color:#0000CC"/>
				<stop  offset="0.7512" style="stop-color:#0000AC"/>
				<stop  offset="0.7852" style="stop-color:#000092"/>
				<stop  offset="0.8224" style="stop-color:#00007D"/>
				<stop  offset="0.8644" style="stop-color:#00006F"/>
				<stop  offset="0.9153" style="stop-color:#000067"/>
				<stop  offset="1" style="stop-color:#000064"/>
			</linearGradient>
			<path fill="url(#SVGID_4_)" d="M23.85,59.724l35.926-35.926c-3.885-6.057-8.455-8.453-8.455-8.453L15.396,51.271
				C15.396,51.271,18.051,56.116,23.85,59.724z"/>
			<path fill="#0000FF" d="M21.74,58.259l36.58-36.58c-2.152-2.862-4.879-4.879-4.879-4.879l-36.58,36.579
				C16.861,53.379,18.4,55.663,21.74,58.259z"/>
		</g>
		<path fill="#00BEFF" d="M47.631,29.892c-0.221,0.222-0.58,0.222-0.801,0l-1.604-1.603c-0.221-0.222-0.221-0.58,0-0.802l9.219-9.22
			c0.223-0.222,0.582-0.222,0.803-0.001l1.604,1.604c0.221,0.222,0.221,0.58-0.002,0.802L47.631,29.892z"/>
	</g>
</g>
</svg>