<?xml version="1.0" encoding="utf-8"?>
<!-- Generator: Adobe Illustrator 15.0.0, SVG Export Plug-In . SVG Version: 6.00 Build 0)  -->
<!DOCTYPE svg PUBLIC "-//W3C//DTD SVG 1.1 Tiny//EN" "http://www.w3.org/Graphics/SVG/1.1/DTD/svg11-tiny.dtd">
<svg version="1.1" baseProfile="tiny" id="_x30_1_x7E_07"
	 xmlns="http://www.w3.org/2000/svg" xmlns:xlink="http://www.w3.org/1999/xlink" x="0px" y="0px" width="75.187px"
	 height="75.186px" viewBox="0 0 75.187 75.186" xml:space="preserve">
<g>
	<radialGradient id="SVGID_1_" cx="37.5933" cy="37.5928" r="37.593" gradientUnits="userSpaceOnUse">
		<stop  offset="0.795" style="stop-color:#5F5F5F"/>
		<stop  offset="0.8217" style="stop-color:#8E8E8E"/>
		<stop  offset="0.8498" style="stop-color:#B8B8B8"/>
		<stop  offset="0.8753" style="stop-color:#D7D7D7"/>
		<stop  offset="0.8969" style="stop-color:#E9E9E9"/>
		<stop  offset="0.9121" style="stop-color:#F0F0F0"/>
		<stop  offset="1" style="stop-color:#969696"/>
	</radialGradient>
	<circle fill="url(#SVGID_1_)" cx="37.593" cy="37.594" r="37.593"/>
	<radialGradient id="SVGID_2_" cx="36.1992" cy="37.1436" r="41.257" gradientUnits="userSpaceOnUse">
		<stop  offset="0" style="stop-color:#3C3C3C"/>
		<stop  offset="0.3124" style="stop-color:#383838"/>
		<stop  offset="0.6359" style="stop-color:#2B2B2B"/>
		<stop  offset="0.9636" style="stop-color:#171717"/>
		<stop  offset="1" style="stop-color:#141414"/>
	</radialGradient>
	<circle fill="url(#SVGID_2_)" cx="37.593" cy="37.594" r="28.195"/>
	<radialGradient id="SVGID_3_" cx="37.5933" cy="37.5928" r="26.0447" gradientUnits="userSpaceOnUse">
		<stop  offset="0" style="stop-color:#C8C8C8"/>
		<stop  offset="0.3474" style="stop-color:#C6C6C6"/>
		<stop  offset="0.5347" style="stop-color:#BEBEBE"/>
		<stop  offset="0.6833" style="stop-color:#B0B0B0"/>
		<stop  offset="0.7308" style="stop-color:#AAAAAA"/>
		<stop  offset="0.7524" style="stop-color:#B1B1B1"/>
		<stop  offset="0.8186" style="stop-color:#C2C2C2"/>
		<stop  offset="0.8681" style="stop-color:#C8C8C8"/>
		<stop  offset="1" style="stop-color:#969696"/>
	</radialGradient>
	<circle fill="url(#SVGID_3_)" cx="37.593" cy="37.594" r="26.044"/>
	<g>
		<g>
			<linearGradient id="SVGID_4_" gradientUnits="userSpaceOnUse" x1="31.6143" y1="37.54" x2="43.5703" y2="37.54">
				<stop  offset="0" style="stop-color:#A0A0A0"/>
				<stop  offset="0.1182" style="stop-color:#A2A2A2"/>
				<stop  offset="0.175" style="stop-color:#AAAAAA"/>
				<stop  offset="0.2188" style="stop-color:#B7B7B7"/>
				<stop  offset="0.2556" style="stop-color:#C9C9C9"/>
				<stop  offset="0.2692" style="stop-color:#D2D2D2"/>
				<stop  offset="0.7527" style="stop-color:#D2D2D2"/>
				<stop  offset="0.7705" style="stop-color:#BFBFBF"/>
				<stop  offset="0.8015" style="stop-color:#A5A5A5"/>
				<stop  offset="0.8358" style="stop-color:#919191"/>
				<stop  offset="0.8747" style="stop-color:#838383"/>
				<stop  offset="0.9217" style="stop-color:#7B7B7B"/>
				<stop  offset="1" style="stop-color:#787878"/>
			</linearGradient>
			<path fill="url(#SVGID_4_)" d="M43.57,62.94V12.134c-7.031-1.536-11.956,0-11.956,0V62.94
				C31.614,62.94,36.919,64.489,43.57,62.94z"/>
			<path fill="#C8C8C8" d="M41.042,63.396V11.664c-3.545-0.503-6.901,0-6.901,0v51.731C34.142,63.396,36.845,63.922,41.042,63.396z"
				/>
		</g>
		<path d="M39.292,25.011c0,0.313-0.253,0.566-0.567,0.566h-2.268c-0.313,0-0.567-0.254-0.567-0.566V11.972
			c0-0.313,0.254-0.567,0.567-0.567h2.268c0.313,0,0.567,0.254,0.567,0.567V25.011z"/>
	</g>
</g>
</svg>