<?xml version="1.0" encoding="utf-8"?>
<!-- Generator: Adobe Illustrator 15.0.0, SVG Export Plug-In . SVG Version: 6.00 Build 0)  -->
<!DOCTYPE svg PUBLIC "-//W3C//DTD SVG 1.1 Tiny//EN" "http://www.w3.org/Graphics/SVG/1.1/DTD/svg11-tiny.dtd">
<svg version="1.1" baseProfile="tiny" id="_x30_1_x7E_07"
	 xmlns="http://www.w3.org/2000/svg" xmlns:xlink="http://www.w3.org/1999/xlink" x="0px" y="0px" width="53.858px"
	 height="51.591px" viewBox="0 0 53.858 51.591" xml:space="preserve">
<g>
	<linearGradient id="SVGID_1_" gradientUnits="userSpaceOnUse" x1="0.7944" y1="12.7285" x2="53.1288" y2="38.8954">
		<stop  offset="0" style="stop-color:#C8C8C8"/>
		<stop  offset="0.511" style="stop-color:#868686"/>
		<stop  offset="0.8242" style="stop-color:#464646"/>
	</linearGradient>
	<path fill="url(#SVGID_1_)" d="M53.858,37.417c0,7.828-6.346,14.173-14.173,14.173H14.173C6.346,51.591,0,45.245,0,37.417V14.173
		C0,6.346,6.346,0,14.173,0h25.512c7.828,0,14.173,6.346,14.173,14.173V37.417z"/>
	<linearGradient id="SVGID_2_" gradientUnits="userSpaceOnUse" x1="8.936" y1="7.0298" x2="47.769" y2="47.5298">
		<stop  offset="0" style="stop-color:#3C3C3C"/>
		<stop  offset="0.1978" style="stop-color:#464646"/>
		<stop  offset="0.3793" style="stop-color:#5E5E5E"/>
		<stop  offset="0.6019" style="stop-color:#757575"/>
		<stop  offset="0.8133" style="stop-color:#828282"/>
		<stop  offset="1" style="stop-color:#878787"/>
	</linearGradient>
	<path fill="url(#SVGID_2_)" d="M51.166,36.255c0,7.045-5.711,12.756-12.756,12.756H15.449c-7.045,0-12.756-5.711-12.756-12.756
		v-20.92c0-7.045,5.711-12.756,12.756-12.756H38.41c7.044,0,12.756,5.711,12.756,12.756V36.255z"/>
	<linearGradient id="SVGID_3_" gradientUnits="userSpaceOnUse" x1="4.6318" y1="25.7954" x2="49.2266" y2="25.7954">
		<stop  offset="0" style="stop-color:#C8C8C8"/>
		<stop  offset="1" style="stop-color:#969696"/>
	</linearGradient>
	<path fill="url(#SVGID_3_)" d="M49.227,35.418c0,6.481-5.254,11.735-11.735,11.735H16.367c-6.481,0-11.735-5.254-11.735-11.735
		V16.172c0-6.481,5.254-11.735,11.735-11.735h21.124c6.481,0,11.735,5.254,11.735,11.735V35.418z"/>
	<linearGradient id="SVGID_4_" gradientUnits="userSpaceOnUse" x1="13.5244" y1="11.7593" x2="39.6919" y2="39.163">
		<stop  offset="0.0055" style="stop-color:#787878"/>
		<stop  offset="0.1126" style="stop-color:#666666"/>
		<stop  offset="0.2477" style="stop-color:#565656"/>
		<stop  offset="0.3516" style="stop-color:#505050"/>
		<stop  offset="0.4464" style="stop-color:#575757"/>
		<stop  offset="0.5847" style="stop-color:#6B6B6B"/>
		<stop  offset="0.6593" style="stop-color:#787878"/>
		<stop  offset="0.7607" style="stop-color:#676767"/>
		<stop  offset="0.8975" style="stop-color:#565656"/>
		<stop  offset="1" style="stop-color:#505050"/>
	</linearGradient>
	<ellipse fill="url(#SVGID_4_)" cx="26.928" cy="25.796" rx="19.808" ry="18.123"/>
	<linearGradient id="SVGID_5_" gradientUnits="userSpaceOnUse" x1="7.6973" y1="25.7964" x2="46.1592" y2="25.7964">
		<stop  offset="0" style="stop-color:#C8C8C8"/>
		<stop  offset="1" style="stop-color:#969696"/>
	</linearGradient>
	<ellipse fill="url(#SVGID_5_)" cx="26.928" cy="25.796" rx="19.231" ry="17.595"/>
	<linearGradient id="SVGID_6_" gradientUnits="userSpaceOnUse" x1="8.9697" y1="25.7886" x2="44.9785" y2="25.7886">
		<stop  offset="0.0055" style="stop-color:#787878"/>
		<stop  offset="0.1126" style="stop-color:#666666"/>
		<stop  offset="0.2477" style="stop-color:#565656"/>
		<stop  offset="0.3516" style="stop-color:#505050"/>
		<stop  offset="0.4464" style="stop-color:#575757"/>
		<stop  offset="0.5847" style="stop-color:#6B6B6B"/>
		<stop  offset="0.6593" style="stop-color:#787878"/>
		<stop  offset="0.7607" style="stop-color:#676767"/>
		<stop  offset="0.8975" style="stop-color:#565656"/>
		<stop  offset="1" style="stop-color:#505050"/>
	</linearGradient>
	<polygon fill="url(#SVGID_6_)" points="44.979,18.853 44.979,32.432 33.701,42.464 20.247,42.464 8.97,32.432 8.97,18.917 
		20.247,9.113 33.701,9.113 	"/>
	<linearGradient id="SVGID_7_" gradientUnits="userSpaceOnUse" x1="24.3369" y1="13.5664" x2="31.3823" y2="45.8393">
		<stop  offset="0" style="stop-color:#C8C8C8"/>
		<stop  offset="1" style="stop-color:#969696"/>
	</linearGradient>
	<polygon fill="url(#SVGID_7_)" points="44.454,19.055 44.454,32.239 33.505,41.979 20.442,41.979 9.494,32.239 9.494,19.118 
		20.442,9.599 33.505,9.599 	"/>
	<linearGradient id="SVGID_8_" gradientUnits="userSpaceOnUse" x1="25.4487" y1="15.4136" x2="28.9643" y2="40.0858">
		<stop  offset="0.0055" style="stop-color:#5F5F5F"/>
		<stop  offset="0.0317" style="stop-color:#5C5C5C"/>
		<stop  offset="0.2126" style="stop-color:#4C4C4C"/>
		<stop  offset="0.3516" style="stop-color:#464646"/>
		<stop  offset="0.482" style="stop-color:#4D4D4D"/>
		<stop  offset="0.6593" style="stop-color:#5F5F5F"/>
		<stop  offset="0.6779" style="stop-color:#5D5D5D"/>
		<stop  offset="0.862" style="stop-color:#4C4C4C"/>
		<stop  offset="1" style="stop-color:#464646"/>
	</linearGradient>
	<ellipse fill="url(#SVGID_8_)" cx="26.928" cy="25.796" rx="12.359" ry="10.883"/>
	<radialGradient id="SVGID_9_" cx="26.9282" cy="25.7964" r="11.2372" gradientUnits="userSpaceOnUse">
		<stop  offset="0" style="stop-color:#DCDCDC"/>
		<stop  offset="0.1468" style="stop-color:#CFCFCF"/>
		<stop  offset="0.4163" style="stop-color:#AEAEAE"/>
		<stop  offset="0.7758" style="stop-color:#787878"/>
		<stop  offset="0.8407" style="stop-color:#6E6E6E"/>
		<stop  offset="1" style="stop-color:#5A5A5A"/>
	</radialGradient>
	<ellipse fill="url(#SVGID_9_)" cx="26.928" cy="25.796" rx="11.927" ry="10.502"/>
	<polygon fill="#505050" points="31.201,26.462 31.201,26.463 22.762,26.484 22.621,26.485 22.637,24.924 31.166,24.929 	"/>
	<linearGradient id="SVGID_10_" gradientUnits="userSpaceOnUse" x1="24.0596" y1="29.5938" x2="28.3076" y2="37.7549">
		<stop  offset="0" style="stop-color:#009600"/>
		<stop  offset="0.5484" style="stop-color:#007700"/>
		<stop  offset="1" style="stop-color:#005A00"/>
	</linearGradient>
	<polygon fill="url(#SVGID_10_)" points="34.81,37.341 32.755,38.853 20.323,38.853 19.047,37.341 22.988,25.295 30.868,25.295 	"/>
	<linearGradient id="SVGID_11_" gradientUnits="userSpaceOnUse" x1="25.9365" y1="38.835" x2="30.0732" y2="45.6548">
		<stop  offset="0" style="stop-color:#00AA00"/>
		<stop  offset="0.4781" style="stop-color:#008B00"/>
		<stop  offset="1" style="stop-color:#006400"/>
	</linearGradient>
	<polygon fill="url(#SVGID_11_)" points="34.022,44.899 19.835,44.899 19.047,37.341 34.81,37.341 	"/>
</g>
</svg>