<?xml version="1.0" encoding="utf-8"?>
<!-- Generator: Adobe Illustrator 15.0.0, SVG Export Plug-In . SVG Version: 6.00 Build 0)  -->
<!DOCTYPE svg PUBLIC "-//W3C//DTD SVG 1.1 Tiny//EN" "http://www.w3.org/Graphics/SVG/1.1/DTD/svg11-tiny.dtd">
<svg version="1.1" baseProfile="tiny" id="_x30_1_x7E_07"
	 xmlns="http://www.w3.org/2000/svg" xmlns:xlink="http://www.w3.org/1999/xlink" x="0px" y="0px" width="53.671px"
	 height="103.575px" viewBox="0 0 53.671 103.575" xml:space="preserve">
<g>
	<linearGradient id="SVGID_1_" gradientUnits="userSpaceOnUse" x1="26.3418" y1="32.2998" x2="27.022" y2="4.4209">
		<stop  offset="0" style="stop-color:#FDDF98"/>
		<stop  offset="0.4972" style="stop-color:#F1CF8C"/>
		<stop  offset="1" style="stop-color:#E8C383"/>
	</linearGradient>
	<path fill="url(#SVGID_1_)" d="M0.001,11.68c-0.046-1.308,1.474-2.534,1.474-2.534C8.331,3.436,17.147,0,26.767,0
		c9.622,0,18.44,3.437,25.297,9.149c0,0,1.578,1.185,1.598,2.708s0,0,0,0l-5.438,2.729L2.934,14.595L0.001,11.68z"/>
	<linearGradient id="SVGID_2_" gradientUnits="userSpaceOnUse" x1="26.5923" y1="108.52" x2="26.8745" y2="88.7961">
		<stop  offset="0" style="stop-color:#EFCC8A"/>
		<stop  offset="0.2713" style="stop-color:#EBC886"/>
		<stop  offset="0.563" style="stop-color:#E1BB7C"/>
		<stop  offset="0.8632" style="stop-color:#D0A56A"/>
		<stop  offset="1" style="stop-color:#C69960"/>
	</linearGradient>
	<path fill="url(#SVGID_2_)" d="M53.67,91.895c0.046,1.308-1.474,2.534-1.474,2.534c-6.855,5.711-15.672,9.146-25.292,9.146
		c-9.622,0-18.44-3.437-25.297-9.149c0,0-1.578-1.185-1.598-2.708s0,0,0,0l5.438-2.729l45.289-0.008L53.67,91.895z"/>
	<linearGradient id="SVGID_3_" gradientUnits="userSpaceOnUse" x1="0.0264" y1="52.2046" x2="53.6411" y2="52.2046">
		<stop  offset="0.05" style="stop-color:#DEAB6E"/>
		<stop  offset="0.322" style="stop-color:#F4CF8B"/>
		<stop  offset="0.5" style="stop-color:#FFE19A"/>
		<stop  offset="0.678" style="stop-color:#F4CF8B"/>
		<stop  offset="0.95" style="stop-color:#DEAB6F"/>
	</linearGradient>
	<path fill="url(#SVGID_3_)" d="M53.641,91.867v-80.46l-0.774-0.369c0,0-24.35,3.253-52.151-0.099l-0.689,0.468v80.46
		C0.026,91.867,26.161,95.473,53.641,91.867z"/>
	<linearGradient id="SVGID_4_" gradientUnits="userSpaceOnUse" x1="0.043" y1="93.0586" x2="53.6685" y2="93.0586">
		<stop  offset="0" style="stop-color:#D4A36A"/>
		<stop  offset="0.2922" style="stop-color:#E7C484"/>
		<stop  offset="0.5" style="stop-color:#F2D692"/>
		<stop  offset="0.7078" style="stop-color:#E7C484"/>
		<stop  offset="1" style="stop-color:#D4A36A"/>
	</linearGradient>
	<path fill="url(#SVGID_4_)" d="M0.043,91.176l0,0.671l0.054,0.49C25.622,98.261,53.59,92.36,53.59,92.36l0.051-0.403l0.027-0.815
		C53.668,91.142,25.241,94.007,0.043,91.176z"/>
	<linearGradient id="SVGID_5_" gradientUnits="userSpaceOnUse" x1="0.0264" y1="12.5059" x2="53.6411" y2="12.5059">
		<stop  offset="0" style="stop-color:#D6A56C"/>
		<stop  offset="0.1056" style="stop-color:#E5BB7D"/>
		<stop  offset="0.2397" style="stop-color:#F3CF8D"/>
		<stop  offset="0.3721" style="stop-color:#FCDC97"/>
		<stop  offset="0.5" style="stop-color:#FFE09A"/>
		<stop  offset="0.6279" style="stop-color:#FCDC97"/>
		<stop  offset="0.7603" style="stop-color:#F3CF8D"/>
		<stop  offset="0.8944" style="stop-color:#E5BB7D"/>
		<stop  offset="1" style="stop-color:#D6A56C"/>
	</linearGradient>
	<path fill="url(#SVGID_5_)" d="M0.262,10.671l-0.219,0.58l-0.017,0.486c27.595,5.858,53.615,0,53.615,0v-0.376l-0.316-0.69
		C53.325,10.671,25.46,13.502,0.262,10.671z"/>
</g>
</svg>