<?xml version="1.0" encoding="UTF-8" standalone="no"?>
<svg
   width="113.144"
   height="106.155"
   viewBox="0 0 113.144 106.155"
   version="1.1"
   id="svg62"
   sodipodi:docname="Fans_SupplyFan_3.svg"
   inkscape:version="1.2 (dc2aedaf03, 2022-05-15)"
   xmlns:inkscape="http://www.inkscape.org/namespaces/inkscape"
   xmlns:sodipodi="http://sodipodi.sourceforge.net/DTD/sodipodi-0.dtd"
   xmlns:xlink="http://www.w3.org/1999/xlink"
   xmlns="http://www.w3.org/2000/svg"
   xmlns:svg="http://www.w3.org/2000/svg">
  <sodipodi:namedview
     id="namedview64"
     pagecolor="#ffffff"
     bordercolor="#000000"
     borderopacity="0.25"
     inkscape:showpageshadow="2"
     inkscape:pageopacity="0.0"
     inkscape:pagecheckerboard="0"
     inkscape:deskcolor="#d1d1d1"
     showgrid="false"
     inkscape:zoom="7.884697"
     inkscape:cx="62.082284"
     inkscape:cy="52.379946"
     inkscape:window-width="1920"
     inkscape:window-height="1017"
     inkscape:window-x="-8"
     inkscape:window-y="-8"
     inkscape:window-maximized="1"
     inkscape:current-layer="g17" />
  <g
     transform="translate(-52.512 .228)"
     id="g17">
    <radialGradient
       id="A"
       cx="974.741"
       cy="-1210.992"
       r="45.305"
       gradientTransform="matrix(0.71 0 0 -0.7083 -588.5198 -802.8924)"
       gradientUnits="userSpaceOnUse">
      <stop
         offset="0"
         id="stop2" />
      <stop
         offset=".794"
         id="stop4" />
      <stop
         offset="1"
         stop-opacity="0"
         id="stop6" />
    </radialGradient>
    <path
       fill="url(#A)"
       d="M125.914 77.364c-13.97 15.07-41.504 10.878-50.4-7.615-10.258-17.8 1.853-42.87 22.17-45.89 20.036-4.546 40.414 14.436 37.296 34.74-.821 7.099-4.016 13.712-9.067 18.767h0l.001-.002z"
       id="path9" />
    <g
       id="IoTa_Rotation_On"
       fill="#f2f2f2">
      <path
         d="m 101.14684,10.68 a 6.09,6.09 0 0 1 0.852,-0.307 c 1.07,-0.303 4.033,-0.377 3.064,-0.28 -8.540001,0.853 -9.900001,18.828 -7.763001,29.3 a 16.75,16.75 0 0 0 -1.834,0.864 c -1.977,-14.11 -0.54,-26.807 5.680001,-29.578 v 0 z M 70.609839,25.31 a 6.29,6.29 0 0 1 0.383,-0.819 c 0.544,-0.972 2.586,-3.12 1.97,-2.365 -5.435,6.642 6.322,20.307 15.233,26.208 a 16.74,16.74 0 0 0 -0.686,1.908 c -11.376,-8.58 -19.337,-18.574 -16.897,-24.93 z m -11.248,31.936 c -0.123,-0.274 -0.225,-0.558 -0.308,-0.85 -0.303,-1.072 -0.377,-4.032 -0.28,-3.065 0.852,8.54 18.83,9.89 29.304,7.762 a 16.66,16.66 0 0 0 0.865,1.834 c -14.113,1.977 -26.8,0.54 -29.58,-5.682 h 10e-4 z m 14.63,30.535 c -0.28,-0.106 -0.554,-0.236 -0.82,-0.383 -0.97,-0.544 -3.117,-2.586 -2.364,-1.97 6.643,5.435 20.31,-6.32 26.21,-15.232 0.622,0.268 1.26,0.496 1.908,0.686 -8.58,11.376 -18.577,19.338 -24.934,16.897 h -0.001 z m 31.940001,11.246 a 6.16,6.16 0 0 1 -0.85,0.307 c -1.072,0.302 -4.033,0.376 -3.065,0.28 8.54,-0.854 9.9,-18.828 7.763,-29.302 0.63,-0.25 1.242,-0.54 1.836,-0.864 1.977,14.11 0.538,26.807 -5.684,29.579 z m 30.538,-14.63 c -0.106,0.28 -0.236,0.554 -0.383,0.82 -0.544,0.972 -2.586,3.12 -1.97,2.365 5.438,-6.642 -6.32,-20.308 -15.232,-26.198 0.268,-0.622 0.497,-1.258 0.686,-1.907 11.376,8.58 19.34,18.574 16.9,24.93 v -10e-4 z m 11.249,-31.936 c 0.123,0.276 0.226,0.561 0.308,0.852 0.304,1.072 0.377,4.032 0.28,3.063 -0.854,-8.54 -18.83,-9.89 -29.305,-7.762 -0.25,-0.628 -0.539,-1.24 -0.864,-1.833 14.112,-1.977 26.81,-0.54 29.581,5.68 l -0.002,-10e-4 z m -14.63,-30.535 a 6.29,6.29 0 0 1 0.819,0.383 c 0.972,0.544 3.12,2.586 2.364,1.97 -6.642,-5.433 -20.308,6.322 -26.2,15.232 -0.622,-0.268 -1.26,-0.496 -1.908,-0.686 8.58,-11.376 18.577,-19.338 24.934,-16.897 l 0.001,-0.001 z"
         id="path13" />
      <path
         id="IoTa_RotateCenter"
         d="M103.786 38.039a16.82 16.82 0 0 0-12.138 4.924c-6.568 6.567-6.568 17.214 0 23.78h0c6.568 6.567 17.216 6.567 23.784 0h0c6.568-6.567 6.568-17.214 0-23.78h0c-3.094-3.094-7.27-4.86-11.646-4.924zm-.02 1.473c3.99.06 7.803 1.67 10.625 4.492 5.992 5.992 5.992 15.705 0 21.697h0c-5.992 5.992-15.707 5.992-21.7 0h0c-5.992-5.992-5.992-15.705 0-21.697h0c2.933-2.932 6.927-4.553 11.075-4.492z" />
    </g>
  </g>
  <g
     fill="#0064a8"
     id="g23">
    <use
       xlink:href="#E"
       id="use19" />
    <path
       d="M111.145 0h1.999v52h-1.999z"
       id="path21" />
  </g>
  <linearGradient
     id="B"
     gradientUnits="userSpaceOnUse"
     x1="37.013"
     y1="4.431"
     x2="87.295"
     y2="91.521">
    <stop
       offset="0"
       stop-color="#999"
       stop-opacity=".3"
       id="stop25" />
    <stop
       offset=".101"
       stop-color="#ccc"
       stop-opacity=".3"
       id="stop27" />
    <stop
       offset=".25"
       stop-color="#999"
       stop-opacity=".3"
       id="stop29" />
    <stop
       offset=".456"
       stop-color="#fff"
       stop-opacity=".3"
       id="stop31" />
    <stop
       offset=".688"
       stop-color="#999"
       stop-opacity=".3"
       id="stop33" />
    <stop
       offset=".873"
       stop-color="#ccc"
       stop-opacity=".3"
       id="stop35" />
    <stop
       offset="1"
       stop-color="#999"
       stop-opacity=".3"
       id="stop37" />
  </linearGradient>
  <use
     xlink:href="#E"
     fill="url(#B)"
     id="use40" />
  <linearGradient
     id="C"
     gradientUnits="userSpaceOnUse"
     x1="100.637"
     y1="6.067"
     x2="123.653"
     y2="45.933">
    <stop
       offset="0"
       stop-color="#999"
       stop-opacity=".3"
       id="stop42" />
    <stop
       offset=".101"
       stop-color="#ccc"
       stop-opacity=".3"
       id="stop44" />
    <stop
       offset=".25"
       stop-color="#999"
       stop-opacity=".3"
       id="stop46" />
    <stop
       offset=".456"
       stop-color="#fff"
       stop-opacity=".3"
       id="stop48" />
    <stop
       offset=".688"
       stop-color="#999"
       stop-opacity=".3"
       id="stop50" />
    <stop
       offset=".873"
       stop-color="#ccc"
       stop-opacity=".3"
       id="stop52" />
    <stop
       offset="1"
       stop-color="#999"
       stop-opacity=".3"
       id="stop54" />
  </linearGradient>
  <path
     fill="url(#C)"
     d="M111.145 0h1.999v52h-1.999z"
     id="path57" />
  <defs
     id="defs60">
    <path
       id="E"
       d="M51.487 4.012c-3.238 0-6.353.568-9.938 1.156-32.344 5.24-52.102 45.386-35.603 74 14.308 29.743 58.593 36.485 81.06 12.248 8.08-8.038 13.31-18.86 14.583-30.184a43.68 43.68 0 0 0 .053-13.225l9.5.015V4.032l-59.655-.02zm-.69 19.525c18.024-.298 34.496 17.016 31.67 35.416a31.7 31.7 0 0 1-9.068 18.767c-13.97 15.07-41.502 10.878-50.398-7.615-10.26-17.8 1.853-42.87 22.17-45.89a27.44 27.44 0 0 1 5.624-.676l.002-.002z" />
  </defs>
</svg>
