<?xml version="1.0" encoding="UTF-8" standalone="no"?>
<svg
   width="113.144"
   height="106.155"
   viewBox="0 0 113.144 106.155"
   version="1.1"
   id="svg62"
   sodipodi:docname="Fans_SupplyFan_4.svg"
   inkscape:version="1.2 (dc2aedaf03, 2022-05-15)"
   xmlns:inkscape="http://www.inkscape.org/namespaces/inkscape"
   xmlns:sodipodi="http://sodipodi.sourceforge.net/DTD/sodipodi-0.dtd"
   xmlns:xlink="http://www.w3.org/1999/xlink"
   xmlns="http://www.w3.org/2000/svg"
   xmlns:svg="http://www.w3.org/2000/svg">
  <sodipodi:namedview
     id="namedview64"
     pagecolor="#ffffff"
     bordercolor="#000000"
     borderopacity="0.25"
     inkscape:showpageshadow="2"
     inkscape:pageopacity="0.0"
     inkscape:pagecheckerboard="0"
     inkscape:deskcolor="#d1d1d1"
     showgrid="false"
     inkscape:zoom="7.884697"
     inkscape:cx="54.599435"
     inkscape:cy="55.550645"
     inkscape:window-width="1920"
     inkscape:window-height="1017"
     inkscape:window-x="-8"
     inkscape:window-y="-8"
     inkscape:window-maximized="1"
     inkscape:current-layer="svg62" />
  <g
     transform="translate(-52.512,0.228)"
     id="g17"
     sodipodi:insensitive="true">
    <radialGradient
       id="A"
       cx="974.74103"
       cy="-1210.9919"
       r="45.305"
       gradientTransform="matrix(0.71,0,0,-0.7083,-588.5198,-802.8924)"
       gradientUnits="userSpaceOnUse">
      <stop
         offset="0"
         id="stop2" />
      <stop
         offset=".794"
         id="stop4" />
      <stop
         offset="1"
         stop-opacity="0"
         id="stop6" />
    </radialGradient>
    <path
       fill="url(#A)"
       d="m 125.914,77.364 c -13.97,15.07 -41.504,10.878 -50.4,-7.615 -10.258,-17.8 1.853,-42.87 22.17,-45.89 20.036,-4.546 40.414,14.436 37.296,34.74 -0.821,7.099 -4.016,13.712 -9.067,18.767 v 0 z"
       id="path9"
       sodipodi:insensitive="true" />
    <g
       id="IoTa_Rotation_On"
       fill="#f2f2f2"
       sodipodi:insensitive="true">
      <path
         d="m 88.363,13.3 c -0.302,-0.005 -0.604,0.013 -0.904,0.052 -1.105,0.143 -3.855,1.24 -2.927,0.948 8.187,-2.574 16.5,13.42 18.664,23.886 0.676,-0.017 1.353,0.008 2.027,0.073 C 101.488,24.509 95.173,13.402 88.363,13.3 v -0.002 h 0.001 z m 33.832,1.44 a 6.32,6.32 0 0 0 -0.676,-0.602 c -0.882,-0.68 -3.603,-1.85 -2.74,-1.4 7.61,3.968 2.178,21.155 -3.694,30.085 0.491,0.466 0.952,0.962 1.382,1.485 7.084,-12.362 10.472,-24.683 5.73,-29.57 h -0.001 z M 145.1,39.678 a 6.19,6.19 0 0 0 -0.052,-0.903 c -0.143,-1.105 -1.24,-3.856 -0.948,-2.928 2.575,8.187 -13.422,16.498 -23.89,18.663 0.017,0.676 -0.008,1.352 -0.073,2.025 13.752,-3.734 24.86,-10.05 24.962,-16.86 v 0.001 z m -1.44,33.828 c 0.216,-0.21 0.417,-0.436 0.602,-0.674 0.68,-0.883 1.85,-3.604 1.4,-2.74 -3.97,7.61 -21.157,2.176 -30.09,-3.695 a 16.73,16.73 0 0 1 -1.486,1.381 c 12.363,7.082 24.685,10.47 29.57,5.728 z m -24.94,22.902 a 6.19,6.19 0 0 0 0.903,-0.052 c 1.105,-0.142 3.856,-1.24 2.928,-0.948 -8.188,2.574 -16.5,-13.42 -18.665,-23.886 -0.676,0.017 -1.352,-0.008 -2.025,-0.073 3.733,13.75 10.05,24.857 16.859,24.959 z M 84.888,94.967 c 0.21,0.216 0.436,0.417 0.674,0.602 0.883,0.68 3.605,1.85 2.74,1.4 C 80.692,93 86.126,75.813 91.996,66.883 A 16.73,16.73 0 0 1 90.614,65.398 C 83.53,77.76 80.142,90.081 84.884,94.968 h 0.002 V 94.967 Z M 61.982,70.029 c -0.005,0.302 0.013,0.604 0.052,0.904 0.142,1.105 1.24,3.856 0.948,2.928 -2.574,-8.186 13.422,-16.498 23.89,-18.662 a 16.71,16.71 0 0 1 0.073,-2.026 c -13.752,3.733 -24.86,10.05 -24.962,16.86 l -10e-4,-0.002 z m 1.44,-33.828 c -0.216,0.21 -0.417,0.436 -0.601,0.675 -0.68,0.882 -1.85,3.602 -1.4,2.74 3.97,-7.6 21.16,-2.178 30.09,3.694 0.466,-0.49 0.962,-0.951 1.484,-1.381 -12.363,-7.083 -24.686,-10.47 -29.57,-5.73 h -0.002 z"
         id="path11"
         sodipodi:insensitive="true" />
      <path
         d="m 105.934,10.68 a 6.09,6.09 0 0 0 -0.852,-0.307 c -1.07,-0.303 -4.033,-0.377 -3.064,-0.28 8.54,0.853 9.9,18.828 7.763,29.3 a 16.75,16.75 0 0 1 1.834,0.864 c 1.977,-14.11 0.54,-26.807 -5.68,-29.578 v 0 z m 30.537,14.63 a 6.29,6.29 0 0 0 -0.383,-0.819 c -0.544,-0.972 -2.586,-3.12 -1.97,-2.365 5.435,6.642 -6.322,20.307 -15.233,26.208 a 16.74,16.74 0 0 1 0.686,1.908 c 11.376,-8.58 19.337,-18.574 16.897,-24.93 z m 11.248,31.936 c 0.123,-0.274 0.225,-0.558 0.308,-0.85 0.303,-1.072 0.377,-4.032 0.28,-3.065 -0.852,8.54 -18.83,9.89 -29.304,7.762 a 16.66,16.66 0 0 1 -0.865,1.834 c 14.113,1.977 26.8,0.54 29.58,-5.682 h -10e-4 z m -14.63,30.535 c 0.28,-0.106 0.554,-0.236 0.82,-0.383 0.97,-0.544 3.117,-2.586 2.364,-1.97 -6.643,5.435 -20.31,-6.32 -26.21,-15.232 -0.622,0.268 -1.26,0.496 -1.908,0.686 8.58,11.376 18.577,19.338 24.934,16.897 h 0.001 z m -31.94,11.246 a 6.16,6.16 0 0 0 0.85,0.307 c 1.072,0.302 4.033,0.376 3.065,0.28 -8.54,-0.854 -9.9,-18.828 -7.763,-29.302 -0.63,-0.25 -1.242,-0.54 -1.836,-0.864 -1.977,14.11 -0.538,26.807 5.684,29.579 z M 70.611,84.397 c 0.106,0.28 0.236,0.554 0.383,0.82 0.544,0.972 2.586,3.12 1.97,2.365 -5.438,-6.642 6.32,-20.308 15.232,-26.198 -0.268,-0.622 -0.497,-1.258 -0.686,-1.907 -11.376,8.58 -19.34,18.574 -16.9,24.93 V 84.406 Z M 59.362,52.461 c -0.123,0.276 -0.226,0.561 -0.308,0.852 -0.304,1.072 -0.377,4.032 -0.28,3.063 0.854,-8.54 18.83,-9.89 29.305,-7.762 0.25,-0.628 0.539,-1.24 0.864,-1.833 -14.112,-1.977 -26.81,-0.54 -29.581,5.68 l 0.002,-10e-4 z m 14.63,-30.535 a 6.29,6.29 0 0 0 -0.819,0.383 c -0.972,0.544 -3.12,2.586 -2.364,1.97 6.642,-5.433 20.308,6.322 26.2,15.232 0.622,-0.268 1.26,-0.496 1.908,-0.686 C 90.337,27.449 80.34,19.487 73.983,21.928 l -0.001,-0.001 z"
         id="path13"
         sodipodi:insensitive="true" />
      <path
         d="m 97.461579,11.0349 a 6.09,6.09 0 0 0 -0.894925,-0.13879 c -1.108156,-0.09327 -4.030838,0.399459 -3.061132,0.309783 8.545858,-0.792181 13.310658,16.593067 13.211078,27.280426 a 16.75,16.75 0 0 1 1.96516,0.498182 C 107.93012,24.756512 104.09682,12.566984 97.462369,11.033727 v 0 z m 32.767481,8.534471 a 6.29,6.29 0 0 0 -0.53223,-0.730873 c -0.71947,-0.850341 -3.13381,-2.569244 -2.38507,-1.945654 6.6025,5.482921 -2.33109,21.140197 -9.95241,28.633078 a 16.74,16.74 0 0 1 1.03746,1.74205 c 9.52985,-10.593004 15.43764,-21.922417 11.82969,-27.696065 z m 17.13502,29.203026 c 0.0685,-0.292435 0.1144,-0.59068 0.14016,-0.893152 0.0929,-1.110119 -0.39927,-4.029856 -0.30998,-3.062114 0.79316,8.545666 -16.59694,13.301226 -27.28454,13.210857 a 16.66,16.66 0 0 1 -0.49917,1.965354 c 14.23094,-0.75221 26.41065,-4.583602 27.95236,-11.221735 l -9.8e-4,1.9e-4 z m -8.53485,32.765522 c 0.25463,-0.157479 0.49879,-0.337372 0.73185,-0.532427 0.84838,-0.71909 2.5663,-3.133239 1.94468,-2.384878 -5.48391,6.602688 -21.14276,-2.328553 -28.63485,-9.951041 -0.55944,0.381759 -1.14221,0.727306 -1.74205,1.03746 10.593,9.529849 21.92555,15.438047 27.69999,11.828923 l 9.8e-4,-1.91e-4 z m -29.20734,17.133819 a 6.16,6.16 0 0 0 0.89297,0.139172 c 1.10992,0.0919 4.03064,-0.400442 3.06211,-0.309975 -8.54605,0.7912 -13.31067,-16.593066 -13.21146,-27.282389 -0.666126,-0.125197 -1.322222,-0.293093 -1.96713,-0.497799 0.751638,14.227989 4.5869,26.417135 11.22351,27.950991 z m -32.768469,-8.53428 c 0.157479,0.25463 0.337373,0.498791 0.532427,0.731855 0.719471,0.850341 3.133812,2.569245 2.385069,1.945654 C 73.165475,87.332619 82.099851,71.67417 89.724248,64.191896 89.342489,63.63246 88.996342,63.051841 88.686979,62.450828 79.157129,73.043832 73.246396,84.373817 76.854348,90.147465 l -1.91e-4,-9.81e-4 z m -17.136,-29.202835 c -0.06808,0.294399 -0.114804,0.593816 -0.139772,0.895116 -0.09387,1.11031 0.399269,4.029855 0.309593,3.06015 -0.7912,-8.546047 16.596938,-13.301226 27.285525,-13.211048 0.125578,-0.664164 0.292494,-1.320063 0.498373,-1.964181 -14.229952,0.752019 -26.420462,4.58551 -27.953719,11.219963 l 0.0018,-0.0014 z m 8.534853,-32.765522 a 6.29,6.29 0 0 0 -0.730873,0.532236 c -0.850341,0.719472 -2.569244,3.133812 -1.944673,2.384878 5.483303,-6.600534 21.14118,2.330898 28.62504,9.952949 0.559435,-0.381759 1.142209,-0.727307 1.74205,-1.03746 C 85.350809,30.471855 74.01826,24.563657 68.243821,28.172782 l -0.0012,-7.91e-4 z"
         id="path13-7" />
      <path
         d="m 114.31866,11.948313 a 6.0899851,6.089968 11 0 0 -0.77775,-0.463927 c -0.99253,-0.501596 -3.88696,-1.139601 -2.95427,-0.859491 8.2203,2.466829 6.12554,20.370984 2.02967,30.242773 a 16.74996,16.749912 11 0 1 1.63544,1.198062 c 4.63297,-13.473457 5.64507,-26.211303 0.0681,-30.118206 v 0 z m 27.18436,20.187848 a 6.2899846,6.2899671 11 0 0 -0.21969,-0.877024 c -0.34854,-1.057938 -1.94317,-3.556094 -1.48254,-2.697431 4.06779,7.556981 -10.08057,18.727507 -19.95378,22.819767 a 16.739959,16.739912 11 0 1 0.30933,2.003826 c 12.8041,-6.251676 22.52576,-14.54298 21.34336,-21.247746 z m 4.94768,33.495299 c 0.17302,-0.245495 0.32733,-0.504814 0.46452,-0.775611 0.50198,-0.994483 1.13941,-3.885966 0.85968,-2.955246 -2.46583,8.220486 -20.37109,6.115318 -30.24656,2.0279 a 16.659959,16.659913 11 0 1 -1.19906,1.635243 c 13.47643,4.633548 26.2045,5.643744 30.12062,0.06654 l -9.8e-4,-1.9e-4 z m -20.1875,27.182299 c 0.29508,-0.05063 0.58886,-0.125955 0.87802,-0.219498 1.05597,-0.348919 3.55315,-1.943724 2.69645,-1.482725 -7.55798,4.067575 -18.7309,-10.079171 -22.82201,-19.953158 -0.66168,0.144394 -1.33148,0.246465 -2.00382,0.309329 6.2517,12.804068 14.5458,22.527259 21.25175,21.344089 l 9.8e-4,1.91e-4 z m -33.498917,4.944898 a 6.1599849,6.1599676 11 0 0 0.775805,0.463546 c 0.994681,0.500995 3.887149,1.138619 2.955252,0.859681 -8.220125,-2.46781 -6.125552,-20.370985 -2.029297,-30.244736 -0.570721,-0.365615 -1.116141,-0.76706 -1.637405,-1.198447 -4.632973,13.47346 -5.643104,26.211689 -0.06435,30.119956 z M 65.578947,77.570615 c 0.05063,0.295078 0.125956,0.58885 0.2195,0.87801 0.348539,1.057936 1.943161,3.556091 1.482541,2.697429 C 63.210259,73.588502 77.359785,62.417183 87.231884,58.335915 87.087491,57.674209 86.984054,57.006202 86.92236,56.333067 74.118263,62.584746 64.393669,70.875477 65.576058,77.58024 l 1.91e-4,-9.81e-4 z M 60.630294,44.075131 c -0.173403,0.247456 -0.32889,0.507565 -0.464909,0.777572 -0.502959,0.994293 -1.13941,3.885963 -0.8593,2.953281 2.467809,-8.2201 20.371087,-6.115319 30.247567,-2.027706 0.365233,-0.568757 0.765697,-1.114366 1.197874,-1.634455 C 77.276065,39.510467 64.537202,38.49817 60.630294,44.075131 l 0.0022,-5.94e-4 z M 80.817787,16.892828 a 6.2899846,6.2899671 11 0 0 -0.87703,0.21969 c -1.057939,0.348538 -3.556099,1.943153 -2.696453,1.482724 7.556611,-4.065802 18.728548,10.080754 22.812186,19.95125 0.6617,-0.144391 1.33148,-0.246467 2.00383,-0.30933 C 95.808611,25.433094 87.514522,15.709906 80.808571,16.893075 l -7.91e-4,-0.0012 z"
         id="path13-0"
         style="stroke-width:0.999996"
         sodipodi:insensitive="true" />
      <path
         id="IoTa_RotateCenter"
         d="m 103.786,38.039 a 16.82,16.82 0 0 0 -12.138,4.924 c -6.568,6.567 -6.568,17.214 0,23.78 v 0 c 6.568,6.567 17.216,6.567 23.784,0 v 0 c 6.568,-6.567 6.568,-17.214 0,-23.78 v 0 c -3.094,-3.094 -7.27,-4.86 -11.646,-4.924 z m -0.02,1.473 c 3.99,0.06 7.803,1.67 10.625,4.492 5.992,5.992 5.992,15.705 0,21.697 v 0 c -5.992,5.992 -15.707,5.992 -21.7,0 v 0 c -5.992,-5.992 -5.992,-15.705 0,-21.697 v 0 c 2.933,-2.932 6.927,-4.553 11.075,-4.492 z"
         sodipodi:insensitive="true" />
    </g>
  </g>
  <g
     fill="#0064a8"
     id="g23"
     sodipodi:insensitive="true">
    <use
       xlink:href="#E"
       id="use19"
       sodipodi:insensitive="true" />
    <path
       d="m 111.145,0 h 1.999 v 52 h -1.999 z"
       id="path21"
       sodipodi:insensitive="true" />
  </g>
  <linearGradient
     id="B"
     gradientUnits="userSpaceOnUse"
     x1="37.013"
     y1="4.431"
     x2="87.295"
     y2="91.521">
    <stop
       offset="0"
       stop-color="#999"
       stop-opacity=".3"
       id="stop25" />
    <stop
       offset=".101"
       stop-color="#ccc"
       stop-opacity=".3"
       id="stop27" />
    <stop
       offset=".25"
       stop-color="#999"
       stop-opacity=".3"
       id="stop29" />
    <stop
       offset=".456"
       stop-color="#fff"
       stop-opacity=".3"
       id="stop31" />
    <stop
       offset=".688"
       stop-color="#999"
       stop-opacity=".3"
       id="stop33" />
    <stop
       offset=".873"
       stop-color="#ccc"
       stop-opacity=".3"
       id="stop35" />
    <stop
       offset="1"
       stop-color="#999"
       stop-opacity=".3"
       id="stop37" />
  </linearGradient>
  <use
     xlink:href="#E"
     fill="url(#B)"
     id="use40"
     sodipodi:insensitive="true" />
  <linearGradient
     id="C"
     gradientUnits="userSpaceOnUse"
     x1="100.637"
     y1="6.067"
     x2="123.653"
     y2="45.933">
    <stop
       offset="0"
       stop-color="#999"
       stop-opacity=".3"
       id="stop42" />
    <stop
       offset=".101"
       stop-color="#ccc"
       stop-opacity=".3"
       id="stop44" />
    <stop
       offset=".25"
       stop-color="#999"
       stop-opacity=".3"
       id="stop46" />
    <stop
       offset=".456"
       stop-color="#fff"
       stop-opacity=".3"
       id="stop48" />
    <stop
       offset=".688"
       stop-color="#999"
       stop-opacity=".3"
       id="stop50" />
    <stop
       offset=".873"
       stop-color="#ccc"
       stop-opacity=".3"
       id="stop52" />
    <stop
       offset="1"
       stop-color="#999"
       stop-opacity=".3"
       id="stop54" />
  </linearGradient>
  <path
     fill="url(#C)"
     d="m 111.145,0 h 1.999 v 52 h -1.999 z"
     id="path57"
     sodipodi:insensitive="true" />
  <defs
     id="defs60">
    <path
       id="E"
       d="M51.487 4.012c-3.238 0-6.353.568-9.938 1.156-32.344 5.24-52.102 45.386-35.603 74 14.308 29.743 58.593 36.485 81.06 12.248 8.08-8.038 13.31-18.86 14.583-30.184a43.68 43.68 0 0 0 .053-13.225l9.5.015V4.032l-59.655-.02zm-.69 19.525c18.024-.298 34.496 17.016 31.67 35.416a31.7 31.7 0 0 1-9.068 18.767c-13.97 15.07-41.502 10.878-50.398-7.615-10.26-17.8 1.853-42.87 22.17-45.89a27.44 27.44 0 0 1 5.624-.676l.002-.002z" />
  </defs>
</svg>
