<svg xmlns="http://www.w3.org/2000/svg" xmlns:xlink="http://www.w3.org/1999/xlink" width="113.144" height="106.155" viewBox="0 0 113.144 106.155">
	<g transform="translate(-52.512 .228)">
		<radialGradient id="A" cx="974.741" cy="-1210.992" r="45.305" gradientTransform="matrix(0.71 0 0 -0.7083 -588.5198 -802.8924)" gradientUnits="userSpaceOnUse">
			<stop offset="0"/>
			<stop offset=".794"/>
			<stop offset="1" stop-opacity="0"/>
		</radialGradient>
		<path fill="url(#A)" d="M125.914 77.364c-13.97 15.07-41.504 10.878-50.4-7.615-10.258-17.8 1.853-42.87 22.17-45.89 20.036-4.546 40.414 14.436 37.296 34.74-.821 7.099-4.016 13.712-9.067 18.767h0l.001-.002z"/>
		<g id="IoTa_Rotation_On" fill="#f2f2f2">
			<path d="M88.363 13.3c-.302-.005-.604.013-.904.052-1.105.143-3.855 1.24-2.927.948 8.187-2.574 16.5 13.42 18.664 23.886.676-.017 1.353.008 2.027.073-3.735-13.75-10.05-24.857-16.86-24.959v-.002h.001l-.001.002zm33.832 1.44a6.32 6.32 0 0 0-.676-.602c-.882-.68-3.603-1.85-2.74-1.4 7.61 3.968 2.178 21.155-3.694 30.085.491.466.952.962 1.382 1.485 7.084-12.362 10.472-24.683 5.73-29.57h-.001l-.001.002zM145.1 39.678a6.19 6.19 0 0 0-.052-.903c-.143-1.105-1.24-3.856-.948-2.928 2.575 8.187-13.422 16.498-23.89 18.663.017.676-.008 1.352-.073 2.025 13.752-3.734 24.86-10.05 24.962-16.86v.001l.001.002zm-1.44 33.828c.216-.21.417-.436.602-.674.68-.883 1.85-3.604 1.4-2.74-3.97 7.61-21.157 2.176-30.09-3.695a16.73 16.73 0 0 1-1.486 1.381c12.363 7.082 24.685 10.47 29.57 5.728h.004zm-24.94 22.902a6.19 6.19 0 0 0 .903-.052c1.105-.142 3.856-1.24 2.928-.948-8.188 2.574-16.5-13.42-18.665-23.886-.676.017-1.352-.008-2.025-.073 3.733 13.75 10.05 24.857 16.859 24.959h0zm-33.832-1.441c.21.216.436.417.674.602.883.68 3.605 1.85 2.74 1.4-7.61-3.969-2.176-21.156 3.694-30.086a16.73 16.73 0 0 1-1.382-1.485c-7.084 12.362-10.472 24.683-5.73 29.57h.002v-.001h.002zM61.982 70.029c-.005.302.013.604.052.904.142 1.105 1.24 3.856.948 2.928-2.574-8.186 13.422-16.498 23.89-18.662a16.71 16.71 0 0 1 .073-2.026c-13.752 3.733-24.86 10.05-24.962 16.86l-.001-.002v-.002zm1.44-33.828c-.216.21-.417.436-.601.675-.68.882-1.85 3.602-1.4 2.74 3.97-7.6 21.16-2.178 30.09 3.694.466-.49.962-.951 1.484-1.381-12.363-7.083-24.686-10.47-29.57-5.73h-.002l-.001.002z"/>
			<path d="M105.934 10.68a6.09 6.09 0 0 0-.852-.307c-1.07-.303-4.033-.377-3.064-.28 8.54.853 9.9 18.828 7.763 29.3a16.75 16.75 0 0 1 1.834.864c1.977-14.11.54-26.807-5.68-29.578h0l-.001.001zm30.537 14.63a6.29 6.29 0 0 0-.383-.819c-.544-.972-2.586-3.12-1.97-2.365 5.435 6.642-6.322 20.307-15.233 26.208a16.74 16.74 0 0 1 .686 1.908c11.376-8.58 19.337-18.574 16.897-24.93l.003-.002zm11.248 31.936c.123-.274.225-.558.308-.85.303-1.072.377-4.032.28-3.065-.852 8.54-18.83 9.89-29.304 7.762a16.66 16.66 0 0 1-.865 1.834c14.113 1.977 26.8.54 29.58-5.682h-.001l.002.001zm-14.63 30.535c.28-.106.554-.236.82-.383.97-.544 3.117-2.586 2.364-1.97-6.643 5.435-20.31-6.32-26.21-15.232-.622.268-1.26.496-1.908.686 8.58 11.376 18.577 19.338 24.934 16.897h.001l-.001.002zm-31.94 11.246a6.16 6.16 0 0 0 .85.307c1.072.302 4.033.376 3.065.28-8.54-.854-9.9-18.828-7.763-29.302-.63-.25-1.242-.54-1.836-.864-1.977 14.11-.538 26.807 5.684 29.579h0zm-30.538-14.63c.106.28.236.554.383.82.544.972 2.586 3.12 1.97 2.365-5.438-6.642 6.32-20.308 15.232-26.198-.268-.622-.497-1.258-.686-1.907-11.376 8.58-19.34 18.574-16.9 24.93v-.001l.001-.009zM59.362 52.461c-.123.276-.226.561-.308.852-.304 1.072-.377 4.032-.28 3.063.854-8.54 18.83-9.89 29.305-7.762.25-.628.539-1.24.864-1.833-14.112-1.977-26.81-.54-29.581 5.68l.002-.001-.002.001zm14.63-30.535a6.29 6.29 0 0 0-.819.383c-.972.544-3.12 2.586-2.364 1.97 6.642-5.433 20.308 6.322 26.2 15.232.622-.268 1.26-.496 1.908-.686-8.58-11.376-18.577-19.338-24.934-16.897l-.001-.001.01-.001z"/>
			<path id="IoTa_RotateCenter" d="M103.786 38.039a16.82 16.82 0 0 0-12.138 4.924c-6.568 6.567-6.568 17.214 0 23.78h0c6.568 6.567 17.216 6.567 23.784 0h0c6.568-6.567 6.568-17.214 0-23.78h0c-3.094-3.094-7.27-4.86-11.646-4.924zm-.02 1.473c3.99.06 7.803 1.67 10.625 4.492 5.992 5.992 5.992 15.705 0 21.697h0c-5.992 5.992-15.707 5.992-21.7 0h0c-5.992-5.992-5.992-15.705 0-21.697h0c2.933-2.932 6.927-4.553 11.075-4.492z"/>
		</g>
	</g>
	<g fill="#0064a8">
		<use xlink:href="#E"/>
		<path d="M111.145 0h1.999v52h-1.999z"/>
	</g>
	<linearGradient id="B" gradientUnits="userSpaceOnUse" x1="37.013" y1="4.431" x2="87.295" y2="91.521">
		<stop offset="0" stop-color="#999" stop-opacity=".3"/>
		<stop offset=".101" stop-color="#ccc" stop-opacity=".3"/>
		<stop offset=".25" stop-color="#999" stop-opacity=".3"/>
		<stop offset=".456" stop-color="#fff" stop-opacity=".3"/>
		<stop offset=".688" stop-color="#999" stop-opacity=".3"/>
		<stop offset=".873" stop-color="#ccc" stop-opacity=".3"/>
		<stop offset="1" stop-color="#999" stop-opacity=".3"/>
	</linearGradient>
	<use xlink:href="#E" fill="url(#B)"/>
	<linearGradient id="C" gradientUnits="userSpaceOnUse" x1="100.637" y1="6.067" x2="123.653" y2="45.933">
		<stop offset="0" stop-color="#999" stop-opacity=".3"/>
		<stop offset=".101" stop-color="#ccc" stop-opacity=".3"/>
		<stop offset=".25" stop-color="#999" stop-opacity=".3"/>
		<stop offset=".456" stop-color="#fff" stop-opacity=".3"/>
		<stop offset=".688" stop-color="#999" stop-opacity=".3"/>
		<stop offset=".873" stop-color="#ccc" stop-opacity=".3"/>
		<stop offset="1" stop-color="#999" stop-opacity=".3"/>
	</linearGradient>
	<path fill="url(#C)" d="M111.145 0h1.999v52h-1.999z"/>
	<defs >
		<path id="E" d="M51.487 4.012c-3.238 0-6.353.568-9.938 1.156-32.344 5.24-52.102 45.386-35.603 74 14.308 29.743 58.593 36.485 81.06 12.248 8.08-8.038 13.31-18.86 14.583-30.184a43.68 43.68 0 0 0 .053-13.225l9.5.015V4.032l-59.655-.02zm-.69 19.525c18.024-.298 34.496 17.016 31.67 35.416a31.7 31.7 0 0 1-9.068 18.767c-13.97 15.07-41.502 10.878-50.398-7.615-10.26-17.8 1.853-42.87 22.17-45.89a27.44 27.44 0 0 1 5.624-.676l.002-.002z"/>
	</defs>
</svg>