<svg width="257.134" height="240" version="1.1" id="svg377" xmlns:xlink="http://www.w3.org/1999/xlink" xmlns="http://www.w3.org/2000/svg"><style id="style2">.B{opacity:.32}.C{fill:#c4c4c4}</style><g transform="translate(-77.717 -149.038)" id="g142"><radialGradient id="A" cx="-254.29" cy="-1301.594" r="8.653" fx="-254.301" fy="-1301.594" gradientTransform="matrix(-.3371 -2.7452 -2.745 .3309 -3556.869 -80.64)" gradientUnits="userSpaceOnUse"><stop offset=".013" stop-color="#ccc" id="stop4"/><stop offset=".375" stop-color="#ccc" id="stop6"/><stop offset=".437" stop-color="#3b3b3b" id="stop8"/><stop offset=".537" stop-color="#9f9f9f" id="stop10"/><stop offset=".65" stop-color="#fff" id="stop12"/><stop offset=".725" stop-color="#fff" id="stop14"/><stop offset=".838" stop-color="#9f9f9f" id="stop16"/><stop offset=".938" stop-color="#3b3b3b" id="stop18"/><stop offset="1" stop-color="#ccc" id="stop20"/></radialGradient><use xlink:href="#S" fill="url(#A)" id="use23"/><use xlink:href="#S" class="B C" id="use25"/><radialGradient id="B" cx="-301.547" cy="-1295.791" r="8.653" fx="-301.558" fy="-1295.791" gradientTransform="matrix(-.3371 -2.7452 -2.745 .3309 -3556.869 -80.64)" gradientUnits="userSpaceOnUse"><stop offset=".013" stop-color="#ccc" id="stop27"/><stop offset=".375" stop-color="#ccc" id="stop29"/><stop offset=".437" stop-color="#3b3b3b" id="stop31"/><stop offset=".537" stop-color="#9f9f9f" id="stop33"/><stop offset=".65" stop-color="#fff" id="stop35"/><stop offset=".725" stop-color="#fff" id="stop37"/><stop offset=".838" stop-color="#9f9f9f" id="stop39"/><stop offset=".938" stop-color="#3b3b3b" id="stop41"/><stop offset="1" stop-color="#ccc" id="stop43"/></radialGradient><use xlink:href="#T" fill="url(#B)" id="use46"/><use xlink:href="#T" class="B C" id="use48"/><radialGradient id="C" cx="-277.918" cy="-1298.692" r="8.653" fx="-277.93" fy="-1298.692" gradientTransform="matrix(-.3371 -2.7452 -2.745 .3309 -3556.869 -80.64)" gradientUnits="userSpaceOnUse"><stop offset=".013" stop-color="#ccc" id="stop50"/><stop offset=".375" stop-color="#ccc" id="stop52"/><stop offset=".437" stop-color="#3b3b3b" id="stop54"/><stop offset=".537" stop-color="#9f9f9f" id="stop56"/><stop offset=".65" stop-color="#fff" id="stop58"/><stop offset=".725" stop-color="#fff" id="stop60"/><stop offset=".838" stop-color="#9f9f9f" id="stop62"/><stop offset=".938" stop-color="#3b3b3b" id="stop64"/><stop offset="1" stop-color="#ccc" id="stop66"/></radialGradient><path fill="url(#C)" d="M101.887 228.577v15.085c-4.971 0-9.085 3.943-9.085 8.914s4.114 8.914 9.085 8.914v15.085c-13.611-.343-24.17-10.388-24.17-23.999 0-13.269 10.56-23.999 24.17-23.999z" id="path69"/><use xlink:href="#S" y="65.825" class="B C" id="use71"/><radialGradient id="D" cx="-496.72" cy="-1556.868" r="8.653" fx="-496.731" fy="-1556.868" gradientTransform="matrix(.3371 2.7452 2.745 -.3309 4751.888 1068.101)" gradientUnits="userSpaceOnUse"><stop offset=".013" stop-color="#ccc" id="stop73"/><stop offset=".375" stop-color="#ccc" id="stop75"/><stop offset=".437" stop-color="#3b3b3b" id="stop77"/><stop offset=".537" stop-color="#9f9f9f" id="stop79"/><stop offset=".65" stop-color="#fff" id="stop81"/><stop offset=".725" stop-color="#fff" id="stop83"/><stop offset=".838" stop-color="#9f9f9f" id="stop85"/><stop offset=".938" stop-color="#3b3b3b" id="stop87"/><stop offset="1" stop-color="#ccc" id="stop89"/></radialGradient><use xlink:href="#U" fill="url(#D)" id="use92"/><use xlink:href="#U" class="B C" id="use94"/><radialGradient id="E" cx="-473.092" cy="-1559.77" r="8.653" fx="-473.103" fy="-1559.77" gradientTransform="matrix(.3371 2.7452 2.745 -.3309 4751.888 1068.101)" gradientUnits="userSpaceOnUse"><stop offset=".013" stop-color="#ccc" id="stop96"/><stop offset=".375" stop-color="#ccc" id="stop98"/><stop offset=".437" stop-color="#3b3b3b" id="stop100"/><stop offset=".537" stop-color="#9f9f9f" id="stop102"/><stop offset=".65" stop-color="#fff" id="stop104"/><stop offset=".725" stop-color="#fff" id="stop106"/><stop offset=".838" stop-color="#9f9f9f" id="stop108"/><stop offset=".938" stop-color="#3b3b3b" id="stop110"/><stop offset="1" stop-color="#ccc" id="stop112"/></radialGradient><path fill="url(#E)" d="M310.681 309.486v-15.085c4.971 0 9.085-3.943 9.085-8.914s-4.114-8.914-9.085-8.914v-15.085c13.611.343 24.17 10.388 24.17 23.999 0 13.269-10.559 23.999-24.17 23.999z" id="path115"/><use xlink:href="#U" y="65.825" class="B C" id="use117"/><radialGradient id="F" cx="-449.463" cy="-1562.672" r="8.653" fx="-449.474" fy="-1562.672" gradientTransform="matrix(.3371 2.7452 2.745 -.3309 4751.888 1068.101)" gradientUnits="userSpaceOnUse"><stop offset=".013" stop-color="#ccc" id="stop119"/><stop offset=".375" stop-color="#ccc" id="stop121"/><stop offset=".437" stop-color="#3b3b3b" id="stop123"/><stop offset=".537" stop-color="#9f9f9f" id="stop125"/><stop offset=".65" stop-color="#fff" id="stop127"/><stop offset=".725" stop-color="#fff" id="stop129"/><stop offset=".838" stop-color="#9f9f9f" id="stop131"/><stop offset=".938" stop-color="#3b3b3b" id="stop133"/><stop offset="1" stop-color="#ccc" id="stop135"/></radialGradient><path fill="url(#F)" d="M310.681 375.311v-15.085c4.971 0 9.085-3.943 9.085-8.914s-4.114-8.914-9.085-8.914v-15.085c13.611.343 24.17 10.388 24.17 23.999 0 13.269-10.559 23.999-24.17 23.999z" id="path138"/><use xlink:href="#U" y="131.65" class="B C" id="use140"/></g><g transform="translate(-90.916 -74.984)" id="g291"><linearGradient id="G" gradientUnits="userSpaceOnUse" x1="231.486" y1="88.7" x2="231.486" y2="103.783"><stop offset="0" stop-color="#ccc" id="stop144"/><stop offset=".1" stop-color="#3b3b3b" id="stop146"/><stop offset=".26" stop-color="#9f9f9f" id="stop148"/><stop offset=".44" stop-color="#fff" id="stop150"/><stop offset=".56" stop-color="#fff" id="stop152"/><stop offset=".74" stop-color="#9f9f9f" id="stop154"/><stop offset=".9" stop-color="#3b3b3b" id="stop156"/><stop offset="1" stop-color="#ccc" id="stop158"/></linearGradient><path fill="url(#G)" d="M114.915 88.698H348.05v15.085H114.915V88.698z" id="path161"/><path d="M114.915 88.698H348.05v15.085H114.915V88.698z" class="B C" id="path163"/><linearGradient id="H" gradientUnits="userSpaceOnUse" x1="219.479" y1="121.612" x2="219.479" y2="136.695"><stop offset="0" stop-color="#ccc" id="stop165"/><stop offset=".1" stop-color="#3b3b3b" id="stop167"/><stop offset=".26" stop-color="#9f9f9f" id="stop169"/><stop offset=".44" stop-color="#fff" id="stop171"/><stop offset=".56" stop-color="#fff" id="stop173"/><stop offset=".74" stop-color="#9f9f9f" id="stop175"/><stop offset=".9" stop-color="#3b3b3b" id="stop177"/><stop offset="1" stop-color="#ccc" id="stop179"/></linearGradient><path fill="url(#H)" d="M114.915 121.61h209.131v15.085H114.915V121.61z" id="path182"/><path d="M114.915 121.61h209.131v15.085H114.915V121.61z" class="B C" id="path184"/><linearGradient id="I" gradientUnits="userSpaceOnUse" x1="219.479" y1="154.524" x2="219.479" y2="169.607"><stop offset="0" stop-color="#ccc" id="stop186"/><stop offset=".1" stop-color="#3b3b3b" id="stop188"/><stop offset=".26" stop-color="#9f9f9f" id="stop190"/><stop offset=".44" stop-color="#fff" id="stop192"/><stop offset=".56" stop-color="#fff" id="stop194"/><stop offset=".74" stop-color="#9f9f9f" id="stop196"/><stop offset=".9" stop-color="#3b3b3b" id="stop198"/><stop offset="1" stop-color="#ccc" id="stop200"/></linearGradient><path fill="url(#I)" d="M114.915 154.523h209.131v15.085H114.915v-15.085z" id="path203"/><path d="M114.915 154.523h209.131v15.085H114.915v-15.085z" class="B C" id="path205"/><linearGradient id="J" gradientUnits="userSpaceOnUse" x1="219.479" y1="187.436" x2="219.479" y2="202.519"><stop offset="0" stop-color="#ccc" id="stop207"/><stop offset=".1" stop-color="#3b3b3b" id="stop209"/><stop offset=".26" stop-color="#9f9f9f" id="stop211"/><stop offset=".44" stop-color="#fff" id="stop213"/><stop offset=".56" stop-color="#fff" id="stop215"/><stop offset=".74" stop-color="#9f9f9f" id="stop217"/><stop offset=".9" stop-color="#3b3b3b" id="stop219"/><stop offset="1" stop-color="#ccc" id="stop221"/></linearGradient><path fill="url(#J)" d="M114.915 187.435h209.131v15.085H114.915v-15.085z" id="path224"/><path d="M114.915 187.435h209.131v15.085H114.915v-15.085z" class="B C" id="path226"/><linearGradient id="K" gradientUnits="userSpaceOnUse" x1="219.479" y1="220.348" x2="219.479" y2="235.431"><stop offset="0" stop-color="#ccc" id="stop228"/><stop offset=".1" stop-color="#3b3b3b" id="stop230"/><stop offset=".26" stop-color="#9f9f9f" id="stop232"/><stop offset=".44" stop-color="#fff" id="stop234"/><stop offset=".56" stop-color="#fff" id="stop236"/><stop offset=".74" stop-color="#9f9f9f" id="stop238"/><stop offset=".9" stop-color="#3b3b3b" id="stop240"/><stop offset="1" stop-color="#ccc" id="stop242"/></linearGradient><path fill="url(#K)" d="M114.915 220.348h209.131v15.085H114.915v-15.085z" id="path245"/><path d="M114.915 220.348h209.131v15.085H114.915v-15.085z" class="B C" id="path247"/><linearGradient id="L" gradientUnits="userSpaceOnUse" x1="219.479" y1="253.26" x2="219.479" y2="268.343"><stop offset="0" stop-color="#ccc" id="stop249"/><stop offset=".1" stop-color="#3b3b3b" id="stop251"/><stop offset=".26" stop-color="#9f9f9f" id="stop253"/><stop offset=".44" stop-color="#fff" id="stop255"/><stop offset=".56" stop-color="#fff" id="stop257"/><stop offset=".74" stop-color="#9f9f9f" id="stop259"/><stop offset=".9" stop-color="#3b3b3b" id="stop261"/><stop offset="1" stop-color="#ccc" id="stop263"/></linearGradient><path fill="url(#L)" d="M114.915 253.26h209.131v15.085H114.915V253.26z" id="path266"/><path d="M114.915 253.26h209.131v15.085H114.915V253.26z" class="B C" id="path268"/><linearGradient id="M" gradientUnits="userSpaceOnUse" x1="207.484" y1="286.172" x2="207.484" y2="301.259"><stop offset="0" stop-color="#ccc" id="stop270"/><stop offset=".1" stop-color="#3b3b3b" id="stop272"/><stop offset=".26" stop-color="#9f9f9f" id="stop274"/><stop offset=".44" stop-color="#fff" id="stop276"/><stop offset=".56" stop-color="#fff" id="stop278"/><stop offset=".74" stop-color="#9f9f9f" id="stop280"/><stop offset=".9" stop-color="#3b3b3b" id="stop282"/><stop offset="1" stop-color="#ccc" id="stop284"/></linearGradient><path fill="url(#M)" d="M90.916 286.173h233.13v15.085H90.916v-15.085z" id="path287"/><path d="M90.916 286.173h233.13v15.085H90.916v-15.085z" class="B C" id="path289"/></g><path fill="none" stroke="#666" stroke-width="1.8" d="M128.663.013V240M144.418.013V240M160.184.013V240M175.918.013V240M191.684.013V240M207.44.013V240M223.195.013V240M238.961.013V240M112.907.013V240M97.141.013V240M81.407.013V240M65.641.013V240M49.886.013V240M34.13.013V240M18.364.013V240" id="path293"/><defs id="defs375"><path id="S" d="M101.887 162.752v15.085c-4.971 0-9.085 3.943-9.085 8.914s4.114 8.914 9.085 8.914v15.085c-13.611-.343-24.17-10.388-24.17-23.999 0-13.269 10.56-23.999 24.17-23.999z"/><path id="T" d="M101.887 294.402v15.085c-4.971 0-9.085 3.943-9.085 8.914s4.114 8.914 9.085 8.914V342.4c-13.611-.343-24.17-10.388-24.17-23.999 0-13.269 10.56-23.999 24.17-23.999z"/><path id="U" d="M310.681 243.661v-15.085c4.971 0 9.085-3.943 9.085-8.914s-4.114-8.914-9.085-8.914v-15.085c13.611.343 24.17 10.388 24.17 23.999 0 13.269-10.559 23.999-24.17 23.999z"/></defs></svg>