<svg xmlns="http://www.w3.org/2000/svg" xmlns:xlink="http://www.w3.org/1999/xlink" width="257.134" height="240" xmlns:v="https://vecta.io/nano">
	<style>
		<![CDATA[.B{opacity:.32}.C{fill:#c4c4c4}]]>
	</style>
	<g transform="translate(-77.717 -149.038)">
		<radialGradient id="A" cx="-254.29" cy="-1301.594" r="8.653" fx="-254.301" fy="-1301.594" gradientTransform="matrix(-0.3371 -2.7452 -2.745 0.3309 -3556.8689 -80.6393)" gradientUnits="userSpaceOnUse">
			<stop offset=".013" stop-color="#ccc"/>
			<stop offset=".375" stop-color="#ccc"/>
			<stop offset=".437" stop-color="#3b3b3b"/>
			<stop offset=".537" stop-color="#9f9f9f"/>
			<stop offset=".65" stop-color="#fff"/>
			<stop offset=".725" stop-color="#fff"/>
			<stop offset=".838" stop-color="#9f9f9f"/>
			<stop offset=".938" stop-color="#3b3b3b"/>
			<stop offset="1" stop-color="#ccc"/>
		</radialGradient>
		<use xlink:href="#S" fill="url(#A)"/>
		<use xlink:href="#S" class="B C"/>
		<radialGradient id="B" cx="-301.547" cy="-1295.791" r="8.653" fx="-301.558" fy="-1295.791" gradientTransform="matrix(-0.3371 -2.7452 -2.745 0.3309 -3556.8689 -80.6393)" gradientUnits="userSpaceOnUse">
			<stop offset=".013" stop-color="#ccc"/>
			<stop offset=".375" stop-color="#ccc"/>
			<stop offset=".437" stop-color="#3b3b3b"/>
			<stop offset=".537" stop-color="#9f9f9f"/>
			<stop offset=".65" stop-color="#fff"/>
			<stop offset=".725" stop-color="#fff"/>
			<stop offset=".838" stop-color="#9f9f9f"/>
			<stop offset=".938" stop-color="#3b3b3b"/>
			<stop offset="1" stop-color="#ccc"/>
		</radialGradient>
		<use xlink:href="#T" fill="url(#B)"/>
		<use xlink:href="#T" class="B C"/>
		<radialGradient id="C" cx="-277.918" cy="-1298.692" r="8.653" fx="-277.93" fy="-1298.692" gradientTransform="matrix(-0.3371 -2.7452 -2.745 0.3309 -3556.8689 -80.6393)" gradientUnits="userSpaceOnUse">
			<stop offset=".013" stop-color="#ccc"/>
			<stop offset=".375" stop-color="#ccc"/>
			<stop offset=".437" stop-color="#3b3b3b"/>
			<stop offset=".537" stop-color="#9f9f9f"/>
			<stop offset=".65" stop-color="#fff"/>
			<stop offset=".725" stop-color="#fff"/>
			<stop offset=".838" stop-color="#9f9f9f"/>
			<stop offset=".938" stop-color="#3b3b3b"/>
			<stop offset="1" stop-color="#ccc"/>
		</radialGradient>
		<path fill="url(#C)" d="M101.887 228.577v15.085c-4.971 0-9.085 3.943-9.085 8.914s4.114 8.914 9.085 8.914v15.085c-13.611-.343-24.17-10.388-24.17-23.999 0-13.269 10.56-23.999 24.17-23.999z"/>
		<use xlink:href="#S" y="65.825" class="B C"/>
		<radialGradient id="D" cx="-496.72" cy="-1556.868" r="8.653" fx="-496.731" fy="-1556.868" gradientTransform="matrix(0.3371 2.7452 2.745 -0.3309 4751.8882 1068.1014)" gradientUnits="userSpaceOnUse">
			<stop offset=".013" stop-color="#ccc"/>
			<stop offset=".375" stop-color="#ccc"/>
			<stop offset=".437" stop-color="#3b3b3b"/>
			<stop offset=".537" stop-color="#9f9f9f"/>
			<stop offset=".65" stop-color="#fff"/>
			<stop offset=".725" stop-color="#fff"/>
			<stop offset=".838" stop-color="#9f9f9f"/>
			<stop offset=".938" stop-color="#3b3b3b"/>
			<stop offset="1" stop-color="#ccc"/>
		</radialGradient>
		<use xlink:href="#U" fill="url(#D)"/>
		<use xlink:href="#U" class="B C"/>
		<radialGradient id="E" cx="-473.092" cy="-1559.77" r="8.653" fx="-473.103" fy="-1559.77" gradientTransform="matrix(0.3371 2.7452 2.745 -0.3309 4751.8882 1068.1014)" gradientUnits="userSpaceOnUse">
			<stop offset=".013" stop-color="#ccc"/>
			<stop offset=".375" stop-color="#ccc"/>
			<stop offset=".437" stop-color="#3b3b3b"/>
			<stop offset=".537" stop-color="#9f9f9f"/>
			<stop offset=".65" stop-color="#fff"/>
			<stop offset=".725" stop-color="#fff"/>
			<stop offset=".838" stop-color="#9f9f9f"/>
			<stop offset=".938" stop-color="#3b3b3b"/>
			<stop offset="1" stop-color="#ccc"/>
		</radialGradient>
		<path fill="url(#E)" d="M310.681 309.486v-15.085c4.971 0 9.085-3.943 9.085-8.914s-4.114-8.914-9.085-8.914v-15.085c13.611.343 24.17 10.388 24.17 23.999 0 13.269-10.559 23.999-24.17 23.999z"/>
		<use xlink:href="#U" y="65.825" class="B C"/>
		<radialGradient id="F" cx="-449.463" cy="-1562.672" r="8.653" fx="-449.474" fy="-1562.672" gradientTransform="matrix(0.3371 2.7452 2.745 -0.3309 4751.8882 1068.1014)" gradientUnits="userSpaceOnUse">
			<stop offset=".013" stop-color="#ccc"/>
			<stop offset=".375" stop-color="#ccc"/>
			<stop offset=".437" stop-color="#3b3b3b"/>
			<stop offset=".537" stop-color="#9f9f9f"/>
			<stop offset=".65" stop-color="#fff"/>
			<stop offset=".725" stop-color="#fff"/>
			<stop offset=".838" stop-color="#9f9f9f"/>
			<stop offset=".938" stop-color="#3b3b3b"/>
			<stop offset="1" stop-color="#ccc"/>
		</radialGradient>
		<path fill="url(#F)" d="M310.681 375.311v-15.085c4.971 0 9.085-3.943 9.085-8.914s-4.114-8.914-9.085-8.914v-15.085c13.611.343 24.17 10.388 24.17 23.999 0 13.269-10.559 23.999-24.17 23.999z"/>
		<use xlink:href="#U" y="131.65" class="B C"/>
	</g>
	<g transform="translate(-90.916 -74.984)">
		<linearGradient id="G" gradientUnits="userSpaceOnUse" x1="231.486" y1="88.7" x2="231.486" y2="103.783">
			<stop offset="0" stop-color="#ccc"/>
			<stop offset=".1" stop-color="#3b3b3b"/>
			<stop offset=".26" stop-color="#9f9f9f"/>
			<stop offset=".44" stop-color="#fff"/>
			<stop offset=".56" stop-color="#fff"/>
			<stop offset=".74" stop-color="#9f9f9f"/>
			<stop offset=".9" stop-color="#3b3b3b"/>
			<stop offset="1" stop-color="#ccc"/>
		</linearGradient>
		<path fill="url(#G)" d="M114.915,88.698H348.05v15.085H114.915V88.698z"/>
		<path d="M114.915 88.698H348.05v15.085H114.915V88.698z" class="B C"/>
		<linearGradient id="H" gradientUnits="userSpaceOnUse" x1="219.479" y1="121.612" x2="219.479" y2="136.695">
			<stop offset="0" stop-color="#ccc"/>
			<stop offset=".1" stop-color="#3b3b3b"/>
			<stop offset=".26" stop-color="#9f9f9f"/>
			<stop offset=".44" stop-color="#fff"/>
			<stop offset=".56" stop-color="#fff"/>
			<stop offset=".74" stop-color="#9f9f9f"/>
			<stop offset=".9" stop-color="#3b3b3b"/>
			<stop offset="1" stop-color="#ccc"/>
		</linearGradient>
		<path fill="url(#H)" d="M114.915,121.61h209.131v15.085H114.915V121.61z"/>
		<path d="M114.915 121.61h209.131v15.085H114.915V121.61z" class="B C"/>
		<linearGradient id="I" gradientUnits="userSpaceOnUse" x1="219.479" y1="154.524" x2="219.479" y2="169.607">
			<stop offset="0" stop-color="#ccc"/>
			<stop offset=".1" stop-color="#3b3b3b"/>
			<stop offset=".26" stop-color="#9f9f9f"/>
			<stop offset=".44" stop-color="#fff"/>
			<stop offset=".56" stop-color="#fff"/>
			<stop offset=".74" stop-color="#9f9f9f"/>
			<stop offset=".9" stop-color="#3b3b3b"/>
			<stop offset="1" stop-color="#ccc"/>
		</linearGradient>
		<path fill="url(#I)" d="M114.915,154.523h209.131v15.085H114.915V154.523z"/>
		<path d="M114.915 154.523h209.131v15.085H114.915v-15.085z" class="B C"/>
		<linearGradient id="J" gradientUnits="userSpaceOnUse" x1="219.479" y1="187.436" x2="219.479" y2="202.519">
			<stop offset="0" stop-color="#ccc"/>
			<stop offset=".1" stop-color="#3b3b3b"/>
			<stop offset=".26" stop-color="#9f9f9f"/>
			<stop offset=".44" stop-color="#fff"/>
			<stop offset=".56" stop-color="#fff"/>
			<stop offset=".74" stop-color="#9f9f9f"/>
			<stop offset=".9" stop-color="#3b3b3b"/>
			<stop offset="1" stop-color="#ccc"/>
		</linearGradient>
		<path fill="url(#J)" d="M114.915,187.435h209.131v15.085H114.915V187.435z"/>
		<path d="M114.915 187.435h209.131v15.085H114.915v-15.085z" class="B C"/>
		<linearGradient id="K" gradientUnits="userSpaceOnUse" x1="219.479" y1="220.348" x2="219.479" y2="235.431">
			<stop offset="0" stop-color="#ccc"/>
			<stop offset=".1" stop-color="#3b3b3b"/>
			<stop offset=".26" stop-color="#9f9f9f"/>
			<stop offset=".44" stop-color="#fff"/>
			<stop offset=".56" stop-color="#fff"/>
			<stop offset=".74" stop-color="#9f9f9f"/>
			<stop offset=".9" stop-color="#3b3b3b"/>
			<stop offset="1" stop-color="#ccc"/>
		</linearGradient>
		<path fill="url(#K)" d="M114.915,220.348h209.131v15.085H114.915V220.348z"/>
		<path d="M114.915 220.348h209.131v15.085H114.915v-15.085z" class="B C"/>
		<linearGradient id="L" gradientUnits="userSpaceOnUse" x1="219.479" y1="253.26" x2="219.479" y2="268.343">
			<stop offset="0" stop-color="#ccc"/>
			<stop offset=".1" stop-color="#3b3b3b"/>
			<stop offset=".26" stop-color="#9f9f9f"/>
			<stop offset=".44" stop-color="#fff"/>
			<stop offset=".56" stop-color="#fff"/>
			<stop offset=".74" stop-color="#9f9f9f"/>
			<stop offset=".9" stop-color="#3b3b3b"/>
			<stop offset="1" stop-color="#ccc"/>
		</linearGradient>
		<path fill="url(#L)" d="M114.915,253.26h209.131v15.085H114.915V253.26z"/>
		<path d="M114.915 253.26h209.131v15.085H114.915V253.26z" class="B C"/>
		<linearGradient id="M" gradientUnits="userSpaceOnUse" x1="207.484" y1="286.172" x2="207.484" y2="301.259">
			<stop offset="0" stop-color="#ccc"/>
			<stop offset=".1" stop-color="#3b3b3b"/>
			<stop offset=".26" stop-color="#9f9f9f"/>
			<stop offset=".44" stop-color="#fff"/>
			<stop offset=".56" stop-color="#fff"/>
			<stop offset=".74" stop-color="#9f9f9f"/>
			<stop offset=".9" stop-color="#3b3b3b"/>
			<stop offset="1" stop-color="#ccc"/>
		</linearGradient>
		<path fill="url(#M)" d="M90.916 286.173h233.13v15.085H90.916v-15.085z"/>
		<path d="M90.916 286.173h233.13v15.085H90.916v-15.085z" class="B C"/>
	</g>
	<path fill="none" stroke="#666" stroke-width="1.8" d="M128.663.013V240M144.418.013V240M160.184.013V240M175.918.013V240M191.684.013V240M207.44.013V240M223.195.013V240M238.961.013V240M112.907.013V240M97.141.013V240M81.407.013V240M65.641.013V240M49.886.013V240M34.13.013V240M18.364.013V240"/>
	<g id="IoTa_Rotation_On">
		<linearGradient id="N" gradientUnits="userSpaceOnUse" x1="1451.291" y1="974.76" x2="1748.105" y2="621.018" gradientTransform="matrix(-0.1706 0.0985 0.0985 0.1706 323.1465 -173.6126)">
			<stop offset="0" stop-color="#ccc"/>
			<stop offset=".147" stop-color="#f7f7f7"/>
			<stop offset=".191" stop-color="#f7f7f7"/>
			<stop offset=".45" stop-color="#888"/>
			<stop offset=".5" stop-color="#777"/>
			<stop offset=".55" stop-color="#888"/>
			<stop offset=".792" stop-color="#f7f7f7"/>
			<stop offset=".844" stop-color="#f7f7f7"/>
			<stop offset="1" stop-color="#ccc"/>
		</linearGradient>
		<path stroke="#777" stroke-width="0.7px" fill="url(#N)" d="M141.45 224.895c7.631-13.818 9.692-34.855 1.444-55.686-24.131-36.919 44.963-145.198 2.474-167.47C119.793-8.987 98.962 31.85 114.432 70.83c24.131 37.124-44.963 145.198-2.474 167.47 11.961 4.952 22.892-1.44 29.492-13.405h0z"/>
		<linearGradient id="O" gradientUnits="userSpaceOnUse" x1="2422.616" y1="1683.829" x2="2719.43" y2="1330.088" gradientTransform="matrix(-0.1706 -0.0985 -0.0985 0.1706 715.6413 116.3068)">
			<stop offset="0" stop-color="#ccc"/>
			<stop offset=".147" stop-color="#f7f7f7"/>
			<stop offset=".191" stop-color="#f7f7f7"/>
			<stop offset=".45" stop-color="#888"/>
			<stop offset=".5" stop-color="#777"/>
			<stop offset=".55" stop-color="#888"/>
			<stop offset=".792" stop-color="#f7f7f7"/>
			<stop offset=".844" stop-color="#f7f7f7"/>
			<stop offset="1" stop-color="#ccc"/>
		</linearGradient>
		<path stroke="#777" stroke-width="0.7px" fill="url(#O)" d="M44.134 183.533c15.782-.3 35.031-9.034 48.947-26.591 19.907-39.359 148.227-33.659 146.269-81.593-3.499-27.512-49.279-25.133-75.301 7.755-20.084 39.46-148.227 33.659-146.27 81.593 1.692 12.833 12.692 19.101 26.355 18.836h0z"/>
		<linearGradient id="P" gradientUnits="userSpaceOnUse" x1="351.723" y1="1461.083" x2="648.537" y2="1107.341" gradientTransform="matrix(3.502403e-06 0.197 0.197 -3.502403e-06 -124.1604 21.3588)">
			<stop offset="0" stop-color="#ccc"/>
			<stop offset=".147" stop-color="#f7f7f7"/>
			<stop offset=".191" stop-color="#f7f7f7"/>
			<stop offset=".45" stop-color="#888"/>
			<stop offset=".5" stop-color="#777"/>
			<stop offset=".55" stop-color="#888"/>
			<stop offset=".792" stop-color="#f7f7f7"/>
			<stop offset=".844" stop-color="#f7f7f7"/>
			<stop offset="1" stop-color="#ccc"/>
		</linearGradient>
		<path stroke="#777" stroke-width="0.7px" fill="url(#P)" d="M225.904 161.37c-8.151-13.518-25.338-25.821-47.503-29.095-44.039 2.44-103.264-111.539-143.795-85.877-22.076 16.786 2.873 55.244 44.365 61.336 44.215-2.336 103.264 111.539 143.795 85.877 10.27-7.881 10.2-20.542 3.138-32.241h0z"/>
		<radialGradient id="Q" cx="338.965" cy="-340.645" r="7.349" gradientTransform="matrix(1.8659 1.8659 1.9091 -1.9091 146.5619 -1162.7065)" gradientUnits="userSpaceOnUse">
			<stop offset="0" stop-color="#b3b3b3"/>
			<stop offset=".206" stop-color="#a5a5a5"/>
			<stop offset=".6" stop-color="#666"/>
			<stop offset=".663" stop-color="#8c8c8c"/>
			<stop offset="1" stop-color="#f2f2f2"/>
		</radialGradient>
		<circle stroke="#777" stroke-width="0.7px" fill="url(#Q)" cx="128.611" cy="119.994" r="19.344"/>
	</g>
	<defs >
		<path id="S" d="M101.887 162.752v15.085c-4.971 0-9.085 3.943-9.085 8.914s4.114 8.914 9.085 8.914v15.085c-13.611-.343-24.17-10.388-24.17-23.999 0-13.269 10.56-23.999 24.17-23.999z"/>
		<path id="T" d="M101.887 294.402v15.085c-4.971 0-9.085 3.943-9.085 8.914s4.114 8.914 9.085 8.914V342.4c-13.611-.343-24.17-10.388-24.17-23.999 0-13.269 10.56-23.999 24.17-23.999z"/>
		<path id="U" d="M310.681 243.661v-15.085c4.971 0 9.085-3.943 9.085-8.914s-4.114-8.914-9.085-8.914v-15.085c13.611.343 24.17 10.388 24.17 23.999 0 13.269-10.559 23.999-24.17 23.999z"/>
	</defs>
</svg>