<svg width="257.133" height="207.953" viewBox="0 0 68.033 55.021" xmlns="http://www.w3.org/2000/svg"><defs><linearGradient id="f" gradientUnits="userSpaceOnUse" x1="231.486" y1="88.7" x2="231.486" y2="103.783" gradientTransform="matrix(.99957 0 0 1 .05 0)"><stop offset="0" stop-color="#ccc"/><stop offset=".1" stop-color="#3b3b3b"/><stop offset=".26" stop-color="#9f9f9f"/><stop offset=".44" stop-color="#fff"/><stop offset=".56" stop-color="#fff"/><stop offset=".74" stop-color="#9f9f9f"/><stop offset=".9" stop-color="#3b3b3b"/><stop offset="1" stop-color="#ccc"/></linearGradient><linearGradient id="k" gradientUnits="userSpaceOnUse" x1="219.479" y1="253.26" x2="219.479" y2="268.343" gradientTransform="matrix(1.1143 0 0 1 -13.135 0)"><stop offset="0" stop-color="#ccc"/><stop offset=".1" stop-color="#3b3b3b"/><stop offset=".26" stop-color="#9f9f9f"/><stop offset=".44" stop-color="#fff"/><stop offset=".56" stop-color="#fff"/><stop offset=".74" stop-color="#9f9f9f"/><stop offset=".9" stop-color="#3b3b3b"/><stop offset="1" stop-color="#ccc"/></linearGradient><linearGradient id="j" gradientUnits="userSpaceOnUse" x1="219.479" y1="220.348" x2="219.479" y2="235.431"><stop offset="0" stop-color="#ccc"/><stop offset=".1" stop-color="#3b3b3b"/><stop offset=".26" stop-color="#9f9f9f"/><stop offset=".44" stop-color="#fff"/><stop offset=".56" stop-color="#fff"/><stop offset=".74" stop-color="#9f9f9f"/><stop offset=".9" stop-color="#3b3b3b"/><stop offset="1" stop-color="#ccc"/></linearGradient><linearGradient id="i" gradientUnits="userSpaceOnUse" x1="219.479" y1="187.436" x2="219.479" y2="202.519"><stop offset="0" stop-color="#ccc"/><stop offset=".1" stop-color="#3b3b3b"/><stop offset=".26" stop-color="#9f9f9f"/><stop offset=".44" stop-color="#fff"/><stop offset=".56" stop-color="#fff"/><stop offset=".74" stop-color="#9f9f9f"/><stop offset=".9" stop-color="#3b3b3b"/><stop offset="1" stop-color="#ccc"/></linearGradient><linearGradient id="h" gradientUnits="userSpaceOnUse" x1="219.479" y1="154.524" x2="219.479" y2="169.607"><stop offset="0" stop-color="#ccc"/><stop offset=".1" stop-color="#3b3b3b"/><stop offset=".26" stop-color="#9f9f9f"/><stop offset=".44" stop-color="#fff"/><stop offset=".56" stop-color="#fff"/><stop offset=".74" stop-color="#9f9f9f"/><stop offset=".9" stop-color="#3b3b3b"/><stop offset="1" stop-color="#ccc"/></linearGradient><linearGradient id="g" gradientUnits="userSpaceOnUse" x1="219.479" y1="121.612" x2="219.479" y2="136.695"><stop offset="0" stop-color="#ccc"/><stop offset=".1" stop-color="#3b3b3b"/><stop offset=".26" stop-color="#9f9f9f"/><stop offset=".44" stop-color="#fff"/><stop offset=".56" stop-color="#fff"/><stop offset=".74" stop-color="#9f9f9f"/><stop offset=".9" stop-color="#3b3b3b"/><stop offset="1" stop-color="#ccc"/></linearGradient><radialGradient id="b" cx="-301.547" cy="-1295.791" r="8.653" fx="-301.558" fy="-1295.791" gradientTransform="matrix(-.3371 -2.7452 -2.745 .3309 -3556.869 -80.64)" gradientUnits="userSpaceOnUse"><stop offset=".013" stop-color="#ccc"/><stop offset=".375" stop-color="#ccc"/><stop offset=".437" stop-color="#3b3b3b"/><stop offset=".537" stop-color="#9f9f9f"/><stop offset=".65" stop-color="#fff"/><stop offset=".725" stop-color="#fff"/><stop offset=".838" stop-color="#9f9f9f"/><stop offset=".938" stop-color="#3b3b3b"/><stop offset="1" stop-color="#ccc"/></radialGradient><radialGradient id="e" cx="-473.092" cy="-1559.77" r="8.653" fx="-473.103" fy="-1559.77" gradientTransform="matrix(.3371 2.7452 2.745 -.3309 4751.888 1068.101)" gradientUnits="userSpaceOnUse"><stop offset=".013" stop-color="#ccc"/><stop offset=".375" stop-color="#ccc"/><stop offset=".437" stop-color="#3b3b3b"/><stop offset=".537" stop-color="#9f9f9f"/><stop offset=".65" stop-color="#fff"/><stop offset=".725" stop-color="#fff"/><stop offset=".838" stop-color="#9f9f9f"/><stop offset=".938" stop-color="#3b3b3b"/><stop offset="1" stop-color="#ccc"/></radialGradient><radialGradient id="d" cx="-496.72" cy="-1556.868" r="8.653" fx="-496.731" fy="-1556.868" gradientTransform="matrix(.3371 2.7452 2.745 -.3309 4751.888 1068.101)" gradientUnits="userSpaceOnUse"><stop offset=".013" stop-color="#ccc"/><stop offset=".375" stop-color="#ccc"/><stop offset=".437" stop-color="#3b3b3b"/><stop offset=".537" stop-color="#9f9f9f"/><stop offset=".65" stop-color="#fff"/><stop offset=".725" stop-color="#fff"/><stop offset=".838" stop-color="#9f9f9f"/><stop offset=".938" stop-color="#3b3b3b"/><stop offset="1" stop-color="#ccc"/></radialGradient><radialGradient id="c" cx="-277.918" cy="-1298.692" r="8.653" fx="-277.93" fy="-1298.692" gradientTransform="matrix(-.3371 -2.7452 -2.745 .3309 -3556.869 -80.64)" gradientUnits="userSpaceOnUse"><stop offset=".013" stop-color="#ccc"/><stop offset=".375" stop-color="#ccc"/><stop offset=".437" stop-color="#3b3b3b"/><stop offset=".537" stop-color="#9f9f9f"/><stop offset=".65" stop-color="#fff"/><stop offset=".725" stop-color="#fff"/><stop offset=".838" stop-color="#9f9f9f"/><stop offset=".938" stop-color="#3b3b3b"/><stop offset="1" stop-color="#ccc"/></radialGradient><radialGradient id="a" cx="-254.29" cy="-1301.594" r="8.653" fx="-254.301" fy="-1301.594" gradientTransform="matrix(-.3371 -2.7452 -2.745 .3309 -3556.869 -80.64)" gradientUnits="userSpaceOnUse"><stop offset=".013" stop-color="#ccc"/><stop offset=".375" stop-color="#ccc"/><stop offset=".437" stop-color="#3b3b3b"/><stop offset=".537" stop-color="#9f9f9f"/><stop offset=".65" stop-color="#fff"/><stop offset=".725" stop-color="#fff"/><stop offset=".838" stop-color="#9f9f9f"/><stop offset=".938" stop-color="#3b3b3b"/><stop offset="1" stop-color="#ccc"/></radialGradient></defs><path d="M101.887 162.752v15.085c-4.971 0-9.085 3.943-9.085 8.914s4.114 8.914 9.085 8.914v15.085c-13.611-.343-24.17-10.388-24.17-23.999 0-13.269 10.56-23.999 24.17-23.999z" style="fill:url(#a)" transform="matrix(.26458 0 0 .26458 -20.563 -39.436)"/><path d="M101.887 162.752v15.085c-4.971 0-9.085 3.943-9.085 8.914s4.114 8.914 9.085 8.914v15.085c-13.611-.343-24.17-10.388-24.17-23.999 0-13.269 10.56-23.999 24.17-23.999z" style="opacity:.32;fill:#c4c4c4" transform="matrix(.26458 0 0 .26458 -20.563 -39.436)"/><path d="M101.887 294.402v15.085c-4.971 0-9.085 3.943-9.085 8.914s4.114 8.914 9.085 8.914V342.4c-13.611-.343-24.17-10.388-24.17-23.999 0-13.269 10.56-23.999 24.17-23.999z" style="fill:url(#b)" transform="matrix(.26458 0 0 .26458 -20.563 -39.436)"/><path d="M101.887 294.402v15.085c-4.971 0-9.085 3.943-9.085 8.914s4.114 8.914 9.085 8.914V342.4c-13.611-.343-24.17-10.388-24.17-23.999 0-13.269 10.56-23.999 24.17-23.999z" style="opacity:.32;fill:#c4c4c4" transform="matrix(.26458 0 0 .26458 -20.563 -39.436)"/><path fill="url(#c)" d="M101.887 228.577v15.085c-4.971 0-9.085 3.943-9.085 8.914s4.114 8.914 9.085 8.914v15.085c-13.611-.343-24.17-10.388-24.17-23.999 0-13.269 10.56-23.999 24.17-23.999z" style="fill:url(#c)" transform="matrix(.26458 0 0 .26458 -20.563 -39.436)"/><path d="M101.887 228.577v15.085c-4.971 0-9.085 3.943-9.085 8.914s4.114 8.914 9.085 8.914v15.085c-13.611-.343-24.17-10.388-24.17-23.999 0-13.269 10.56-23.999 24.17-23.999z" style="opacity:.32;fill:#c4c4c4" transform="matrix(.26458 0 0 .26458 -20.563 -39.436)"/><path d="M310.681 243.661v-15.085c4.971 0 9.085-3.943 9.085-8.914s-4.114-8.914-9.085-8.914v-15.085c13.611.343 24.17 10.388 24.17 23.999 0 13.269-10.559 23.999-24.17 23.999z" style="fill:url(#d)" transform="matrix(.26458 0 0 .26458 -20.563 -39.436)"/><path d="M310.681 243.661v-15.085c4.971 0 9.085-3.943 9.085-8.914s-4.114-8.914-9.085-8.914v-15.085c13.611.343 24.17 10.388 24.17 23.999 0 13.269-10.559 23.999-24.17 23.999z" style="opacity:.32;fill:#c4c4c4" transform="matrix(.26458 0 0 .26458 -20.563 -39.436)"/><path fill="url(#e)" d="M310.681 309.486v-15.085c4.971 0 9.085-3.943 9.085-8.914s-4.114-8.914-9.085-8.914v-15.085c13.611.343 24.17 10.388 24.17 23.999 0 13.269-10.559 23.999-24.17 23.999z" style="fill:url(#e)" transform="matrix(.26458 0 0 .26458 -20.563 -39.436)"/><path d="M310.681 309.486v-15.085c4.971 0 9.085-3.943 9.085-8.914s-4.114-8.914-9.085-8.914v-15.085c13.611.343 24.17 10.388 24.17 23.999 0 13.269-10.559 23.999-24.17 23.999z" style="opacity:.32;fill:#c4c4c4" transform="matrix(.26458 0 0 .26458 -20.563 -39.436)"/><path fill="url(#f)" d="M114.915 88.698H347.95v15.085H114.915Z" style="fill:url(#f);stroke-width:.999785" transform="matrix(.26458 0 0 .26458 -24.055 -19.843)"/><path d="M114.915 88.698H348.05v15.085H114.915Z" class="B C" style="opacity:.32;fill:#c4c4c4" transform="matrix(.26458 0 0 .26458 -24.055 -19.843)"/><path fill="url(#g)" d="M114.915 121.61h209.131v15.085H114.915Z" style="fill:url(#g)" transform="matrix(.26458 0 0 .26458 -24.055 -19.843)"/><path d="M114.915 121.61h209.131v15.085H114.915Z" class="B C" style="opacity:.32;fill:#c4c4c4" transform="matrix(.26458 0 0 .26458 -24.055 -19.843)"/><path fill="url(#h)" d="M114.915 154.523h209.131v15.085H114.915Z" style="fill:url(#h)" transform="matrix(.26458 0 0 .26458 -24.055 -19.843)"/><path d="M114.915 154.523h209.131v15.085H114.915Z" class="B C" style="opacity:.32;fill:#c4c4c4" transform="matrix(.26458 0 0 .26458 -24.055 -19.843)"/><path fill="url(#i)" d="M114.915 187.435h209.131v15.085H114.915Z" style="fill:url(#i)" transform="matrix(.26458 0 0 .26458 -24.055 -19.843)"/><path d="M114.915 187.435h209.131v15.085H114.915Z" class="B C" style="opacity:.32;fill:#c4c4c4" transform="matrix(.26458 0 0 .26458 -24.055 -19.843)"/><path fill="url(#j)" d="M114.915 220.348h209.131v15.085H114.915Z" style="fill:url(#j)" transform="matrix(.26458 0 0 .26458 -24.055 -19.843)"/><path d="M114.915 220.348h209.131v15.085H114.915Z" class="B C" style="opacity:.32;fill:#c4c4c4" transform="matrix(.26458 0 0 .26458 -24.055 -19.843)"/><path fill="url(#k)" d="M114.915 253.26H347.95v15.085H114.915Z" style="fill:url(#k);stroke-width:1.0556" transform="matrix(.26458 0 0 .26458 -24.055 -19.843)"/><path d="M114.915 253.26H347.95v15.085H114.915Z" class="B C" style="opacity:.32;fill:#c4c4c4;stroke-width:1.0556" transform="matrix(.26458 0 0 .26458 -24.055 -19.843)"/><path fill="none" stroke="#666" stroke-width=".476" d="M34.042 0v55.02M38.211 0v55.02M42.382 0v55.02M46.545 0v55.02M50.716 0v55.02M54.886 0v55.02M59.053 0v55.02M63.225 0v55.02M29.873 0v55.02M25.702 0v55.02M21.539 0v55.02M17.368 0v55.02M13.199 0v55.02M9.03 0v55.02M4.86 0v55.02"/></svg>