<?xml version="1.0"?>
<svg width="65" height="150" xmlns="http://www.w3.org/2000/svg" xmlns:svg="http://www.w3.org/2000/svg">
 <!-- Created with SVG-edit - https://github.com/SVG-Edit/svgedit-->
 <g class="layer">
  <title>Layer 1</title>
  <path d="m48.22,87.5l0,-64.84c0,-8.38 -6.82,-15.17 -15.19,-15.17c-8.39,0 -15.18,6.79 -15.18,15.17l0,64.33c-9.55,5.23 -16.03,15.37 -16.03,27.02c0,17.01 13.79,30.79 30.79,30.79c17.01,0 30.79,-13.78 30.79,-30.79c0,-11.3 -6.1,-21.16 -15.17,-26.51zm-15.61,52.24c-14.18,0 -25.73,-11.55 -25.73,-25.74c0,-9.39 5.13,-18.04 13.39,-22.57l2.63,-1.43l0,-67.34c0,-5.58 4.55,-10.11 10.13,-10.11c5.58,0 10.12,4.53 10.12,10.11l0,67.72l2.48,1.47c7.96,4.7 12.72,12.97 12.72,22.15c-0.01,14.2 -11.56,25.74 -25.75,25.74zm10.46,-43.53l-4.98,-2.93l0,-44.23l-10.12,0l0,43.94l-5.26,2.88c-6.64,3.65 -10.76,10.58 -10.76,18.13c0,11.39 9.28,20.67 20.67,20.67c11.4,0 20.67,-9.28 20.67,-20.67c0.01,-7.26 -3.9,-14.07 -10.21,-17.78z" fill="#FF0000" id="svg_1" stroke="#000000" stroke-width="0"/>
 </g>
</svg>