<?xml version="1.0" encoding="UTF-8" standalone="no"?>
<svg
   xmlns:dc="http://purl.org/dc/elements/1.1/"
   xmlns:cc="http://creativecommons.org/ns#"
   xmlns:rdf="http://www.w3.org/1999/02/22-rdf-syntax-ns#"
   xmlns:svg="http://www.w3.org/2000/svg"
   xmlns="http://www.w3.org/2000/svg"
   xmlns:sodipodi="http://sodipodi.sourceforge.net/DTD/sodipodi-0.dtd"
   xmlns:inkscape="http://www.inkscape.org/namespaces/inkscape"
   height="24"
   viewBox="0 -960 960 960"
   width="24"
   version="1.1"
   id="svg4"
   sodipodi:docname="t outdoor.svg"
   inkscape:version="0.92.3 (2405546, 2018-03-11)">
  <metadata
     id="metadata10">
    <rdf:RDF>
      <cc:Work
         rdf:about="">
        <dc:format>image/svg+xml</dc:format>
        <dc:type
           rdf:resource="http://purl.org/dc/dcmitype/StillImage" />
        <dc:title></dc:title>
      </cc:Work>
    </rdf:RDF>
  </metadata>
  <defs
     id="defs8" />
  <sodipodi:namedview
     pagecolor="#ffffff"
     bordercolor="#666666"
     borderopacity="1"
     objecttolerance="10"
     gridtolerance="10"
     guidetolerance="10"
     inkscape:pageopacity="0"
     inkscape:pageshadow="2"
     inkscape:window-width="2482"
     inkscape:window-height="1057"
     id="namedview6"
     showgrid="false"
     showguides="true"
     inkscape:guide-bbox="true"
     inkscape:zoom="11.313709"
     inkscape:cx="26.336074"
     inkscape:cy="11.922918"
     inkscape:window-x="70"
     inkscape:window-y="-8"
     inkscape:window-maximized="1"
     inkscape:current-layer="svg4">
    <sodipodi:guide
       position="480,978.30509"
       orientation="1,0"
       id="guide823"
       inkscape:locked="false" />
    <sodipodi:guide
       position="159.0625,480.15625"
       orientation="0,1"
       id="guide825"
       inkscape:locked="false" />
    <sodipodi:guide
       position="410,840"
       orientation="0,1"
       id="guide833"
       inkscape:locked="false" />
    <sodipodi:guide
       position="798.75,656.25"
       orientation="1,0"
       id="guide835"
       inkscape:locked="false" />
    <sodipodi:guide
       position="571.25,786.25"
       orientation="1,0"
       id="guide837"
       inkscape:locked="false" />
    <sodipodi:guide
       position="-413.75,386.25"
       orientation="0,1"
       id="guide839"
       inkscape:locked="false" />
  </sodipodi:namedview>
  <path
     style="stroke-width:0.025"
     d="M 12 3 L 4 9 L 4 21 L 11 21 L 13 21 L 20 21 L 20 14.34375 L 18 14.34375 L 18 19 L 15 19 L 9 19 L 6 19 L 6 10 L 12 5.5 L 14.28125 7.2109375 L 14.28125 4.7109375 L 12 3 z M 19.982422 8.9863281 L 19.982422 13.261719 L 20 13.261719 L 20 9 L 19.982422 8.9863281 z "
     transform="matrix(40,0,0,40,0,-960)"
     id="path2" />
  <path
     d="m 685.4715,-433.98774 c -31.21879,0 -57.82998,-10.99026 -79.83358,-32.97079 -22.00359,-21.98055 -33.00541,-48.56384 -33.00541,-79.7499 0,-18.03531 3.94938,-34.84948 11.84809,-50.44249 7.89874,-15.59305 18.99458,-28.83773 33.2875,-39.73406 V -772.1498 c 0,-18.7868 6.5823,-34.75557 19.74683,-47.9063 13.16454,-13.15075 29.15009,-19.72613 47.95657,-19.72613 18.80649,0 34.79202,6.57538 47.95657,19.72613 13.16454,13.15073 19.74682,29.1195 19.74682,47.9063 v 135.26482 c 14.29294,10.89633 25.38876,24.14101 33.2875,39.73406 7.89871,15.59301 11.84809,32.40718 11.84809,50.44249 0,31.18606 -11.0018,57.76935 -33.00539,79.7499 -22.00362,21.98053 -48.61481,32.97079 -79.83359,32.97079 z m -67.7034,-112.72069 h 135.40679 c 0,-10.89632 -2.35083,-21.0412 -7.05241,-30.43459 -4.70164,-9.39339 -11.37796,-17.28384 -20.02895,-23.67134 l -18.05424,-13.52648 V -772.1498 c 0,-6.38752 -2.16279,-11.74175 -6.48827,-16.06272 -4.32548,-4.32096 -9.68535,-6.48142 -16.07955,-6.48142 -6.39422,0 -11.75408,2.16046 -16.07956,6.48142 -4.32549,4.32097 -6.48828,9.6752 -6.48828,16.06272 v 157.80896 l -18.05417,13.52648 c -8.65097,6.3875 -15.32729,14.27795 -20.02892,23.67134 -4.70161,9.39339 -7.05244,19.53827 -7.05244,30.43459 z"
     id="path2-6"
     inkscape:connector-curvature="0"
     sodipodi:nodetypes="sssscssssscssssccsccsssssccsc"
     style="stroke-width:0.56389946" />
</svg>
