<?xml version="1.0" encoding="UTF-8" standalone="no"?>
<svg
   xmlns:dc="http://purl.org/dc/elements/1.1/"
   xmlns:cc="http://creativecommons.org/ns#"
   xmlns:rdf="http://www.w3.org/1999/02/22-rdf-syntax-ns#"
   xmlns:svg="http://www.w3.org/2000/svg"
   xmlns="http://www.w3.org/2000/svg"
   xmlns:sodipodi="http://sodipodi.sourceforge.net/DTD/sodipodi-0.dtd"
   xmlns:inkscape="http://www.inkscape.org/namespaces/inkscape"
   height="24"
   viewBox="0 -960 960 960"
   width="24"
   version="1.1"
   id="svg4"
   sodipodi:docname="duct t in.svg"
   inkscape:version="0.92.3 (2405546, 2018-03-11)">
  <metadata
     id="metadata10">
    <rdf:RDF>
      <cc:Work
         rdf:about="">
        <dc:format>image/svg+xml</dc:format>
        <dc:type
           rdf:resource="http://purl.org/dc/dcmitype/StillImage" />
      </cc:Work>
    </rdf:RDF>
  </metadata>
  <defs
     id="defs8">
    <meshgradient
       inkscape:collect="always"
       id="meshgradient833"
       gradientUnits="userSpaceOnUse"
       x="869.20982"
       y="107.30889">
      <meshrow
         id="meshrow2083">
        <meshpatch
           id="meshpatch2085">
          <stop
             path="c 31.4635,-5.94222e-006  12.079,-53.8983  43.5423,-53.8983"
             style="stop-color:#ffffff;stop-opacity:1"
             id="stop2087" />
          <stop
             path="c 0,35.8291  0,71.6583  0,107.487"
             style="stop-color:#000000;stop-opacity:1"
             id="stop2089" />
          <stop
             path="c -31.4635,0  -62.927,0  -94.3905,0"
             style="stop-color:#ffffff;stop-opacity:1"
             id="stop2091" />
          <stop
             path="c 0,-35.8291  50.8474,-17.7608  50.8482,-53.5887"
             style="stop-color:#000000;stop-opacity:1"
             id="stop2093" />
        </meshpatch>
      </meshrow>
    </meshgradient>
  </defs>
  <sodipodi:namedview
     pagecolor="#ffffff"
     bordercolor="#666666"
     borderopacity="1"
     objecttolerance="10"
     gridtolerance="10"
     guidetolerance="10"
     inkscape:pageopacity="0"
     inkscape:pageshadow="2"
     inkscape:window-width="1456"
     inkscape:window-height="733"
     id="namedview6"
     showgrid="false"
     showguides="true"
     inkscape:guide-bbox="true"
     inkscape:measure-start="0,0"
     inkscape:measure-end="0,0"
     inkscape:zoom="16"
     inkscape:cx="13.48086"
     inkscape:cy="7.5353441"
     inkscape:window-x="878"
     inkscape:window-y="110"
     inkscape:window-maximized="0"
     inkscape:current-layer="svg4">
    <sodipodi:guide
       position="119.49153,319.83051"
       orientation="1,0"
       id="guide817"
       inkscape:locked="false" />
    <sodipodi:guide
       position="577.62712,842.0339"
       orientation="0,1"
       id="guide819"
       inkscape:locked="false" />
    <sodipodi:guide
       position="-903.05085,122.0339"
       orientation="0,1"
       id="guide821"
       inkscape:locked="false" />
    <sodipodi:guide
       position="880,720"
       orientation="1,0"
       id="guide823"
       inkscape:locked="false" />
    <sodipodi:guide
       position="797.04192,704.6761"
       orientation="0,1"
       id="guide825"
       inkscape:locked="false" />
    <sodipodi:guide
       position="560,640"
       orientation="0,1"
       id="guide827"
       inkscape:locked="false" />
    <sodipodi:guide
       position="511.27416,756.48441"
       orientation="1,0"
       id="guide829"
       inkscape:locked="false" />
    <sodipodi:guide
       position="119.49153,678.10342"
       orientation="0,1"
       id="guide2095"
       inkscape:locked="false" />
    <sodipodi:guide
       position="634.95792,483.58913"
       orientation="0,1"
       id="guide2102"
       inkscape:locked="false" />
    <sodipodi:guide
       position="712.85202,608.55377"
       orientation="0,1"
       id="guide2106"
       inkscape:locked="false" />
    <sodipodi:guide
       position="814.05668,737.15882"
       orientation="1,0"
       id="guide2108"
       inkscape:locked="false" />
  </sodipodi:namedview>
  <path
     d="m 832.24256,-640 h -320.9684 v -38.10342 l 320.9684,0 z M 320,-120 c -55.33333,0 -102.5,-19.5 -141.5,-58.5 -39,-39 -58.5,-86.16667 -58.5,-141.5 0,-32 7,-61.83333 21,-89.5 14,-27.66667 33.66667,-51.16667 59,-70.5 v -240 c 0,-33.33333 11.66667,-61.66667 35,-85 23.33333,-23.33333 51.66667,-35 85,-35 33.33333,0 61.66667,11.66667 85,35 23.33333,23.33333 35,51.66667 35,85 v 240 c 25.33333,19.33333 45,42.83333 59,70.5 14,27.66667 21,57.5 21,89.5 0,55.33333 -19.5,102.5 -58.5,141.5 -39,39 -86.16667,58.5 -141.5,58.5 z m 0,-80 c 33.33333,0 61.66667,-11.66667 85,-35 23.33333,-23.33333 35,-51.66667 35,-85 0,-19.33333 -4.16667,-37.33333 -12.5,-54 -8.33333,-16.66667 -20.16667,-30.66667 -35.5,-42 l -32,-24 v -280 c 0,-11.33333 -3.83333,-20.83333 -11.5,-28.5 -7.66667,-7.66667 -17.16667,-11.5 -28.5,-11.5 -11.33333,0 -20.83333,3.83333 -28.5,11.5 -7.66667,7.66667 -11.5,17.16667 -11.5,28.5 v 280 l -32,24 c -15.33333,11.33333 -27.16667,25.33333 -35.5,42 -8.33333,16.66667 -12.5,34.66667 -12.5,54 0,33.33333 11.66667,61.66667 35,85 23.33333,23.33333 51.66667,35 85,35 z"
     id="path2"
     inkscape:connector-curvature="0"
     sodipodi:nodetypes="cccccsssscssssscssssssssccsssssccssss"
     style="fill:#000000" />
  <path
     style="opacity:1;fill:#000000;fill-opacity:1;stroke-width:39.91181183;stroke-linejoin:round;stroke-miterlimit:4;stroke-dasharray:none"
     d="M 748.11336,-563.36522 880,-659.1389 748.11336,-755.60988 Z"
     id="rect2099"
     inkscape:connector-curvature="0"
     sodipodi:nodetypes="cccc" />
</svg>
